<?xml version="1.0" encoding="UTF-8"?>
<svg xmlns="http://www.w3.org/2000/svg" xmlns:xlink="http://www.w3.org/1999/xlink" viewBox="0 0 48 48" width="48px" height="48px">
<g id="surface65411918">
<path style=" stroke:none;fill-rule:nonzero;fill:rgb(80.000001%,80.000001%,80.000001%);fill-opacity:1;" d="M 8.3125 44.640625 C 5.578125 44.640625 3.359375 42.421875 3.359375 39.6875 L 3.359375 8.3125 C 3.359375 5.578125 5.578125 3.359375 8.3125 3.359375 L 39.6875 3.359375 C 42.421875 3.359375 44.640625 5.578125 44.640625 8.3125 L 44.640625 39.6875 C 44.640625 42.421875 42.421875 44.640625 39.6875 44.640625 Z M 38.726562 43.679688 C 41.460938 43.679688 43.679688 41.460938 43.679688 38.726562 L 43.679688 9.273438 C 43.679688 6.539062 41.460938 4.320312 38.726562 4.320312 L 9.273438 4.320312 C 6.539062 4.320312 4.320312 6.539062 4.320312 9.273438 L 4.320312 38.726562 C 4.320312 41.460938 6.539062 43.679688 9.273438 43.679688 Z M 38.726562 43.679688 "/>
<path style=" stroke:none;fill-rule:nonzero;fill:rgb(0%,0%,0%);fill-opacity:1;" d="M 15.144531 17.800781 L 15.144531 19.570312 L 32.855469 19.570312 L 32.855469 17.800781 Z M 15.144531 23.113281 L 15.144531 24.886719 L 32.855469 24.886719 L 32.855469 23.113281 Z M 15.144531 28.429688 L 15.144531 30.199219 L 32.855469 30.199219 L 32.855469 28.429688 Z M 15.144531 28.429688 "/>
</g>
</svg>
