  0
SECTION
  2
HEADER
  9
$ACADVER
  1
AC1024
  9
$ACADMAINTVER
 70
     6
  9
$DWGCODEPAGE
  3
ANSI_1252
  9
$INSBASE
 10
0.0
 20
0.0
 30
0.0
  9
$EXTMIN
 10
1.000000000000000E+20
 20
1.000000000000000E+20
 30
1.000000000000000E+20
  9
$EXTMAX
 10
-1.000000000000000E+20
 20
-1.000000000000000E+20
 30
-1.000000000000000E+20
  9
$LIMMIN
 10
0.0
 20
0.0
  9
$LIMMAX
 10
12.0
 20
9.0
  9
$ORTHOMODE
 70
     0
  9
$REGENMODE
 70
     1
  9
$FILLMODE
 70
     1
  9
$QTEXTMODE
 70
     0
  9
$MIRRTEXT
 70
     1
  9
$LTSCALE
 40
1.0
  9
$ATTMODE
 70
     1
  9
$TEXTSIZE
 40
0.2
  9
$TRACEWID
 40
0.05
  9
$TEXTSTYLE
  7
Standard
  9
$CLAYER
  8
0
  9
$CELTYPE
  6
ByLayer
  9
$CECOLOR
 62
   256
  9
$CELTSCALE
 40
1.0
  9
$DISPSILH
 70
     0
  9
$DIMSCALE
 40
1.0
  9
$DIMASZ
 40
0.18
  9
$DIMEXO
 40
0.0625
  9
$DIMDLI
 40
0.38
  9
$DIMRND
 40
0.0
  9
$DIMDLE
 40
0.0
  9
$DIMEXE
 40
0.18
  9
$DIMTP
 40
0.0
  9
$DIMTM
 40
0.0
  9
$DIMTXT
 40
0.18
  9
$DIMCEN
 40
0.09
  9
$DIMTSZ
 40
0.0
  9
$DIMTOL
 70
     0
  9
$DIMLIM
 70
     0
  9
$DIMTIH
 70
     1
  9
$DIMTOH
 70
     1
  9
$DIMSE1
 70
     0
  9
$DIMSE2
 70
     0
  9
$DIMTAD
 70
     0
  9
$DIMZIN
 70
     0
  9
$DIMBLK
  1

  9
$DIMASO
 70
     1
  9
$DIMSHO
 70
     1
  9
$DIMPOST
  1

  9
$DIMAPOST
  1

  9
$DIMALT
 70
     0
  9
$DIMALTD
 70
     2
  9
$DIMALTF
 40
25.4
  9
$DIMLFAC
 40
1.0
  9
$DIMTOFL
 70
     0
  9
$DIMTVP
 40
0.0
  9
$DIMTIX
 70
     0
  9
$DIMSOXD
 70
     0
  9
$DIMSAH
 70
     0
  9
$DIMBLK1
  1

  9
$DIMBLK2
  1

  9
$DIMSTYLE
  2
Standard
  9
$DIMCLRD
 70
     0
  9
$DIMCLRE
 70
     0
  9
$DIMCLRT
 70
     0
  9
$DIMTFAC
 40
1.0
  9
$DIMGAP
 40
0.09
  9
$DIMJUST
 70
     0
  9
$DIMSD1
 70
     0
  9
$DIMSD2
 70
     0
  9
$DIMTOLJ
 70
     1
  9
$DIMTZIN
 70
     0
  9
$DIMALTZ
 70
     0
  9
$DIMALTTZ
 70
     0
  9
$DIMUPT
 70
     0
  9
$DIMDEC
 70
     4
  9
$DIMTDEC
 70
     4
  9
$DIMALTU
 70
     2
  9
$DIMALTTD
 70
     2
  9
$DIMTXSTY
  7
Standard
  9
$DIMAUNIT
 70
     0
  9
$DIMADEC
 70
     0
  9
$DIMALTRND
 40
0.0
  9
$DIMAZIN
 70
     0
  9
$DIMDSEP
 70
    46
  9
$DIMATFIT
 70
     3
  9
$DIMFRAC
 70
     0
  9
$DIMLDRBLK
  1

  9
$DIMLUNIT
 70
     2
  9
$DIMLWD
 70
    -2
  9
$DIMLWE
 70
    -2
  9
$DIMTMOVE
 70
     0
  9
$DIMFXL
 40
1.0
  9
$DIMFXLON
 70
     0
  9
$DIMJOGANG
 40
0.7853981633974483
  9
$DIMTFILL
 70
     0
  9
$DIMTFILLCLR
 70
     0
  9
$DIMARCSYM
 70
     0
  9
$DIMLTYPE
  6

  9
$DIMLTEX1
  6

  9
$DIMLTEX2
  6

  9
$DIMTXTDIRECTION
 70
     0
  9
$LUNITS
 70
     2
  9
$LUPREC
 70
     4
  9
$SKETCHINC
 40
0.1
  9
$FILLETRAD
 40
0.5
  9
$AUNITS
 70
     0
  9
$AUPREC
 70
     0
  9
$MENU
  1
.
  9
$ELEVATION
 40
0.0
  9
$PELEVATION
 40
0.0
  9
$THICKNESS
 40
0.0
  9
$LIMCHECK
 70
     0
  9
$CHAMFERA
 40
0.5
  9
$CHAMFERB
 40
0.5
  9
$CHAMFERC
 40
1.0
  9
$CHAMFERD
 40
0.0
  9
$SKPOLY
 70
     0
  9
$TDCREATE
 40
2459536.524508622
  9
$TDUCREATE
 40
2459536.649508622
  9
$TDUPDATE
 40
2459536.524508877
  9
$TDUUPDATE
 40
2459536.649508877
  9
$TDINDWG
 40
0.0000000116
  9
$TDUSRTIMER
 40
0.0000000116
  9
$USRTIMER
 70
     1
  9
$ANGBASE
 50
0.0
  9
$ANGDIR
 70
     0
  9
$PDMODE
 70
     0
  9
$PDSIZE
 40
0.0
  9
$PLINEWID
 40
0.0
  9
$SPLFRAME
 70
     0
  9
$SPLINETYPE
 70
     6
  9
$SPLINESEGS
 70
     8
  9
$HANDSEED
  5
66
  9
$SURFTAB1
 70
     6
  9
$SURFTAB2
 70
     6
  9
$SURFTYPE
 70
     6
  9
$SURFU
 70
     6
  9
$SURFV
 70
     6
  9
$UCSBASE
  2

  9
$UCSNAME
  2

  9
$UCSORG
 10
0.0
 20
0.0
 30
0.0
  9
$UCSXDIR
 10
1.0
 20
0.0
 30
0.0
  9
$UCSYDIR
 10
0.0
 20
1.0
 30
0.0
  9
$UCSORTHOREF
  2

  9
$UCSORTHOVIEW
 70
     0
  9
$UCSORGTOP
 10
0.0
 20
0.0
 30
0.0
  9
$UCSORGBOTTOM
 10
0.0
 20
0.0
 30
0.0
  9
$UCSORGLEFT
 10
0.0
 20
0.0
 30
0.0
  9
$UCSORGRIGHT
 10
0.0
 20
0.0
 30
0.0
  9
$UCSORGFRONT
 10
0.0
 20
0.0
 30
0.0
  9
$UCSORGBACK
 10
0.0
 20
0.0
 30
0.0
  9
$PUCSBASE
  2

  9
$PUCSNAME
  2

  9
$PUCSORG
 10
0.0
 20
0.0
 30
0.0
  9
$PUCSXDIR
 10
1.0
 20
0.0
 30
0.0
  9
$PUCSYDIR
 10
0.0
 20
1.0
 30
0.0
  9
$PUCSORTHOREF
  2

  9
$PUCSORTHOVIEW
 70
     0
  9
$PUCSORGTOP
 10
0.0
 20
0.0
 30
0.0
  9
$PUCSORGBOTTOM
 10
0.0
 20
0.0
 30
0.0
  9
$PUCSORGLEFT
 10
0.0
 20
0.0
 30
0.0
  9
$PUCSORGRIGHT
 10
0.0
 20
0.0
 30
0.0
  9
$PUCSORGFRONT
 10
0.0
 20
0.0
 30
0.0
  9
$PUCSORGBACK
 10
0.0
 20
0.0
 30
0.0
  9
$USERI1
 70
     0
  9
$USERI2
 70
     0
  9
$USERI3
 70
     0
  9
$USERI4
 70
     0
  9
$USERI5
 70
     0
  9
$USERR1
 40
0.0
  9
$USERR2
 40
0.0
  9
$USERR3
 40
0.0
  9
$USERR4
 40
0.0
  9
$USERR5
 40
0.0
  9
$WORLDVIEW
 70
     1
  9
$SHADEDGE
 70
     3
  9
$SHADEDIF
 70
    70
  9
$TILEMODE
 70
     1
  9
$MAXACTVP
 70
    64
  9
$PINSBASE
 10
0.0
 20
0.0
 30
0.0
  9
$PLIMCHECK
 70
     0
  9
$PEXTMIN
 10
1.000000000000000E+20
 20
1.000000000000000E+20
 30
1.000000000000000E+20
  9
$PEXTMAX
 10
-1.000000000000000E+20
 20
-1.000000000000000E+20
 30
-1.000000000000000E+20
  9
$PLIMMIN
 10
0.0
 20
0.0
  9
$PLIMMAX
 10
12.0
 20
9.0
  9
$UNITMODE
 70
     0
  9
$VISRETAIN
 70
     1
  9
$PLINEGEN
 70
     0
  9
$PSLTSCALE
 70
     1
  9
$TREEDEPTH
 70
  3020
  9
$CMLSTYLE
  2
Standard
  9
$CMLJUST
 70
     0
  9
$CMLSCALE
 40
1.0
  9
$PROXYGRAPHICS
 70
     1
  9
$MEASUREMENT
 70
     0
  9
$CELWEIGHT
370
    -1
  9
$ENDCAPS
280
     0
  9
$JOINSTYLE
280
     0
  9
$LWDISPLAY
290
     1
  9
$INSUNITS
 70
     4
  9
$HYPERLINKBASE
  1

  9
$STYLESHEET
  1

  9
$XEDIT
290
     1
  9
$CEPSNTYPE
380
     0
  9
$PSTYLEMODE
290
     1
  9
$FINGERPRINTGUID
  2
{898E503D-8A84-4C9A-8D41-9F7AAC7546D2}
  9
$VERSIONGUID
  2
{FAEB1C32-E019-11D5-929B-00C0DF256EC4}
  9
$EXTNAMES
290
     1
  9
$PSVPSCALE
 40
0.0
  9
$OLESTARTUP
290
     0
  9
$SORTENTS
280
   127
  9
$INDEXCTL
280
     0
  9
$HIDETEXT
280
     1
  9
$XCLIPFRAME
280
     2
  9
$HALOGAP
280
     0
  9
$OBSCOLOR
 70
   257
  9
$OBSLTYPE
280
     0
  9
$INTERSECTIONDISPLAY
280
     0
  9
$INTERSECTIONCOLOR
 70
   257
  9
$DIMASSOC
280
     2
  9
$PROJECTNAME
  1

  9
$CAMERADISPLAY
290
     0
  9
$LENSLENGTH
 40
50.0
  9
$CAMERAHEIGHT
 40
0.0
  9
$STEPSPERSEC
 40
2.0
  9
$STEPSIZE
 40
6.0
  9
$3DDWFPREC
 40
2.0
  9
$PSOLWIDTH
 40
0.25
  9
$PSOLHEIGHT
 40
4.0
  9
$LOFTANG1
 40
1.570796326794897
  9
$LOFTANG2
 40
1.570796326794897
  9
$LOFTMAG1
 40
0.0
  9
$LOFTMAG2
 40
0.0
  9
$LOFTPARAM
 70
     7
  9
$LOFTNORMALS
280
     1
  9
$LATITUDE
 40
37.795
  9
$LONGITUDE
 40
-122.394
  9
$NORTHDIRECTION
 40
0.0
  9
$TIMEZONE
 70
 -8000
  9
$LIGHTGLYPHDISPLAY
280
     1
  9
$TILEMODELIGHTSYNCH
280
     1
  9
$CMATERIAL
347
3C
  9
$SOLIDHIST
280
     1
  9
$SHOWHIST
280
     1
  9
$DWFFRAME
280
     2
  9
$DGNFRAME
280
     2
  9
$REALWORLDSCALE
290
     1
  9
$INTERFERECOLOR
 62
   256
  9
$CSHADOW
280
     0
  9
$SHADOWPLANELOCATION
 40
0.0
  0
ENDSEC
  0
SECTION
  2
CLASSES
  0
CLASS
  1
ACDBDICTIONARYWDFLT
  2
AcDbDictionaryWithDefault
  3
ObjectDBX Classes
 90
        0
 91
        4
280
     0
281
     0
  0
CLASS
  1
VISUALSTYLE
  2
AcDbVisualStyle
  3
ObjectDBX Classes
 90
     4095
 91
        4
280
     0
281
     0
  0
CLASS
  1
MATERIAL
  2
AcDbMaterial
  3
ObjectDBX Classes
 90
     1153
 91
        4
280
     0
281
     0
  0
CLASS
  1
SUN
  2
AcDbSun
  3
SCENEOE
 90
     1024
 91
        4
280
     0
281
     0
  0
ENDSEC
  0
SECTION
  2
TABLES
  0
TABLE
  2
VPORT
  5
8
330
0
100
AcDbSymbolTable
 70
     1
  0
VPORT
  5
29
330
8
100
AcDbSymbolTableRecord
100
AcDbViewportTableRecord
  2
*Active
 70
     0
 10
0.0
 20
0.0
 11
1.0
 21
1.0
 12
0.0
 22
0.0
 13
0.0
 23
0.0
 14
0.5
 24
0.5
 15
0.5
 25
0.5
 16
0.0
 26
0.0
 36
1.0
 17
146.4027777411771
 27
-105.0008280156501
 37
0.0
 40
210.0016560313003
 41
1.313666888951276
 42
50.0
 43
0.0
 44
0.0
 50
0.0
 51
0.0
 71
     0
 72
   100
 73
     1
 74
     3
 75
     0
 76
     0
 77
     0
 78
     0
281
     0
 65
     1
110
0.0
120
0.0
130
0.0
111
1.0
121
0.0
131
0.0
112
0.0
122
1.0
132
0.0
 79
     0
146
0.0
 60
     3
 61
     5
292
     1
282
     1
141
0.0
142
0.0
 63
   250
361
3F
  0
ENDTAB
  0
TABLE
  2
LTYPE
  5
5
330
0
100
AcDbSymbolTable
 70
     1
  0
LTYPE
  5
14
330
5
100
AcDbSymbolTableRecord
100
AcDbLinetypeTableRecord
  2
ByBlock
 70
     0
  3

 72
    65
 73
     0
 40
0.0
  0
LTYPE
  5
15
330
5
100
AcDbSymbolTableRecord
100
AcDbLinetypeTableRecord
  2
ByLayer
 70
     0
  3

 72
    65
 73
     0
 40
0.0
  0
LTYPE
  5
16
330
5
100
AcDbSymbolTableRecord
100
AcDbLinetypeTableRecord
  2
Continuous
 70
     0
  3
Solid line
 72
    65
 73
     0
 40
0.0
  0
ENDTAB
  0
TABLE
  2
LAYER
  5
2
330
0
100
AcDbSymbolTable
 70
     3
  0
LAYER
  5
10
330
2
100
AcDbSymbolTableRecord
100
AcDbLayerTableRecord
  2
0
 70
     0
 62
     7
  6
Continuous
370
    -3
390
F
347
3E
  0
LAYER
  5
40
330
2
100
AcDbSymbolTableRecord
100
AcDbLayerTableRecord
  2
_Camada_
 70
     0
 62
     7
  6
Continuous
370
    -3
390
F
347
3E
  0
LAYER
  5
48
330
2
100
AcDbSymbolTableRecord
100
AcDbLayerTableRecord
  2
_Camada__0
 70
     0
 62
     7
  6
Continuous
370
    -3
390
F
347
3E
  0
ENDTAB
  0
TABLE
  2
STYLE
  5
3
330
0
100
AcDbSymbolTable
 70
     1
  0
STYLE
  5
11
330
3
100
AcDbSymbolTableRecord
100
AcDbTextStyleTableRecord
  2
Standard
 70
     0
 40
0.0
 41
1.0
 50
0.0
 71
     0
 42
0.2
  3
txt
  4

  0
ENDTAB
  0
TABLE
  2
VIEW
  5
6
330
0
100
AcDbSymbolTable
 70
     0
  0
ENDTAB
  0
TABLE
  2
UCS
  5
7
330
0
100
AcDbSymbolTable
 70
     0
  0
ENDTAB
  0
TABLE
  2
APPID
  5
9
330
0
100
AcDbSymbolTable
 70
     1
  0
APPID
  5
12
330
9
100
AcDbSymbolTableRecord
100
AcDbRegAppTableRecord
  2
ACAD
 70
     0
  0
ENDTAB
  0
TABLE
  2
DIMSTYLE
  5
A
330
0
100
AcDbSymbolTable
 70
     1
100
AcDbDimStyleTable
  0
DIMSTYLE
105
27
330
A
100
AcDbSymbolTableRecord
100
AcDbDimStyleTableRecord
  2
Standard
 70
     0
178
     0
340
11
  0
ENDTAB
  0
TABLE
  2
BLOCK_RECORD
  5
1
330
0
100
AcDbSymbolTable
 70
     3
  0
BLOCK_RECORD
  5
1F
330
1
100
AcDbSymbolTableRecord
100
AcDbBlockTableRecord
  2
*Model_Space
340
22
 70
     0
280
     1
281
     0
  0
BLOCK_RECORD
  5
1B
330
1
100
AcDbSymbolTableRecord
100
AcDbBlockTableRecord
  2
*Paper_Space
340
1E
 70
     0
280
     1
281
     0
  0
BLOCK_RECORD
  5
23
330
1
100
AcDbSymbolTableRecord
100
AcDbBlockTableRecord
  2
*Paper_Space0
340
26
 70
     0
280
     1
281
     0
  0
BLOCK_RECORD
  5
49
330
1
100
AcDbSymbolTableRecord
100
AcDbBlockTableRecord
  2
block 2
340
0
102
{BLKREFS
331
4A
102
}
 70
     0
280
     1
281
     0
  0
BLOCK_RECORD
  5
55
330
1
100
AcDbSymbolTableRecord
100
AcDbBlockTableRecord
  2
block 3
340
0
102
{BLKREFS
331
56
102
}
 70
     0
280
     1
281
     0
  0
ENDTAB
  0
ENDSEC
  0
SECTION
  2
BLOCKS
  0
BLOCK
  5
20
330
1F
100
AcDbEntity
  8
0
100
AcDbBlockBegin
  2
*Model_Space
 70
     0
 10
0.0
 20
0.0
 30
0.0
  3
*Model_Space
  1

  0
ENDBLK
  5
21
330
1F
100
AcDbEntity
  8
0
100
AcDbBlockEnd
  0
BLOCK
  5
1C
330
1B
100
AcDbEntity
 67
     1
  8
0
100
AcDbBlockBegin
  2
*Paper_Space
 70
     0
 10
0.0
 20
0.0
 30
0.0
  3
*Paper_Space
  1

  0
ENDBLK
  5
1D
330
1B
100
AcDbEntity
 67
     1
  8
0
100
AcDbBlockEnd
  0
BLOCK
  5
24
330
23
100
AcDbEntity
  8
0
100
AcDbBlockBegin
  2
*Paper_Space0
 70
     0
 10
0.0
 20
0.0
 30
0.0
  3
*Paper_Space0
  1

  0
ENDBLK
  5
25
330
23
100
AcDbEntity
  8
0
100
AcDbBlockEnd
  0
BLOCK
  5
4B
330
49
100
AcDbEntity
  8
0
100
AcDbBlockBegin
  2
block 2
 70
     0
 10
0.0
 20
0.0
 30
0.0
  3
block 2
  1

  0
SPLINE
  5
4D
330
49
100
AcDbEntity
  8
_Camada__0
370
     0
100
AcDbSpline
210
0.0
220
0.0
230
1.0
 70
    11
 71
     3
 72
    11
 73
     7
 74
     0
 42
0.0000000001
 43
0.0000000001
 12
1.0
 22
0.0
 32
0.0
 13
1.0
 23
0.0
 33
0.0
 40
0.0
 40
0.0
 40
0.0
 40
0.0
 40
1.0
 40
1.0
 40
1.0
 40
2.0
 40
2.0
 40
2.0
 40
2.0
 10
202.0200590127056
 20
-156.0132205165525
 30
0.0
 10
202.1272027272462
 20
-156.0287074609926
 30
0.0
 10
202.0544901229383
 20
-156.0180535721067
 30
0.0
 10
202.0200590127056
 20
-156.0132205165525
 30
0.0
 10
202.0200590127056
 20
-156.0132205165525
 30
0.0
 10
202.0200590127056
 20
-156.0132205165525
 30
0.0
 10
202.0200590127056
 20
-156.0132205165525
 30
0.0
  0
HATCH
  5
4E
330
49
100
AcDbEntity
  8
_Camada__0
 62
   250
420
  1842203
100
AcDbHatch
 10
0.0
 20
0.0
 30
0.0
210
0.0
220
0.0
230
1.0
  2
SOLID
 70
     1
 71
     0
 91
        1
 92
        1
 93
        1
 72
     4
 94
        3
 73
     0
 74
     1
 95
       11
 96
        7
 40
0.0
 40
0.0
 40
0.0
 40
0.0
 40
1.0
 40
1.0
 40
1.0
 40
2.0
 40
2.0
 40
2.0
 40
2.0
 10
202.0200590127056
 20
-156.0132205165525
 10
202.1272027272462
 20
-156.0287074609926
 10
202.0544901229383
 20
-156.0180535721067
 10
202.0200590127056
 20
-156.0132205165525
 10
202.0200590127056
 20
-156.0132205165525
 10
202.0200590127056
 20
-156.0132205165525
 10
202.0200590127056
 20
-156.0132205165525
 97
        0
 97
        0
 75
     2
 76
     1
 98
        0
  0
SPLINE
  5
4F
330
49
100
AcDbEntity
  8
_Camada__0
370
     0
100
AcDbSpline
210
0.0
220
0.0
230
1.0
 70
    11
 71
     3
 72
    11
 73
     7
 74
     0
 42
0.0000000001
 43
0.0000000001
 12
1.0
 22
0.0
 32
0.0
 13
1.0
 23
0.0
 33
0.0
 40
0.0
 40
0.0
 40
0.0
 40
0.0
 40
1.0
 40
1.0
 40
1.0
 40
2.0
 40
2.0
 40
2.0
 40
2.0
 10
201.8126609624412
 20
-155.9488032943463
 30
0.0
 10
201.8388370728845
 20
-155.9994269054448
 30
0.0
 10
201.8836398495193
 20
-155.9866916276698
 30
0.0
 10
201.8126609624412
 20
-155.9488032943463
 30
0.0
 10
201.8126609624412
 20
-155.9488032943463
 30
0.0
 10
201.8126609624412
 20
-155.9488032943463
 30
0.0
 10
201.8126609624412
 20
-155.9488032943463
 30
0.0
  0
HATCH
  5
50
330
49
100
AcDbEntity
  8
_Camada__0
 62
   250
420
  1842203
100
AcDbHatch
 10
0.0
 20
0.0
 30
0.0
210
0.0
220
0.0
230
1.0
  2
SOLID
 70
     1
 71
     0
 91
        1
 92
        1
 93
        1
 72
     4
 94
        3
 73
     0
 74
     1
 95
       11
 96
        7
 40
0.0
 40
0.0
 40
0.0
 40
0.0
 40
1.0
 40
1.0
 40
1.0
 40
2.0
 40
2.0
 40
2.0
 40
2.0
 10
201.8126609624412
 20
-155.9488032943463
 10
201.8388370728845
 20
-155.9994269054448
 10
201.8836398495193
 20
-155.9866916276698
 10
201.8126609624412
 20
-155.9488032943463
 10
201.8126609624412
 20
-155.9488032943463
 10
201.8126609624412
 20
-155.9488032943463
 10
201.8126609624412
 20
-155.9488032943463
 97
        0
 97
        0
 75
     2
 76
     1
 98
        0
  0
SPLINE
  5
51
330
49
100
AcDbEntity
  8
_Camada__0
370
     0
100
AcDbSpline
210
0.0
220
0.0
230
1.0
 70
    11
 71
     3
 72
    11
 73
     7
 74
     0
 42
0.0000000001
 43
0.0000000001
 12
1.0
 22
0.0
 32
0.0
 13
1.0
 23
0.0
 33
0.0
 40
0.0
 40
0.0
 40
0.0
 40
0.0
 40
1.0
 40
1.0
 40
1.0
 40
2.0
 40
2.0
 40
2.0
 40
2.0
 10
176.6834582891622
 20
-58.49704665204245
 30
0.0
 10
176.6823999558295
 20
-58.51323915203842
 30
0.0
 10
176.6810196591583
 20
-58.5294316520344
 30
0.0
 10
176.6796438258601
 20
-58.54562415203038
 30
0.0
 10
176.6173079941171
 20
-59.39878192959472
 30
0.0
 10
176.5029021637025
 20
-60.96853720698009
 30
0.0
 10
176.6834582891622
 20
-58.49704665204245
 30
0.0
  0
HATCH
  5
52
330
49
100
AcDbEntity
  8
_Camada__0
 62
   250
420
  1842203
100
AcDbHatch
 10
0.0
 20
0.0
 30
0.0
210
0.0
220
0.0
230
1.0
  2
SOLID
 70
     1
 71
     0
 91
        1
 92
        1
 93
        1
 72
     4
 94
        3
 73
     0
 74
     1
 95
       11
 96
        7
 40
0.0
 40
0.0
 40
0.0
 40
0.0
 40
1.0
 40
1.0
 40
1.0
 40
2.0
 40
2.0
 40
2.0
 40
2.0
 10
176.6834582891622
 20
-58.49704665204245
 10
176.6823999558295
 20
-58.51323915203842
 10
176.6810196591583
 20
-58.5294316520344
 10
176.6796438258601
 20
-58.54562415203038
 10
176.6173079941171
 20
-59.39878192959472
 10
176.5029021637025
 20
-60.96853720698009
 10
176.6834582891622
 20
-58.49704665204245
 97
        0
 97
        0
 75
     2
 76
     1
 98
        0
  0
SPLINE
  5
53
330
49
100
AcDbEntity
  8
_Camada__0
370
     0
100
AcDbSpline
210
0.0
220
0.0
230
1.0
 70
    11
 71
     3
 72
    11
 73
     7
 74
     0
 42
0.0000000001
 43
0.0000000001
 12
1.0
 22
0.0
 32
0.0
 13
1.0
 23
0.0
 33
0.0
 40
0.0
 40
0.0
 40
0.0
 40
0.0
 40
1.0
 40
1.0
 40
1.0
 40
2.0
 40
2.0
 40
2.0
 40
2.0
 10
176.6854999368218
 20
-58.46483804093937
 30
0.0
 10
176.6848296590611
 20
-58.47549192982565
 30
0.0
 10
176.6844768812923
 20
-58.48618109648945
 30
0.0
 10
176.6834582891622
 20
-58.49704665204245
 30
0.0
 10
176.727868546852
 20
-57.88416581886241
 30
0.0
 10
176.7144629916384
 20
-58.06761026326083
 30
0.0
 10
176.6854999368218
 20
-58.46483804093937
 30
0.0
  0
HATCH
  5
54
330
49
100
AcDbEntity
  8
_Camada__0
 62
   250
420
  1842203
100
AcDbHatch
 10
0.0
 20
0.0
 30
0.0
210
0.0
220
0.0
230
1.0
  2
SOLID
 70
     1
 71
     0
 91
        1
 92
        1
 93
        1
 72
     4
 94
        3
 73
     0
 74
     1
 95
       11
 96
        7
 40
0.0
 40
0.0
 40
0.0
 40
0.0
 40
1.0
 40
1.0
 40
1.0
 40
2.0
 40
2.0
 40
2.0
 40
2.0
 10
176.6854999368218
 20
-58.46483804093937
 10
176.6848296590611
 20
-58.47549192982565
 10
176.6844768812923
 20
-58.48618109648945
 10
176.6834582891622
 20
-58.49704665204245
 10
176.727868546852
 20
-57.88416581886241
 10
176.7144629916384
 20
-58.06761026326083
 10
176.6854999368218
 20
-58.46483804093937
 97
        0
 97
        0
 75
     2
 76
     1
 98
        0
  0
ENDBLK
  5
4C
330
49
100
AcDbEntity
  8
0
100
AcDbBlockEnd
  0
BLOCK
  5
57
330
55
100
AcDbEntity
  8
0
100
AcDbBlockBegin
  2
block 3
 70
     0
 10
0.0
 20
0.0
 30
0.0
  3
block 3
  1

  0
SPLINE
  5
59
330
55
100
AcDbEntity
  8
_Camada__0
370
     0
100
AcDbSpline
210
0.0
220
0.0
230
1.0
 70
    11
 71
     3
 72
   455
 73
   451
 74
     0
 42
0.0000000001
 43
0.0000000001
 12
1.0
 22
0.0
 32
0.0
 13
1.0
 23
0.0
 33
0.0
 40
0.0
 40
0.0
 40
0.0
 40
0.0
 40
1.0
 40
1.0
 40
1.0
 40
2.0
 40
2.0
 40
2.0
 40
3.0
 40
3.0
 40
3.0
 40
4.0
 40
4.0
 40
4.0
 40
5.0
 40
5.0
 40
5.0
 40
6.0
 40
6.0
 40
6.0
 40
7.0
 40
7.0
 40
7.0
 40
8.0
 40
8.0
 40
8.0
 40
9.0
 40
9.0
 40
9.0
 40
10.0
 40
10.0
 40
10.0
 40
11.0
 40
11.0
 40
11.0
 40
12.0
 40
12.0
 40
12.0
 40
13.0
 40
13.0
 40
13.0
 40
14.0
 40
14.0
 40
14.0
 40
15.0
 40
15.0
 40
15.0
 40
16.0
 40
16.0
 40
16.0
 40
17.0
 40
17.0
 40
17.0
 40
18.0
 40
18.0
 40
18.0
 40
19.0
 40
19.0
 40
19.0
 40
20.0
 40
20.0
 40
20.0
 40
21.0
 40
21.0
 40
21.0
 40
22.0
 40
22.0
 40
22.0
 40
23.0
 40
23.0
 40
23.0
 40
24.0
 40
24.0
 40
24.0
 40
25.0
 40
25.0
 40
25.0
 40
26.0
 40
26.0
 40
26.0
 40
27.0
 40
27.0
 40
27.0
 40
28.0
 40
28.0
 40
28.0
 40
29.0
 40
29.0
 40
29.0
 40
30.0
 40
30.0
 40
30.0
 40
31.0
 40
31.0
 40
31.0
 40
32.0
 40
32.0
 40
32.0
 40
33.0
 40
33.0
 40
33.0
 40
34.0
 40
34.0
 40
34.0
 40
35.0
 40
35.0
 40
35.0
 40
36.0
 40
36.0
 40
36.0
 40
37.0
 40
37.0
 40
37.0
 40
38.0
 40
38.0
 40
38.0
 40
39.0
 40
39.0
 40
39.0
 40
40.0
 40
40.0
 40
40.0
 40
41.0
 40
41.0
 40
41.0
 40
42.0
 40
42.0
 40
42.0
 40
43.0
 40
43.0
 40
43.0
 40
44.0
 40
44.0
 40
44.0
 40
45.0
 40
45.0
 40
45.0
 40
46.0
 40
46.0
 40
46.0
 40
47.0
 40
47.0
 40
47.0
 40
48.0
 40
48.0
 40
48.0
 40
49.0
 40
49.0
 40
49.0
 40
50.0
 40
50.0
 40
50.0
 40
51.0
 40
51.0
 40
51.0
 40
52.0
 40
52.0
 40
52.0
 40
53.0
 40
53.0
 40
53.0
 40
54.0
 40
54.0
 40
54.0
 40
55.0
 40
55.0
 40
55.0
 40
56.0
 40
56.0
 40
56.0
 40
57.0
 40
57.0
 40
57.0
 40
58.0
 40
58.0
 40
58.0
 40
59.0
 40
59.0
 40
59.0
 40
60.0
 40
60.0
 40
60.0
 40
61.0
 40
61.0
 40
61.0
 40
62.0
 40
62.0
 40
62.0
 40
63.0
 40
63.0
 40
63.0
 40
64.0
 40
64.0
 40
64.0
 40
65.0
 40
65.0
 40
65.0
 40
66.0
 40
66.0
 40
66.0
 40
67.0
 40
67.0
 40
67.0
 40
68.0
 40
68.0
 40
68.0
 40
69.0
 40
69.0
 40
69.0
 40
70.0
 40
70.0
 40
70.0
 40
71.0
 40
71.0
 40
71.0
 40
72.0
 40
72.0
 40
72.0
 40
73.0
 40
73.0
 40
73.0
 40
74.0
 40
74.0
 40
74.0
 40
75.0
 40
75.0
 40
75.0
 40
76.0
 40
76.0
 40
76.0
 40
77.0
 40
77.0
 40
77.0
 40
78.0
 40
78.0
 40
78.0
 40
79.0
 40
79.0
 40
79.0
 40
80.0
 40
80.0
 40
80.0
 40
81.0
 40
81.0
 40
81.0
 40
82.0
 40
82.0
 40
82.0
 40
83.0
 40
83.0
 40
83.0
 40
84.0
 40
84.0
 40
84.0
 40
85.0
 40
85.0
 40
85.0
 40
86.0
 40
86.0
 40
86.0
 40
87.0
 40
87.0
 40
87.0
 40
88.0
 40
88.0
 40
88.0
 40
89.0
 40
89.0
 40
89.0
 40
90.0
 40
90.0
 40
90.0
 40
91.0
 40
91.0
 40
91.0
 40
92.0
 40
92.0
 40
92.0
 40
93.0
 40
93.0
 40
93.0
 40
94.0
 40
94.0
 40
94.0
 40
95.0
 40
95.0
 40
95.0
 40
96.0
 40
96.0
 40
96.0
 40
97.0
 40
97.0
 40
97.0
 40
98.0
 40
98.0
 40
98.0
 40
99.0
 40
99.0
 40
99.0
 40
100.0
 40
100.0
 40
100.0
 40
101.0
 40
101.0
 40
101.0
 40
102.0
 40
102.0
 40
102.0
 40
103.0
 40
103.0
 40
103.0
 40
104.0
 40
104.0
 40
104.0
 40
105.0
 40
105.0
 40
105.0
 40
106.0
 40
106.0
 40
106.0
 40
107.0
 40
107.0
 40
107.0
 40
108.0
 40
108.0
 40
108.0
 40
109.0
 40
109.0
 40
109.0
 40
110.0
 40
110.0
 40
110.0
 40
111.0
 40
111.0
 40
111.0
 40
112.0
 40
112.0
 40
112.0
 40
113.0
 40
113.0
 40
113.0
 40
114.0
 40
114.0
 40
114.0
 40
115.0
 40
115.0
 40
115.0
 40
116.0
 40
116.0
 40
116.0
 40
117.0
 40
117.0
 40
117.0
 40
118.0
 40
118.0
 40
118.0
 40
119.0
 40
119.0
 40
119.0
 40
120.0
 40
120.0
 40
120.0
 40
121.0
 40
121.0
 40
121.0
 40
122.0
 40
122.0
 40
122.0
 40
123.0
 40
123.0
 40
123.0
 40
124.0
 40
124.0
 40
124.0
 40
125.0
 40
125.0
 40
125.0
 40
126.0
 40
126.0
 40
126.0
 40
127.0
 40
127.0
 40
127.0
 40
128.0
 40
128.0
 40
128.0
 40
129.0
 40
129.0
 40
129.0
 40
130.0
 40
130.0
 40
130.0
 40
131.0
 40
131.0
 40
131.0
 40
132.0
 40
132.0
 40
132.0
 40
133.0
 40
133.0
 40
133.0
 40
134.0
 40
134.0
 40
134.0
 40
135.0
 40
135.0
 40
135.0
 40
136.0
 40
136.0
 40
136.0
 40
137.0
 40
137.0
 40
137.0
 40
138.0
 40
138.0
 40
138.0
 40
139.0
 40
139.0
 40
139.0
 40
140.0
 40
140.0
 40
140.0
 40
141.0
 40
141.0
 40
141.0
 40
142.0
 40
142.0
 40
142.0
 40
143.0
 40
143.0
 40
143.0
 40
144.0
 40
144.0
 40
144.0
 40
145.0
 40
145.0
 40
145.0
 40
146.0
 40
146.0
 40
146.0
 40
147.0
 40
147.0
 40
147.0
 40
148.0
 40
148.0
 40
148.0
 40
149.0
 40
149.0
 40
149.0
 40
150.0
 40
150.0
 40
150.0
 40
150.0
 10
195.65005835957
 20
-98.7888196975249
 30
0.0
 10
192.4420031636366
 20
-90.76862858841906
 30
0.0
 10
185.9821130506643
 20
-88.59340081118502
 30
0.0
 10
181.9096464878949
 20
-88.04973497798748
 30
0.0
 10
181.8166189902683
 20
-87.98358914467069
 30
0.0
 10
179.6927204333423
 20
-87.6749085891923
 30
0.0
 10
178.8149416219631
 20
-87.35867858927149
 30
0.0
 10
178.3494838009445
 20
-87.19156775597976
 30
0.0
 10
177.8289277333207
 20
-86.73888331164855
 30
0.0
 10
177.3104474385636
 20
-86.76057914497638
 30
0.0
 10
176.1453283016216
 20
-87.56709970033047
 30
0.0
 10
174.5464336201906
 20
-88.73049025559527
 30
0.0
 10
172.423593396571
 20
-90.47681081071401
 30
0.0
 10
173.1594525444643
 20
-90.28493497742876
 30
0.0
 10
173.8987689144917
 20
-90.10544164414044
 30
0.0
 10
174.643588617712
 20
-89.94351664418066
 30
0.0
 10
176.075372470073
 20
-89.64344386647798
 30
0.0
 10
177.5274763219156
 20
-89.39918053320575
 30
0.0
 10
178.9988771177104
 20
-89.32788414433486
 30
0.0
 10
179.7337132100743
 20
-89.2906660887884
 30
0.0
 10
180.4733823578704
 20
-89.30135525545252
 30
0.0
 10
181.2061723391754
 20
-89.38298803320977
 30
0.0
 10
181.9358225983382
 20
-89.47809692207507
 30
0.0
 10
182.6675895241138
 20
-89.62760414425976
 30
0.0
 10
183.3338456182273
 20
-89.93353303307207
 30
0.0
 10
182.6296659139702
 20
-89.73855275534329
 30
0.0
 10
181.9099992656637
 20
-89.64414942203351
 30
0.0
 10
181.1882512285215
 20
-89.63483608870227
 30
0.0
 10
180.4675262469087
 20
-89.61451608870765
 30
0.0
 10
179.746483765304
 20
-89.65790775536331
 30
0.0
 10
179.0285104502877
 20
-89.72853386645686
 30
0.0
 10
177.5933046535696
 20
-89.87909942197483
 30
0.0
 10
176.1680499559579
 20
-90.14057831079816
 30
0.0
 10
174.7510800038585
 20
-90.44685997738823
 30
0.0
 10
173.697226975189
 20
-90.66836914399966
 30
0.0
 10
172.6478542241829
 20
-90.9184885883815
 30
0.0
 10
171.596402734879
 20
-91.16687942165272
 30
0.0
 10
164.041487777083
 20
-97.55684914227744
 30
0.0
 10
153.8295238709452
 20
-108.6641633061674
 30
0.0
 10
157.7578101596152
 20
-119.576179692328
 30
0.0
 10
157.8647723791086
 20
-119.4411010812511
 30
0.0
 10
157.9693357097743
 20
-119.3040116368408
 30
0.0
 10
158.0768270959208
 20
-119.1696385813188
 30
0.0
 10
159.1396406799173
 20
-117.8308821927644
 30
0.0
 10
160.2325814853674
 20
-116.5183019153148
 30
0.0
 10
161.345033292997
 20
-115.2232899711944
 30
0.0
 10
161.345033292997
 20
-115.2232899711944
 30
0.0
 10
163.0184675254046
 20
-113.2885155272332
 30
0.0
 10
163.0184675254046
 20
-113.2885155272332
 30
0.0
 10
163.0184675254046
 20
-113.2885155272332
 30
0.0
 10
163.4019016822891
 20
-112.8475433051212
 30
0.0
 10
163.4019016822891
 20
-112.8475433051212
 30
0.0
 10
163.3533241835284
 20
-112.8117363606862
 30
0.0
 10
163.3013247404106
 20
-112.7786458051387
 30
0.0
 10
163.2547933527088
 20
-112.7414277495925
 30
0.0
 10
163.0248528030195
 20
-112.5571366385276
 30
0.0
 10
162.8150205861506
 20
-112.3573233052443
 30
0.0
 10
162.6222980910673
 20
-112.1454449719634
 30
0.0
 10
162.2367825453471
 20
-111.7216883054028
 30
0.0
 10
161.9198469978772
 20
-111.2531641388537
 30
0.0
 10
161.6583328378823
 20
-110.7646374723086
 30
0.0
 10
161.1371036845133
 20
-109.7845149725536
 30
0.0
 10
160.8348084144477
 20
-108.7292860839291
 30
0.0
 10
160.664452029905
 20
-107.6719758064154
 30
0.0
 10
161.0003317435582
 20
-108.6886460839391
 30
0.0
 10
161.464199231724
 20
-109.6615366392513
 30
0.0
 10
162.0924258823632
 20
-110.4876716390448
 30
0.0
 10
162.4064333743522
 20
-110.8993633056083
 30
0.0
 10
162.7611161430813
 20
-111.2727785832931
 30
0.0
 10
163.152840577532
 20
-111.5842460832148
 30
0.0
 10
163.3483500169886
 20
-111.7396094165098
 30
0.0
 10
163.5533139006484
 20
-111.8794858053633
 30
0.0
 10
163.7641691730469
 20
-111.9979838608892
 30
0.0
 10
163.8263286159055
 20
-112.033120527547
 30
0.0
 10
163.8895463920704
 20
-112.0613780275403
 30
0.0
 10
163.9524466682435
 20
-112.0923871941993
 30
0.0
 10
164.1004016644688
 20
-111.836764416485
 30
0.0
 10
164.2383730498378
 20
-111.5614919165543
 30
0.0
 10
164.370488324245
 20
-111.2851963610679
 30
0.0
 10
165.0812296950014
 20
-109.7710741392237
 30
0.0
 10
165.6570688469772
 20
-108.1649827507363
 30
0.0
 10
166.2430679986938
 20
-106.5719794178017
 30
0.0
 10
166.8132274285922
 20
-104.9706858070906
 30
0.0
 10
167.3720274143361
 20
-103.3618074741595
 30
0.0
 10
167.9060271229348
 20
-101.7436510856751
 30
0.0
 10
167.5325765769068
 20
-103.4066102519262
 30
0.0
 10
167.1291777359956
 20
-105.0637133070674
 30
0.0
 10
166.6754324321077
 20
-106.7087160844341
 30
0.0
 10
166.2246555139994
 20
-108.3568585840219
 30
0.0
 10
165.7388805141207
 20
-109.9905371947246
 30
0.0
 10
165.1118860831082
 20
-111.6079880276535
 30
0.0
 10
164.9492908094786
 20
-112.0124477497749
 30
0.0
 10
164.780627758226
 20
-112.4138030274521
 30
0.0
 10
164.5536152640175
 20
-112.8199913606841
 30
0.0
 10
164.4962535988143
 20
-112.9219794162142
 30
0.0
 10
164.4330358226493
 20
-113.0235794161883
 30
0.0
 10
164.3585997134372
 20
-113.1272960828296
 30
0.0
 10
164.3585997134372
 20
-113.1272960828296
 30
0.0
 10
164.1531066631242
 20
-113.3960069160954
 30
0.0
 10
164.1531066631242
 20
-113.3960069160954
 30
0.0
 10
164.1531066631242
 20
-113.3960069160954
 30
0.0
 10
163.7584894509695
 20
-113.9003733048584
 30
0.0
 10
163.7584894509695
 20
-113.9003733048584
 30
0.0
 10
163.7584894509695
 20
-113.9003733048584
 30
0.0
 10
162.1919797687123
 20
-115.9119474710217
 30
0.0
 10
162.1919797687123
 20
-115.9119474710217
 30
0.0
 10
161.1577764617637
 20
-117.2589941373517
 30
0.0
 10
160.1349325989697
 20
-118.6132727481245
 30
0.0
 10
159.1238009580992
 20
-119.9740777477845
 30
0.0
 10
158.1160912615858
 20
-121.3376344141097
 30
0.0
 10
157.1297598978603
 20
-122.7149846915432
 30
0.0
 10
156.1765190888462
 20
-124.1116319134165
 30
0.0
 10
155.2170693911015
 20
-125.5037988575128
 30
0.0
 10
154.2825610816095
 20
-126.9104296904947
 30
0.0
 10
153.4087305483472
 20
-128.3463410790244
 30
0.0
 10
152.5348647373081
 20
-129.7808766342212
 30
0.0
 10
151.7197717025473
 20
-131.2485027449655
 30
0.0
 10
151.0314317201083
 20
-132.7436808001476
 30
0.0
 10
150.6895195066089
 20
-133.4905466332941
 30
0.0
 10
150.3837670144094
 20
-134.2488424664377
 30
0.0
 10
150.1627517422702
 20
-135.0050216329153
 30
0.0
 10
149.9438178589667
 20
-135.7540041327283
 30
0.0
 10
149.8094448068393
 20
-136.5318791325338
 30
0.0
 10
149.9002498045227
 20
-137.145465521269
 30
0.0
 10
149.9002498045227
 20
-137.145465521269
 30
0.0
 10
150.0723348001324
 20
-138.3109374654223
 30
0.0
 10
150.0723348001324
 20
-138.3109374654223
 30
0.0
 10
150.0723348001324
 20
-138.3109374654223
 30
0.0
 10
148.898396218971
 20
-138.1493652432403
 30
0.0
 10
148.898396218971
 20
-138.1493652432403
 30
0.0
 10
144.861595488625
 20
-137.594692743379
 30
0.0
 10
140.8014055922091
 20
-137.3480305212187
 30
0.0
 10
136.838829304414
 20
-138.0656510765949
 30
0.0
 10
135.8397626632356
 20
-138.2285991321098
 30
0.0
 10
134.8374151888076
 20
-138.4625260764957
 30
0.0
 10
133.7430985500593
 20
-138.5889616320193
 30
0.0
 10
133.1973866195371
 20
-138.6509799653375
 30
0.0
 10
132.6275446896306
 20
-138.681283576441
 30
0.0
 10
132.0529049820686
 20
-138.6471699653384
 30
0.0
 10
131.4787944411598
 20
-138.6147849653465
 30
0.0
 10
130.9051777891274
 20
-138.5176299653706
 30
0.0
 10
130.3580916340772
 20
-138.3681227431856
 30
0.0
 10
129.8068747615918
 20
-138.221367187667
 30
0.0
 10
129.2859999676784
 20
-138.0125932988302
 30
0.0
 10
128.8062558982309
 20
-137.8162371877683
 30
0.0
 10
128.3186111884495
 20
-137.6170941322623
 30
0.0
 10
127.8378471902628
 20
-137.4096960767585
 30
0.0
 10
127.360854823995
 20
-137.1985232990337
 30
0.0
 10
126.408143181634
 20
-136.7740963546952
 30
0.0
 10
125.4671084834196
 20
-136.342754965914
 30
0.0
 10
124.5355635071853
 20
-135.9035113549133
 30
0.0
 10
122.6715916102947
 20
-135.0398055217959
 30
0.0
 10
120.8094894355787
 20
-134.1647755220145
 30
0.0
 10
118.9017730953597
 20
-133.6200866332619
 30
0.0
 10
117.9571400639038
 20
-133.3637935777702
 30
0.0
 10
116.9745834223042
 20
-133.1694835778191
 30
0.0
 10
116.1157471931933
 20
-133.3269283000018
 30
0.0
 10
115.9040440051715
 20
-133.3679210777694
 30
0.0
 10
115.7050773435809
 20
-133.432338299975
 30
0.0
 10
115.5230087371147
 20
-133.5215557999531
 30
0.0
 10
115.3168101312642
 20
-133.6252724665938
 30
0.0
 10
115.1020037478555
 20
-133.7520255221177
 30
0.0
 10
114.8934062531772
 20
-133.8826238554182
 30
0.0
 10
114.4741651527618
 20
-134.1461488553521
 30
0.0
 10
114.0626146077058
 20
-134.4389896886126
 30
0.0
 10
113.6598835068692
 20
-134.7445657996474
 30
0.0
 10
112.0506888608761
 20
-135.9755132993394
 30
0.0
 10
110.5348369199291
 20
-137.3711021878795
 30
0.0
 10
109.2057466760593
 20
-138.9189852430478
 30
0.0
 10
108.542030581881
 20
-139.6924152428544
 30
0.0
 10
107.9212475421629
 20
-140.5099424648722
 30
0.0
 10
107.4389297766901
 20
-141.4049749646489
 30
0.0
 10
107.2003471954221
 20
-141.8525088534257
 30
0.0
 10
106.9903728436893
 20
-142.3193044088649
 30
0.0
 10
106.8763197910435
 20
-142.8140046865189
 30
0.0
 10
106.763325071704
 20
-143.3032369086189
 30
0.0
 10
106.7490375720685
 20
-143.8389299640405
 30
0.0
 10
106.972275344151
 20
-144.3116169083665
 30
0.0
 10
106.7032117399043
 20
-143.8630599640346
 30
0.0
 10
106.6603139632209
 20
-143.3059885752846
 30
0.0
 10
106.7293888622065
 20
-142.787828575414
 30
0.0
 10
106.7991672930118
 20
-142.2645180199895
 30
0.0
 10
106.9658900665361
 20
-141.7591285756714
 30
0.0
 10
107.1726178390398
 20
-141.2764932980144
 30
0.0
 10
107.5963744948956
 20
-140.3132335760331
 30
0.0
 10
108.1653344803802
 20
-139.4264560762543
 30
0.0
 10
108.7802614091365
 20
-138.5813769097994
 30
0.0
 10
109.4003741710939
 20
-137.7380263544545
 30
0.0
 10
110.0820113759261
 20
-136.9442763546529
 30
0.0
 10
110.796351079924
 20
-136.1804771881771
 30
0.0
 10
111.5142891171635
 20
-135.4201705217008
 30
0.0
 10
112.2620368758646
 20
-134.6856519107728
 30
0.0
 10
113.0685574108441
 20
-134.0076835776089
 30
0.0
 10
113.2545771283206
 20
-133.8509091332042
 30
0.0
 10
113.4435601790548
 20
-133.6972744110199
 30
0.0
 10
113.6357887852617
 20
-133.5456857999471
 30
0.0
 10
104.3524417998774
 20
-112.0190094164397
 30
0.0
 10
125.4230112623224
 20
-107.4590744175794
 30
0.0
 10
131.2485027449655
 20
-104.2044877517268
 30
0.0
 10
135.599803224913
 20
-101.7774119190002
 30
0.0
 10
138.8959117519334
 20
-96.788252198025
 30
0.0
 10
140.582965597782
 20
-93.87437830986465
 30
0.0
 10
138.8404550866815
 20
-94.43868164305708
 30
0.0
 10
137.0787887427365
 20
-94.91168608738326
 30
0.0
 10
135.3310923984351
 20
-95.41880414281204
 30
0.0
 10
133.2740452286925
 20
-96.0141166426632
 30
0.0
 10
131.2290277808652
 20
-96.65179775361493
 30
0.0
 10
129.2572117200594
 20
-97.48276580896263
 30
0.0
 10
127.2873359369817
 20
-98.31098219764455
 30
0.0
 10
125.3923548742156
 20
-99.3438096973864
 30
0.0
 10
123.697539917454
 20
-100.6618933081678
 30
0.0
 10
125.3518559863599
 20
-99.29350358628783
 30
0.0
 10
127.2239417719324
 20
-98.19830497545038
 30
0.0
 10
129.1795300553745
 20
-97.30602414234006
 30
0.0
 10
129.2717108863561
 20
-97.26400830901727
 30
0.0
 10
129.3648794950903
 20
-97.22403858680505
 30
0.0
 10
129.4575542149482
 20
-97.18269303125994
 30
0.0
 10
122.8050827180002
 20
-98.25344414210346
 30
0.0
 10
120.4536425002127
 20
-97.52411136450773
 30
0.0
 10
113.7337916382334
 20
-107.9400163619039
 30
0.0
 10
110.7594858030868
 20
-112.561616916304
 30
0.0
 10
110.2980172037487
 20
-117.3695899706574
 30
0.0
 10
108.7209947439819
 20
-121.571914136274
 30
0.0
 10
107.1438311731076
 20
-125.7738855241122
 30
0.0
 10
92.23985303249569
 20
-138.5531194098061
 30
0.0
 10
94.27347580976489
 20
-151.7227019065135
 30
0.0
 10
93.25133747668714
 20
-153.9303146837398
 30
0.0
 10
92.62053553240048
 20
-156.7470335719243
 30
0.0
 10
94.25177997643705
 20
-159.4221474601446
 30
0.0
 10
94.55615664302758
 20
-161.3035113485633
 30
0.0
 10
95.17076608731858
 20
-163.3588652369382
 30
0.0
 10
96.39963219812218
 20
-163.6468730146439
 30
0.0
 10
97.85674553109124
 20
-163.9951705145571
 30
0.0
 10
99.90673719724562
 20
-163.6254946813156
 30
0.0
 10
102.1034835239198
 20
-163.0274305147987
 30
0.0
 10
105.1648194181531
 20
-163.7178166257373
 30
0.0
 10
108.9656108488523
 20
-164.1801671811769
 30
0.0
 10
111.9399507729706
 20
-163.4404980146952
 30
0.0
 10
114.2345584922081
 20
-162.864129681506
 30
0.0
 10
120.4250322231648
 20
-160.6530596820591
 30
0.0
 10
120.4265844453474
 20
-160.7133494042659
 30
0.0
 10
122.5642766130326
 20
-159.8758549600309
 30
0.0
 10
124.6911032254394
 20
-159.0094327380253
 30
0.0
 10
126.7976098383646
 20
-158.0971494049203
 30
0.0
 10
128.0688445281549
 20
-157.5449110717252
 30
0.0
 10
129.3326708848009
 20
-156.9754219052005
 30
0.0
 10
130.5849614084078
 20
-156.3825435720155
 30
0.0
 10
129.1740267221816
 20
-155.6655932944167
 30
0.0
 10
127.7889153686298
 20
-154.8990777390533
 30
0.0
 10
126.4370709586738
 20
-154.0798219059242
 30
0.0
 10
122.5403230025326
 20
-151.7282052398457
 30
0.0
 10
118.8840283735902
 20
-149.0007391294162
 30
0.0
 10
115.4680471933551
 20
-146.0127819079414
 30
0.0
 10
114.7761076450586
 20
-146.151282463462
 30
0.0
 10
114.0939777492543
 20
-146.23432635233
 30
0.0
 10
113.4008387912558
 20
-146.2815280189854
 30
0.0
 10
112.663392143403
 20
-146.3317988523061
 30
0.0
 10
111.9232291067305
 20
-146.3390307967483
 30
0.0
 10
111.1852885700014
 20
-146.2976852412035
 30
0.0
 10
109.7119827742552
 20
-146.2139710745575
 30
0.0
 10
108.2338792008537
 20
-145.936652463516
 30
0.0
 10
106.8713456245037
 20
-145.346173019219
 30
0.0
 10
106.1917898085073
 20
-145.054037741514
 30
0.0
 10
105.5446189916847
 20
-144.6722969082763
 30
0.0
 10
104.9638056731691
 20
-144.2227169083885
 30
0.0
 10
104.3818987435703
 20
-143.7944799640516
 30
0.0
 10
103.7728279257757
 20
-143.3931599641519
 30
0.0
 10
103.1111932204332
 20
-143.1116785753329
 30
0.0
 10
102.7804640622041
 20
-142.9738835753678
 30
0.0
 10
102.4362940709846
 20
-142.8622646865069
 30
0.0
 10
102.0816113022556
 20
-142.8301971865145
 30
0.0
 10
101.7283405301235
 20
-142.7947430198566
 30
0.0
 10
101.3660730302141
 20
-142.851222742065
 30
0.0
 10
101.0474088636271
 20
-143.0138532975797
 30
0.0
 10
100.7271924748181
 20
-143.1750727419839
 30
0.0
 10
100.4583052526634
 20
-143.426568019699
 30
0.0
 10
100.2107610860584
 20
-143.6918216307435
 30
0.0
 10
99.9609944194543
 20
-143.9553819084556
 30
0.0
 10
99.72950164173426
 20
-144.2447655194942
 30
0.0
 10
99.43235691958624
 20
-144.4597482972186
 30
0.0
 10
99.72054108618111
 20
-144.2334060750527
 30
0.0
 10
99.93859303057093
 20
-143.9374607973486
 30
0.0
 10
100.179081641622
 20
-143.6632466307506
 30
0.0
 10
100.4169596971179
 20
-143.3876213530422
 30
0.0
 10
100.6792852526078
 20
-143.1199335753309
 30
0.0
 10
101.007262752526
 20
-142.9380413531545
 30
0.0
 10
101.3331941413334
 20
-142.7547732976447
 30
0.0
 10
101.7174749745705
 20
-142.6789613532189
 30
0.0
 10
102.0907482464669
 20
-142.7020682976577
 30
0.0
 10
102.4652218480244
 20
-142.7223882976527
 30
0.0
 10
102.8293943387336
 20
-142.8212719087392
 30
0.0
 10
103.1744109965981
 20
-142.9552569087059
 30
0.0
 10
103.865679034518
 20
-143.2260491308602
 30
0.0
 10
104.4959527516537
 20
-143.6163977418737
 30
0.0
 10
105.0998720585867
 20
-144.0339455195472
 30
0.0
 10
105.6865777513561
 20
-144.4607713527737
 30
0.0
 10
106.3164967497702
 20
-144.807022741576
 30
0.0
 10
106.985539788257
 20
-145.0726291303983
 30
0.0
 10
108.3222500319325
 20
-145.605923296932
 30
0.0
 10
109.7655697173326
 20
-145.8339941302079
 30
0.0
 10
111.2028569028865
 20
-145.8736110746427
 30
0.0
 10
112.6387694162848
 20
-145.9101235746333
 30
0.0
 10
114.096904606831
 20
-145.7657669080027
 30
0.0
 10
115.4826862381434
 20
-145.4632952414121
 30
0.0
 10
115.4826862381434
 20
-145.4632952414121
 30
0.0
 10
115.6177648458084
 20
-145.4336619080859
 30
0.0
 10
115.6177648458084
 20
-145.4336619080859
 30
0.0
 10
115.6177648458084
 20
-145.4336619080859
 30
0.0
 10
115.7207406765146
 20
-145.5211860747309
 30
0.0
 10
115.7207406765146
 20
-145.5211860747309
 30
0.0
 10
119.1965189211734
 20
-148.4622591295513
 30
0.0
 10
122.9041074376961
 20
-151.129118017773
 30
0.0
 10
126.8351453929625
 20
-153.406651350537
 30
0.0
 10
128.3832047979127
 20
-154.2996377392028
 30
0.0
 10
129.9646722575661
 20
-155.1354035723272
 30
0.0
 10
131.5751027720361
 20
-155.9074577388009
 30
0.0
 10
131.6879211024912
 20
-155.9615385721207
 30
0.0
 10
131.9447433181614
 20
-156.042853849878
 30
0.0
 10
132.0434505378654
 20
-156.126568016524
 30
0.0
 10
134.3774988116522
 20
-157.2227896829162
 30
0.0
 10
136.7721895838918
 20
-158.182944960454
 30
0.0
 10
139.2264645212781
 20
-158.9611727380373
 30
0.0
 10
141.3846530773292
 20
-159.6443621823112
 30
0.0
 10
143.5840107989967
 20
-160.1938488488406
 30
0.0
 10
145.8086626866856
 20
-160.5793291265217
 30
0.0
 10
146.9212532138565
 20
-160.7698644042519
 30
0.0
 10
148.0404054075268
 20
-160.917325515326
 30
0.0
 10
149.161603712256
 20
-161.0079188486371
 30
0.0
 10
149.7172992536346
 20
-161.0530391264034
 30
0.0
 10
150.2928209056185
 20
-161.0840482930625
 30
0.0
 10
150.8402261694308
 20
-161.1012638486139
 30
0.0
 10
151.1278832955514
 20
-161.1064496819458
 30
0.0
 10
151.4181467102424
 20
-161.0981946819479
 30
0.0
 10
151.7089082954065
 20
-161.0802735708409
 30
0.0
 10
151.3091031019132
 20
-160.9025088486632
 30
0.0
 10
150.9234464450854
 20
-160.6995910709365
 30
0.0
 10
150.5546194068059
 20
-160.4735663487708
 30
0.0
 10
149.8983448045713
 20
-160.0680835710943
 30
0.0
 10
149.2863106535189
 20
-159.5968077378787
 30
0.0
 10
148.7492417783318
 20
-159.0504255157929
 30
0.0
 10
148.482224285144
 20
-158.7761760714168
 30
0.0
 10
148.2328104026182
 20
-158.4833352381569
 30
0.0
 10
148.0261179078913
 20
-158.1608963493484
 30
0.0
 10
147.8242231908199
 20
-157.8411738494288
 30
0.0
 10
147.6464584731328
 20
-157.4815169050741
 30
0.0
 10
147.6406023621711
 20
-157.1001288496141
 30
0.0
 10
147.6903793053456
 20
-157.47668384952
 30
0.0
 10
147.901234577744
 20
-157.7995107938837
 30
0.0
 10
148.1305048496726
 20
-158.0857899604788
 30
0.0
 10
148.3645749629088
 20
-158.3727746826293
 30
0.0
 10
148.6367409478686
 20
-158.6266688492324
 30
0.0
 10
148.9230221849916
 20
-158.8602430158405
 30
0.0
 10
149.4981889814468
 20
-159.3256627379461
 30
0.0
 10
150.1360464651737
 20
-159.7091321822951
 30
0.0
 10
150.799762559352
 20
-160.0205644044393
 30
0.0
 10
151.4637961535222
 20
-160.3306207932506
 30
0.0
 10
152.1595444691055
 20
-160.5676169043025
 30
0.0
 10
152.8609372289893
 20
-160.6971569042703
 30
0.0
 10
153.1742744432176
 20
-160.7536719042562
 30
0.0
 10
153.4864122130321
 20
-160.7870799598033
 30
0.0
 10
153.7938933162987
 20
-160.7929360709126
 30
0.0
 10
155.5285016053785
 20
-160.4391352376679
 30
0.0
 10
157.2128037846306
 20
-159.8117905156026
 30
0.0
 10
158.734510690253
 20
-158.9239899602693
 30
0.0
 10
159.6832712216037
 20
-158.3662130159639
 30
0.0
 10
160.5708953656252
 20
-157.6957941272424
 30
0.0
 10
161.3415736792969
 20
-156.9251157941022
 30
0.0
 10
161.729135336076
 20
-156.5396355164204
 30
0.0
 10
162.0976117155643
 20
-156.1089996831948
 30
0.0
 10
162.475189761487
 20
-155.6824913499685
 30
0.0
 10
162.475189761487
 20
-155.6824913499685
 30
0.0
 10
163.5986105661595
 20
-154.3923124614016
 30
0.0
 10
163.5986105661595
 20
-154.3923124614016
 30
0.0
 10
166.5856857677306
 20
-150.9348080178219
 30
0.0
 10
169.6254659679572
 20
-147.5124402408999
 30
0.0
 10
172.7653292211859
 20
-144.1830999639544
 30
0.0
 10
174.3297575146074
 20
-142.5387674643651
 30
0.0
 10
175.7846130330464
 20
-140.796574409245
 30
0.0
 10
177.1877866083596
 20
-139.0085555208037
 30
0.0
 10
178.585139350488
 20
-137.217114687918
 30
0.0
 10
179.9121834832989
 20
-135.3677830217135
 30
0.0
 10
181.1510360658233
 20
-133.4626419110785
 30
0.0
 10
181.7701228803434
 20
-132.5100713557613
 30
0.0
 10
182.3657881429245
 20
-131.5423666337811
 30
0.0
 10
182.9263167397353
 20
-130.5567055229165
 30
0.0
 10
183.4844111699416
 20
-129.5707269120516
 30
0.0
 10
184.0142481008687
 20
-128.5661569123031
 30
0.0
 10
184.4479883675809
 20
-127.5315655236724
 30
0.0
 10
184.5585841980927
 20
-127.2687108015159
 30
0.0
 10
184.6474841958247
 20
-127.0237771904662
 30
0.0
 10
184.7521916204788
 20
-126.7381683016486
 30
0.0
 10
184.8631372458784
 20
-126.4522419128313
 30
0.0
 10
185.0054125200265
 20
-126.1810969128993
 30
0.0
 10
185.1676902936642
 20
-125.9275555240734
 30
0.0
 10
185.4928808409234
 20
-125.4190616353117
 30
0.0
 10
185.8908141641047
 20
-124.9801355243106
 30
0.0
 10
186.2966527312033
 20
-124.5680910799693
 30
0.0
 10
187.1127657995968
 20
-123.74678913573
 30
0.0
 10
187.9695571666271
 20
-123.0074727470259
 30
0.0
 10
188.707850481125
 20
-122.1551616361282
 30
0.0
 10
189.4516471288158
 20
-121.3111055252277
 30
0.0
 10
190.0855535015324
 20
-120.3733516365733
 30
0.0
 10
190.5712932113624
 20
-119.3560110812722
 30
0.0
 10
191.0591527300127
 20
-118.340046359304
 30
0.0
 10
191.4032843012476
 20
-117.2545138595753
 30
0.0
 10
191.635517906434
 20
-116.1444985820747
 30
0.0
 10
192.0919770614554
 20
-113.9196702492976
 30
0.0
 10
192.1440117823501
 20
-111.6183244165399
 30
0.0
 10
192.0117201190585
 20
-109.3414613615532
 30
0.0
 10
192.233229280074
 20
-111.6114452498748
 30
0.0
 10
192.2766209456336
 20
-113.9220691381863
 30
0.0
 10
191.8707854004318
 20
-116.1903244153966
 30
0.0
 10
191.6678676278309
 20
-117.322035526225
 30
0.0
 10
191.3499090248316
 20
-118.4396355259454
 30
0.0
 10
190.8793034812821
 20
-119.4983216367919
 30
0.0
 10
190.4110999523971
 20
-120.5573252476387
 30
0.0
 10
189.7823762870449
 20
-121.54778413628
 30
0.0
 10
189.0416840837193
 20
-122.4393946916123
 30
0.0
 10
188.3051193802884
 20
-123.3347799691662
 30
0.0
 10
187.4583116241145
 20
-124.1268013578571
 30
0.0
 10
186.6766266440569
 20
-124.9363910798772
 30
0.0
 10
186.2890649872778
 20
-125.3432496908866
 30
0.0
 10
185.9242222188079
 20
-125.7639019130036
 30
0.0
 10
185.641365003802
 20
-126.2241710795554
 30
0.0
 10
185.5001127851834
 20
-126.4542880239422
 30
0.0
 10
185.3805916771215
 20
-126.69340080166
 30
0.0
 10
185.2892927905619
 20
-126.9417916349309
 30
0.0
 10
185.2021214038969
 20
-127.193957190424
 30
0.0
 10
185.1011916842496
 20
-127.4871508014616
 30
0.0
 10
184.9944058536406
 20
-127.7527571902839
 30
0.0
 10
184.5637700312937
 20
-128.8327863566805
 30
0.0
 10
184.0432111556854
 20
-129.8618391342015
 30
0.0
 10
183.4947475585668
 20
-130.8729708006148
 30
0.0
 10
182.9438850726204
 20
-131.8823738559182
 30
0.0
 10
182.3589089764333
 20
-132.8711394112264
 30
0.0
 10
181.7508259363912
 20
-133.8447002443165
 30
0.0
 10
180.5333221770888
 20
-135.7911869104969
 30
0.0
 10
179.2280062785315
 20
-137.6801355211356
 30
0.0
 10
177.8482218692883
 20
-139.5150032984545
 30
0.0
 10
176.9941821688545
 20
-140.653593575948
 30
0.0
 10
176.0991496916886
 20
-141.7639616312256
 30
0.0
 10
175.1720849931178
 20
-142.8474480198435
 30
0.0
 10
176.5135930144486
 20
-142.5625446865813
 30
0.0
 10
178.6571412930955
 20
-141.9327657978504
 30
0.0
 10
180.6046509656326
 20
-141.3260938535572
 30
0.0
 10
184.0790180992163
 20
-136.3293141325841
 30
0.0
 10
188.287903825172
 20
-129.2548144121311
 30
0.0
 10
190.6584645980273
 20
-120.0763833033142
 30
0.0
 10
196.7483613871056
 20
-114.720652193542
 30
0.0
 10
197.4552927579591
 20
-103.307373863062
 30
0.0
 10
195.65005835957
 20
-98.7888196975249
 30
0.0
  0
HATCH
  5
5A
330
55
100
AcDbEntity
  8
_Camada__0
 62
   250
420
  1842203
100
AcDbHatch
 10
0.0
 20
0.0
 30
0.0
210
0.0
220
0.0
230
1.0
  2
SOLID
 70
     1
 71
     0
 91
        1
 92
        1
 93
        1
 72
     4
 94
        3
 73
     0
 74
     1
 95
      455
 96
      451
 40
0.0
 40
0.0
 40
0.0
 40
0.0
 40
1.0
 40
1.0
 40
1.0
 40
2.0
 40
2.0
 40
2.0
 40
3.0
 40
3.0
 40
3.0
 40
4.0
 40
4.0
 40
4.0
 40
5.0
 40
5.0
 40
5.0
 40
6.0
 40
6.0
 40
6.0
 40
7.0
 40
7.0
 40
7.0
 40
8.0
 40
8.0
 40
8.0
 40
9.0
 40
9.0
 40
9.0
 40
10.0
 40
10.0
 40
10.0
 40
11.0
 40
11.0
 40
11.0
 40
12.0
 40
12.0
 40
12.0
 40
13.0
 40
13.0
 40
13.0
 40
14.0
 40
14.0
 40
14.0
 40
15.0
 40
15.0
 40
15.0
 40
16.0
 40
16.0
 40
16.0
 40
17.0
 40
17.0
 40
17.0
 40
18.0
 40
18.0
 40
18.0
 40
19.0
 40
19.0
 40
19.0
 40
20.0
 40
20.0
 40
20.0
 40
21.0
 40
21.0
 40
21.0
 40
22.0
 40
22.0
 40
22.0
 40
23.0
 40
23.0
 40
23.0
 40
24.0
 40
24.0
 40
24.0
 40
25.0
 40
25.0
 40
25.0
 40
26.0
 40
26.0
 40
26.0
 40
27.0
 40
27.0
 40
27.0
 40
28.0
 40
28.0
 40
28.0
 40
29.0
 40
29.0
 40
29.0
 40
30.0
 40
30.0
 40
30.0
 40
31.0
 40
31.0
 40
31.0
 40
32.0
 40
32.0
 40
32.0
 40
33.0
 40
33.0
 40
33.0
 40
34.0
 40
34.0
 40
34.0
 40
35.0
 40
35.0
 40
35.0
 40
36.0
 40
36.0
 40
36.0
 40
37.0
 40
37.0
 40
37.0
 40
38.0
 40
38.0
 40
38.0
 40
39.0
 40
39.0
 40
39.0
 40
40.0
 40
40.0
 40
40.0
 40
41.0
 40
41.0
 40
41.0
 40
42.0
 40
42.0
 40
42.0
 40
43.0
 40
43.0
 40
43.0
 40
44.0
 40
44.0
 40
44.0
 40
45.0
 40
45.0
 40
45.0
 40
46.0
 40
46.0
 40
46.0
 40
47.0
 40
47.0
 40
47.0
 40
48.0
 40
48.0
 40
48.0
 40
49.0
 40
49.0
 40
49.0
 40
50.0
 40
50.0
 40
50.0
 40
51.0
 40
51.0
 40
51.0
 40
52.0
 40
52.0
 40
52.0
 40
53.0
 40
53.0
 40
53.0
 40
54.0
 40
54.0
 40
54.0
 40
55.0
 40
55.0
 40
55.0
 40
56.0
 40
56.0
 40
56.0
 40
57.0
 40
57.0
 40
57.0
 40
58.0
 40
58.0
 40
58.0
 40
59.0
 40
59.0
 40
59.0
 40
60.0
 40
60.0
 40
60.0
 40
61.0
 40
61.0
 40
61.0
 40
62.0
 40
62.0
 40
62.0
 40
63.0
 40
63.0
 40
63.0
 40
64.0
 40
64.0
 40
64.0
 40
65.0
 40
65.0
 40
65.0
 40
66.0
 40
66.0
 40
66.0
 40
67.0
 40
67.0
 40
67.0
 40
68.0
 40
68.0
 40
68.0
 40
69.0
 40
69.0
 40
69.0
 40
70.0
 40
70.0
 40
70.0
 40
71.0
 40
71.0
 40
71.0
 40
72.0
 40
72.0
 40
72.0
 40
73.0
 40
73.0
 40
73.0
 40
74.0
 40
74.0
 40
74.0
 40
75.0
 40
75.0
 40
75.0
 40
76.0
 40
76.0
 40
76.0
 40
77.0
 40
77.0
 40
77.0
 40
78.0
 40
78.0
 40
78.0
 40
79.0
 40
79.0
 40
79.0
 40
80.0
 40
80.0
 40
80.0
 40
81.0
 40
81.0
 40
81.0
 40
82.0
 40
82.0
 40
82.0
 40
83.0
 40
83.0
 40
83.0
 40
84.0
 40
84.0
 40
84.0
 40
85.0
 40
85.0
 40
85.0
 40
86.0
 40
86.0
 40
86.0
 40
87.0
 40
87.0
 40
87.0
 40
88.0
 40
88.0
 40
88.0
 40
89.0
 40
89.0
 40
89.0
 40
90.0
 40
90.0
 40
90.0
 40
91.0
 40
91.0
 40
91.0
 40
92.0
 40
92.0
 40
92.0
 40
93.0
 40
93.0
 40
93.0
 40
94.0
 40
94.0
 40
94.0
 40
95.0
 40
95.0
 40
95.0
 40
96.0
 40
96.0
 40
96.0
 40
97.0
 40
97.0
 40
97.0
 40
98.0
 40
98.0
 40
98.0
 40
99.0
 40
99.0
 40
99.0
 40
100.0
 40
100.0
 40
100.0
 40
101.0
 40
101.0
 40
101.0
 40
102.0
 40
102.0
 40
102.0
 40
103.0
 40
103.0
 40
103.0
 40
104.0
 40
104.0
 40
104.0
 40
105.0
 40
105.0
 40
105.0
 40
106.0
 40
106.0
 40
106.0
 40
107.0
 40
107.0
 40
107.0
 40
108.0
 40
108.0
 40
108.0
 40
109.0
 40
109.0
 40
109.0
 40
110.0
 40
110.0
 40
110.0
 40
111.0
 40
111.0
 40
111.0
 40
112.0
 40
112.0
 40
112.0
 40
113.0
 40
113.0
 40
113.0
 40
114.0
 40
114.0
 40
114.0
 40
115.0
 40
115.0
 40
115.0
 40
116.0
 40
116.0
 40
116.0
 40
117.0
 40
117.0
 40
117.0
 40
118.0
 40
118.0
 40
118.0
 40
119.0
 40
119.0
 40
119.0
 40
120.0
 40
120.0
 40
120.0
 40
121.0
 40
121.0
 40
121.0
 40
122.0
 40
122.0
 40
122.0
 40
123.0
 40
123.0
 40
123.0
 40
124.0
 40
124.0
 40
124.0
 40
125.0
 40
125.0
 40
125.0
 40
126.0
 40
126.0
 40
126.0
 40
127.0
 40
127.0
 40
127.0
 40
128.0
 40
128.0
 40
128.0
 40
129.0
 40
129.0
 40
129.0
 40
130.0
 40
130.0
 40
130.0
 40
131.0
 40
131.0
 40
131.0
 40
132.0
 40
132.0
 40
132.0
 40
133.0
 40
133.0
 40
133.0
 40
134.0
 40
134.0
 40
134.0
 40
135.0
 40
135.0
 40
135.0
 40
136.0
 40
136.0
 40
136.0
 40
137.0
 40
137.0
 40
137.0
 40
138.0
 40
138.0
 40
138.0
 40
139.0
 40
139.0
 40
139.0
 40
140.0
 40
140.0
 40
140.0
 40
141.0
 40
141.0
 40
141.0
 40
142.0
 40
142.0
 40
142.0
 40
143.0
 40
143.0
 40
143.0
 40
144.0
 40
144.0
 40
144.0
 40
145.0
 40
145.0
 40
145.0
 40
146.0
 40
146.0
 40
146.0
 40
147.0
 40
147.0
 40
147.0
 40
148.0
 40
148.0
 40
148.0
 40
149.0
 40
149.0
 40
149.0
 40
150.0
 40
150.0
 40
150.0
 40
150.0
 10
195.65005835957
 20
-98.7888196975249
 10
192.4420031636366
 20
-90.76862858841906
 10
185.9821130506643
 20
-88.59340081118502
 10
181.9096464878949
 20
-88.04973497798748
 10
181.8166189902683
 20
-87.98358914467069
 10
179.6927204333423
 20
-87.6749085891923
 10
178.8149416219631
 20
-87.35867858927149
 10
178.3494838009445
 20
-87.19156775597976
 10
177.8289277333207
 20
-86.73888331164855
 10
177.3104474385636
 20
-86.76057914497638
 10
176.1453283016216
 20
-87.56709970033047
 10
174.5464336201906
 20
-88.73049025559527
 10
172.423593396571
 20
-90.47681081071401
 10
173.1594525444643
 20
-90.28493497742876
 10
173.8987689144917
 20
-90.10544164414044
 10
174.643588617712
 20
-89.94351664418066
 10
176.075372470073
 20
-89.64344386647798
 10
177.5274763219156
 20
-89.39918053320575
 10
178.9988771177104
 20
-89.32788414433486
 10
179.7337132100743
 20
-89.2906660887884
 10
180.4733823578704
 20
-89.30135525545252
 10
181.2061723391754
 20
-89.38298803320977
 10
181.9358225983382
 20
-89.47809692207507
 10
182.6675895241138
 20
-89.62760414425976
 10
183.3338456182273
 20
-89.93353303307207
 10
182.6296659139702
 20
-89.73855275534329
 10
181.9099992656637
 20
-89.64414942203351
 10
181.1882512285215
 20
-89.63483608870227
 10
180.4675262469087
 20
-89.61451608870765
 10
179.746483765304
 20
-89.65790775536331
 10
179.0285104502877
 20
-89.72853386645686
 10
177.5933046535696
 20
-89.87909942197483
 10
176.1680499559579
 20
-90.14057831079816
 10
174.7510800038585
 20
-90.44685997738823
 10
173.697226975189
 20
-90.66836914399966
 10
172.6478542241829
 20
-90.9184885883815
 10
171.596402734879
 20
-91.16687942165272
 10
164.041487777083
 20
-97.55684914227744
 10
153.8295238709452
 20
-108.6641633061674
 10
157.7578101596152
 20
-119.576179692328
 10
157.8647723791086
 20
-119.4411010812511
 10
157.9693357097743
 20
-119.3040116368408
 10
158.0768270959208
 20
-119.1696385813188
 10
159.1396406799173
 20
-117.8308821927644
 10
160.2325814853674
 20
-116.5183019153148
 10
161.345033292997
 20
-115.2232899711944
 10
161.345033292997
 20
-115.2232899711944
 10
163.0184675254046
 20
-113.2885155272332
 10
163.0184675254046
 20
-113.2885155272332
 10
163.0184675254046
 20
-113.2885155272332
 10
163.4019016822891
 20
-112.8475433051212
 10
163.4019016822891
 20
-112.8475433051212
 10
163.3533241835284
 20
-112.8117363606862
 10
163.3013247404106
 20
-112.7786458051387
 10
163.2547933527088
 20
-112.7414277495925
 10
163.0248528030195
 20
-112.5571366385276
 10
162.8150205861506
 20
-112.3573233052443
 10
162.6222980910673
 20
-112.1454449719634
 10
162.2367825453471
 20
-111.7216883054028
 10
161.9198469978772
 20
-111.2531641388537
 10
161.6583328378823
 20
-110.7646374723086
 10
161.1371036845133
 20
-109.7845149725536
 10
160.8348084144477
 20
-108.7292860839291
 10
160.664452029905
 20
-107.6719758064154
 10
161.0003317435582
 20
-108.6886460839391
 10
161.464199231724
 20
-109.6615366392513
 10
162.0924258823632
 20
-110.4876716390448
 10
162.4064333743522
 20
-110.8993633056083
 10
162.7611161430813
 20
-111.2727785832931
 10
163.152840577532
 20
-111.5842460832148
 10
163.3483500169886
 20
-111.7396094165098
 10
163.5533139006484
 20
-111.8794858053633
 10
163.7641691730469
 20
-111.9979838608892
 10
163.8263286159055
 20
-112.033120527547
 10
163.8895463920704
 20
-112.0613780275403
 10
163.9524466682435
 20
-112.0923871941993
 10
164.1004016644688
 20
-111.836764416485
 10
164.2383730498378
 20
-111.5614919165543
 10
164.370488324245
 20
-111.2851963610679
 10
165.0812296950014
 20
-109.7710741392237
 10
165.6570688469772
 20
-108.1649827507363
 10
166.2430679986938
 20
-106.5719794178017
 10
166.8132274285922
 20
-104.9706858070906
 10
167.3720274143361
 20
-103.3618074741595
 10
167.9060271229348
 20
-101.7436510856751
 10
167.5325765769068
 20
-103.4066102519262
 10
167.1291777359956
 20
-105.0637133070674
 10
166.6754324321077
 20
-106.7087160844341
 10
166.2246555139994
 20
-108.3568585840219
 10
165.7388805141207
 20
-109.9905371947246
 10
165.1118860831082
 20
-111.6079880276535
 10
164.9492908094786
 20
-112.0124477497749
 10
164.780627758226
 20
-112.4138030274521
 10
164.5536152640175
 20
-112.8199913606841
 10
164.4962535988143
 20
-112.9219794162142
 10
164.4330358226493
 20
-113.0235794161883
 10
164.3585997134372
 20
-113.1272960828296
 10
164.3585997134372
 20
-113.1272960828296
 10
164.1531066631242
 20
-113.3960069160954
 10
164.1531066631242
 20
-113.3960069160954
 10
164.1531066631242
 20
-113.3960069160954
 10
163.7584894509695
 20
-113.9003733048584
 10
163.7584894509695
 20
-113.9003733048584
 10
163.7584894509695
 20
-113.9003733048584
 10
162.1919797687123
 20
-115.9119474710217
 10
162.1919797687123
 20
-115.9119474710217
 10
161.1577764617637
 20
-117.2589941373517
 10
160.1349325989697
 20
-118.6132727481245
 10
159.1238009580992
 20
-119.9740777477845
 10
158.1160912615858
 20
-121.3376344141097
 10
157.1297598978603
 20
-122.7149846915432
 10
156.1765190888462
 20
-124.1116319134165
 10
155.2170693911015
 20
-125.5037988575128
 10
154.2825610816095
 20
-126.9104296904947
 10
153.4087305483472
 20
-128.3463410790244
 10
152.5348647373081
 20
-129.7808766342212
 10
151.7197717025473
 20
-131.2485027449655
 10
151.0314317201083
 20
-132.7436808001476
 10
150.6895195066089
 20
-133.4905466332941
 10
150.3837670144094
 20
-134.2488424664377
 10
150.1627517422702
 20
-135.0050216329153
 10
149.9438178589667
 20
-135.7540041327283
 10
149.8094448068393
 20
-136.5318791325338
 10
149.9002498045227
 20
-137.145465521269
 10
149.9002498045227
 20
-137.145465521269
 10
150.0723348001324
 20
-138.3109374654223
 10
150.0723348001324
 20
-138.3109374654223
 10
150.0723348001324
 20
-138.3109374654223
 10
148.898396218971
 20
-138.1493652432403
 10
148.898396218971
 20
-138.1493652432403
 10
144.861595488625
 20
-137.594692743379
 10
140.8014055922091
 20
-137.3480305212187
 10
136.838829304414
 20
-138.0656510765949
 10
135.8397626632356
 20
-138.2285991321098
 10
134.8374151888076
 20
-138.4625260764957
 10
133.7430985500593
 20
-138.5889616320193
 10
133.1973866195371
 20
-138.6509799653375
 10
132.6275446896306
 20
-138.681283576441
 10
132.0529049820686
 20
-138.6471699653384
 10
131.4787944411598
 20
-138.6147849653465
 10
130.9051777891274
 20
-138.5176299653706
 10
130.3580916340772
 20
-138.3681227431856
 10
129.8068747615918
 20
-138.221367187667
 10
129.2859999676784
 20
-138.0125932988302
 10
128.8062558982309
 20
-137.8162371877683
 10
128.3186111884495
 20
-137.6170941322623
 10
127.8378471902628
 20
-137.4096960767585
 10
127.360854823995
 20
-137.1985232990337
 10
126.408143181634
 20
-136.7740963546952
 10
125.4671084834196
 20
-136.342754965914
 10
124.5355635071853
 20
-135.9035113549133
 10
122.6715916102947
 20
-135.0398055217959
 10
120.8094894355787
 20
-134.1647755220145
 10
118.9017730953597
 20
-133.6200866332619
 10
117.9571400639038
 20
-133.3637935777702
 10
116.9745834223042
 20
-133.1694835778191
 10
116.1157471931933
 20
-133.3269283000018
 10
115.9040440051715
 20
-133.3679210777694
 10
115.7050773435809
 20
-133.432338299975
 10
115.5230087371147
 20
-133.5215557999531
 10
115.3168101312642
 20
-133.6252724665938
 10
115.1020037478555
 20
-133.7520255221177
 10
114.8934062531772
 20
-133.8826238554182
 10
114.4741651527618
 20
-134.1461488553521
 10
114.0626146077058
 20
-134.4389896886126
 10
113.6598835068692
 20
-134.7445657996474
 10
112.0506888608761
 20
-135.9755132993394
 10
110.5348369199291
 20
-137.3711021878795
 10
109.2057466760593
 20
-138.9189852430478
 10
108.542030581881
 20
-139.6924152428544
 10
107.9212475421629
 20
-140.5099424648722
 10
107.4389297766901
 20
-141.4049749646489
 10
107.2003471954221
 20
-141.8525088534257
 10
106.9903728436893
 20
-142.3193044088649
 10
106.8763197910435
 20
-142.8140046865189
 10
106.763325071704
 20
-143.3032369086189
 10
106.7490375720685
 20
-143.8389299640405
 10
106.972275344151
 20
-144.3116169083665
 10
106.7032117399043
 20
-143.8630599640346
 10
106.6603139632209
 20
-143.3059885752846
 10
106.7293888622065
 20
-142.787828575414
 10
106.7991672930118
 20
-142.2645180199895
 10
106.9658900665361
 20
-141.7591285756714
 10
107.1726178390398
 20
-141.2764932980144
 10
107.5963744948956
 20
-140.3132335760331
 10
108.1653344803802
 20
-139.4264560762543
 10
108.7802614091365
 20
-138.5813769097994
 10
109.4003741710939
 20
-137.7380263544545
 10
110.0820113759261
 20
-136.9442763546529
 10
110.796351079924
 20
-136.1804771881771
 10
111.5142891171635
 20
-135.4201705217008
 10
112.2620368758646
 20
-134.6856519107728
 10
113.0685574108441
 20
-134.0076835776089
 10
113.2545771283206
 20
-133.8509091332042
 10
113.4435601790548
 20
-133.6972744110199
 10
113.6357887852617
 20
-133.5456857999471
 10
104.3524417998774
 20
-112.0190094164397
 10
125.4230112623224
 20
-107.4590744175794
 10
131.2485027449655
 20
-104.2044877517268
 10
135.599803224913
 20
-101.7774119190002
 10
138.8959117519334
 20
-96.788252198025
 10
140.582965597782
 20
-93.87437830986465
 10
138.8404550866815
 20
-94.43868164305708
 10
137.0787887427365
 20
-94.91168608738326
 10
135.3310923984351
 20
-95.41880414281204
 10
133.2740452286925
 20
-96.0141166426632
 10
131.2290277808652
 20
-96.65179775361493
 10
129.2572117200594
 20
-97.48276580896263
 10
127.2873359369817
 20
-98.31098219764455
 10
125.3923548742156
 20
-99.3438096973864
 10
123.697539917454
 20
-100.6618933081678
 10
125.3518559863599
 20
-99.29350358628783
 10
127.2239417719324
 20
-98.19830497545038
 10
129.1795300553745
 20
-97.30602414234006
 10
129.2717108863561
 20
-97.26400830901727
 10
129.3648794950903
 20
-97.22403858680505
 10
129.4575542149482
 20
-97.18269303125994
 10
122.8050827180002
 20
-98.25344414210346
 10
120.4536425002127
 20
-97.52411136450773
 10
113.7337916382334
 20
-107.9400163619039
 10
110.7594858030868
 20
-112.561616916304
 10
110.2980172037487
 20
-117.3695899706574
 10
108.7209947439819
 20
-121.571914136274
 10
107.1438311731076
 20
-125.7738855241122
 10
92.23985303249569
 20
-138.5531194098061
 10
94.27347580976489
 20
-151.7227019065135
 10
93.25133747668714
 20
-153.9303146837398
 10
92.62053553240048
 20
-156.7470335719243
 10
94.25177997643705
 20
-159.4221474601446
 10
94.55615664302758
 20
-161.3035113485633
 10
95.17076608731858
 20
-163.3588652369382
 10
96.39963219812218
 20
-163.6468730146439
 10
97.85674553109124
 20
-163.9951705145571
 10
99.90673719724562
 20
-163.6254946813156
 10
102.1034835239198
 20
-163.0274305147987
 10
105.1648194181531
 20
-163.7178166257373
 10
108.9656108488523
 20
-164.1801671811769
 10
111.9399507729706
 20
-163.4404980146952
 10
114.2345584922081
 20
-162.864129681506
 10
120.4250322231648
 20
-160.6530596820591
 10
120.4265844453474
 20
-160.7133494042659
 10
122.5642766130326
 20
-159.8758549600309
 10
124.6911032254394
 20
-159.0094327380253
 10
126.7976098383646
 20
-158.0971494049203
 10
128.0688445281549
 20
-157.5449110717252
 10
129.3326708848009
 20
-156.9754219052005
 10
130.5849614084078
 20
-156.3825435720155
 10
129.1740267221816
 20
-155.6655932944167
 10
127.7889153686298
 20
-154.8990777390533
 10
126.4370709586738
 20
-154.0798219059242
 10
122.5403230025326
 20
-151.7282052398457
 10
118.8840283735902
 20
-149.0007391294162
 10
115.4680471933551
 20
-146.0127819079414
 10
114.7761076450586
 20
-146.151282463462
 10
114.0939777492543
 20
-146.23432635233
 10
113.4008387912558
 20
-146.2815280189854
 10
112.663392143403
 20
-146.3317988523061
 10
111.9232291067305
 20
-146.3390307967483
 10
111.1852885700014
 20
-146.2976852412035
 10
109.7119827742552
 20
-146.2139710745575
 10
108.2338792008537
 20
-145.936652463516
 10
106.8713456245037
 20
-145.346173019219
 10
106.1917898085073
 20
-145.054037741514
 10
105.5446189916847
 20
-144.6722969082763
 10
104.9638056731691
 20
-144.2227169083885
 10
104.3818987435703
 20
-143.7944799640516
 10
103.7728279257757
 20
-143.3931599641519
 10
103.1111932204332
 20
-143.1116785753329
 10
102.7804640622041
 20
-142.9738835753678
 10
102.4362940709846
 20
-142.8622646865069
 10
102.0816113022556
 20
-142.8301971865145
 10
101.7283405301235
 20
-142.7947430198566
 10
101.3660730302141
 20
-142.851222742065
 10
101.0474088636271
 20
-143.0138532975797
 10
100.7271924748181
 20
-143.1750727419839
 10
100.4583052526634
 20
-143.426568019699
 10
100.2107610860584
 20
-143.6918216307435
 10
99.9609944194543
 20
-143.9553819084556
 10
99.72950164173426
 20
-144.2447655194942
 10
99.43235691958624
 20
-144.4597482972186
 10
99.72054108618111
 20
-144.2334060750527
 10
99.93859303057093
 20
-143.9374607973486
 10
100.179081641622
 20
-143.6632466307506
 10
100.4169596971179
 20
-143.3876213530422
 10
100.6792852526078
 20
-143.1199335753309
 10
101.007262752526
 20
-142.9380413531545
 10
101.3331941413334
 20
-142.7547732976447
 10
101.7174749745705
 20
-142.6789613532189
 10
102.0907482464669
 20
-142.7020682976577
 10
102.4652218480244
 20
-142.7223882976527
 10
102.8293943387336
 20
-142.8212719087392
 10
103.1744109965981
 20
-142.9552569087059
 10
103.865679034518
 20
-143.2260491308602
 10
104.4959527516537
 20
-143.6163977418737
 10
105.0998720585867
 20
-144.0339455195472
 10
105.6865777513561
 20
-144.4607713527737
 10
106.3164967497702
 20
-144.807022741576
 10
106.985539788257
 20
-145.0726291303983
 10
108.3222500319325
 20
-145.605923296932
 10
109.7655697173326
 20
-145.8339941302079
 10
111.2028569028865
 20
-145.8736110746427
 10
112.6387694162848
 20
-145.9101235746333
 10
114.096904606831
 20
-145.7657669080027
 10
115.4826862381434
 20
-145.4632952414121
 10
115.4826862381434
 20
-145.4632952414121
 10
115.6177648458084
 20
-145.4336619080859
 10
115.6177648458084
 20
-145.4336619080859
 10
115.6177648458084
 20
-145.4336619080859
 10
115.7207406765146
 20
-145.5211860747309
 10
115.7207406765146
 20
-145.5211860747309
 10
119.1965189211734
 20
-148.4622591295513
 10
122.9041074376961
 20
-151.129118017773
 10
126.8351453929625
 20
-153.406651350537
 10
128.3832047979127
 20
-154.2996377392028
 10
129.9646722575661
 20
-155.1354035723272
 10
131.5751027720361
 20
-155.9074577388009
 10
131.6879211024912
 20
-155.9615385721207
 10
131.9447433181614
 20
-156.042853849878
 10
132.0434505378654
 20
-156.126568016524
 10
134.3774988116522
 20
-157.2227896829162
 10
136.7721895838918
 20
-158.182944960454
 10
139.2264645212781
 20
-158.9611727380373
 10
141.3846530773292
 20
-159.6443621823112
 10
143.5840107989967
 20
-160.1938488488406
 10
145.8086626866856
 20
-160.5793291265217
 10
146.9212532138565
 20
-160.7698644042519
 10
148.0404054075268
 20
-160.917325515326
 10
149.161603712256
 20
-161.0079188486371
 10
149.7172992536346
 20
-161.0530391264034
 10
150.2928209056185
 20
-161.0840482930625
 10
150.8402261694308
 20
-161.1012638486139
 10
151.1278832955514
 20
-161.1064496819458
 10
151.4181467102424
 20
-161.0981946819479
 10
151.7089082954065
 20
-161.0802735708409
 10
151.3091031019132
 20
-160.9025088486632
 10
150.9234464450854
 20
-160.6995910709365
 10
150.5546194068059
 20
-160.4735663487708
 10
149.8983448045713
 20
-160.0680835710943
 10
149.2863106535189
 20
-159.5968077378787
 10
148.7492417783318
 20
-159.0504255157929
 10
148.482224285144
 20
-158.7761760714168
 10
148.2328104026182
 20
-158.4833352381569
 10
148.0261179078913
 20
-158.1608963493484
 10
147.8242231908199
 20
-157.8411738494288
 10
147.6464584731328
 20
-157.4815169050741
 10
147.6406023621711
 20
-157.1001288496141
 10
147.6903793053456
 20
-157.47668384952
 10
147.901234577744
 20
-157.7995107938837
 10
148.1305048496726
 20
-158.0857899604788
 10
148.3645749629088
 20
-158.3727746826293
 10
148.6367409478686
 20
-158.6266688492324
 10
148.9230221849916
 20
-158.8602430158405
 10
149.4981889814468
 20
-159.3256627379461
 10
150.1360464651737
 20
-159.7091321822951
 10
150.799762559352
 20
-160.0205644044393
 10
151.4637961535222
 20
-160.3306207932506
 10
152.1595444691055
 20
-160.5676169043025
 10
152.8609372289893
 20
-160.6971569042703
 10
153.1742744432176
 20
-160.7536719042562
 10
153.4864122130321
 20
-160.7870799598033
 10
153.7938933162987
 20
-160.7929360709126
 10
155.5285016053785
 20
-160.4391352376679
 10
157.2128037846306
 20
-159.8117905156026
 10
158.734510690253
 20
-158.9239899602693
 10
159.6832712216037
 20
-158.3662130159639
 10
160.5708953656252
 20
-157.6957941272424
 10
161.3415736792969
 20
-156.9251157941022
 10
161.729135336076
 20
-156.5396355164204
 10
162.0976117155643
 20
-156.1089996831948
 10
162.475189761487
 20
-155.6824913499685
 10
162.475189761487
 20
-155.6824913499685
 10
163.5986105661595
 20
-154.3923124614016
 10
163.5986105661595
 20
-154.3923124614016
 10
166.5856857677306
 20
-150.9348080178219
 10
169.6254659679572
 20
-147.5124402408999
 10
172.7653292211859
 20
-144.1830999639544
 10
174.3297575146074
 20
-142.5387674643651
 10
175.7846130330464
 20
-140.796574409245
 10
177.1877866083596
 20
-139.0085555208037
 10
178.585139350488
 20
-137.217114687918
 10
179.9121834832989
 20
-135.3677830217135
 10
181.1510360658233
 20
-133.4626419110785
 10
181.7701228803434
 20
-132.5100713557613
 10
182.3657881429245
 20
-131.5423666337811
 10
182.9263167397353
 20
-130.5567055229165
 10
183.4844111699416
 20
-129.5707269120516
 10
184.0142481008687
 20
-128.5661569123031
 10
184.4479883675809
 20
-127.5315655236724
 10
184.5585841980927
 20
-127.2687108015159
 10
184.6474841958247
 20
-127.0237771904662
 10
184.7521916204788
 20
-126.7381683016486
 10
184.8631372458784
 20
-126.4522419128313
 10
185.0054125200265
 20
-126.1810969128993
 10
185.1676902936642
 20
-125.9275555240734
 10
185.4928808409234
 20
-125.4190616353117
 10
185.8908141641047
 20
-124.9801355243106
 10
186.2966527312033
 20
-124.5680910799693
 10
187.1127657995968
 20
-123.74678913573
 10
187.9695571666271
 20
-123.0074727470259
 10
188.707850481125
 20
-122.1551616361282
 10
189.4516471288158
 20
-121.3111055252277
 10
190.0855535015324
 20
-120.3733516365733
 10
190.5712932113624
 20
-119.3560110812722
 10
191.0591527300127
 20
-118.340046359304
 10
191.4032843012476
 20
-117.2545138595753
 10
191.635517906434
 20
-116.1444985820747
 10
192.0919770614554
 20
-113.9196702492976
 10
192.1440117823501
 20
-111.6183244165399
 10
192.0117201190585
 20
-109.3414613615532
 10
192.233229280074
 20
-111.6114452498748
 10
192.2766209456336
 20
-113.9220691381863
 10
191.8707854004318
 20
-116.1903244153966
 10
191.6678676278309
 20
-117.322035526225
 10
191.3499090248316
 20
-118.4396355259454
 10
190.8793034812821
 20
-119.4983216367919
 10
190.4110999523971
 20
-120.5573252476387
 10
189.7823762870449
 20
-121.54778413628
 10
189.0416840837193
 20
-122.4393946916123
 10
188.3051193802884
 20
-123.3347799691662
 10
187.4583116241145
 20
-124.1268013578571
 10
186.6766266440569
 20
-124.9363910798772
 10
186.2890649872778
 20
-125.3432496908866
 10
185.9242222188079
 20
-125.7639019130036
 10
185.641365003802
 20
-126.2241710795554
 10
185.5001127851834
 20
-126.4542880239422
 10
185.3805916771215
 20
-126.69340080166
 10
185.2892927905619
 20
-126.9417916349309
 10
185.2021214038969
 20
-127.193957190424
 10
185.1011916842496
 20
-127.4871508014616
 10
184.9944058536406
 20
-127.7527571902839
 10
184.5637700312937
 20
-128.8327863566805
 10
184.0432111556854
 20
-129.8618391342015
 10
183.4947475585668
 20
-130.8729708006148
 10
182.9438850726204
 20
-131.8823738559182
 10
182.3589089764333
 20
-132.8711394112264
 10
181.7508259363912
 20
-133.8447002443165
 10
180.5333221770888
 20
-135.7911869104969
 10
179.2280062785315
 20
-137.6801355211356
 10
177.8482218692883
 20
-139.5150032984545
 10
176.9941821688545
 20
-140.653593575948
 10
176.0991496916886
 20
-141.7639616312256
 10
175.1720849931178
 20
-142.8474480198435
 10
176.5135930144486
 20
-142.5625446865813
 10
178.6571412930955
 20
-141.9327657978504
 10
180.6046509656326
 20
-141.3260938535572
 10
184.0790180992163
 20
-136.3293141325841
 10
188.287903825172
 20
-129.2548144121311
 10
190.6584645980273
 20
-120.0763833033142
 10
196.7483613871056
 20
-114.720652193542
 10
197.4552927579591
 20
-103.307373863062
 10
195.65005835957
 20
-98.7888196975249
 97
        0
 97
        0
 75
     2
 76
     1
 98
        0
  0
SPLINE
  5
5B
330
55
100
AcDbEntity
  8
_Camada__0
370
     0
100
AcDbSpline
210
0.0
220
0.0
230
1.0
 70
    11
 71
     3
 72
    98
 73
    94
 74
     0
 42
0.0000000001
 43
0.0000000001
 12
1.0
 22
0.0
 32
0.0
 13
1.0
 23
0.0
 33
0.0
 40
0.0
 40
0.0
 40
0.0
 40
0.0
 40
1.0
 40
1.0
 40
1.0
 40
2.0
 40
2.0
 40
2.0
 40
3.0
 40
3.0
 40
3.0
 40
4.0
 40
4.0
 40
4.0
 40
5.0
 40
5.0
 40
5.0
 40
6.0
 40
6.0
 40
6.0
 40
7.0
 40
7.0
 40
7.0
 40
8.0
 40
8.0
 40
8.0
 40
9.0
 40
9.0
 40
9.0
 40
10.0
 40
10.0
 40
10.0
 40
11.0
 40
11.0
 40
11.0
 40
12.0
 40
12.0
 40
12.0
 40
13.0
 40
13.0
 40
13.0
 40
14.0
 40
14.0
 40
14.0
 40
15.0
 40
15.0
 40
15.0
 40
16.0
 40
16.0
 40
16.0
 40
17.0
 40
17.0
 40
17.0
 40
18.0
 40
18.0
 40
18.0
 40
19.0
 40
19.0
 40
19.0
 40
20.0
 40
20.0
 40
20.0
 40
21.0
 40
21.0
 40
21.0
 40
22.0
 40
22.0
 40
22.0
 40
23.0
 40
23.0
 40
23.0
 40
24.0
 40
24.0
 40
24.0
 40
25.0
 40
25.0
 40
25.0
 40
26.0
 40
26.0
 40
26.0
 40
27.0
 40
27.0
 40
27.0
 40
28.0
 40
28.0
 40
28.0
 40
29.0
 40
29.0
 40
29.0
 40
30.0
 40
30.0
 40
30.0
 40
31.0
 40
31.0
 40
31.0
 40
31.0
 10
169.8073934633158
 20
-78.37180581374027
 30
0.0
 10
168.5795504390851
 20
-75.74491664773045
 30
0.0
 10
167.8348718469724
 20
-72.91715581510408
 30
0.0
 10
167.3901249138744
 20
-70.06205470470667
 30
0.0
 10
167.1691096417351
 20
-68.63249331617506
 30
0.0
 10
167.0251082915772
 20
-67.19143137209095
 30
0.0
 10
166.9493290917867
 20
-65.74673581689665
 30
0.0
 10
166.9169440926129
 20
-65.11988498372008
 30
0.0
 10
166.8997285374965
 20
-64.49218748387696
 30
0.0
 10
166.8938749582762
 20
-63.86381970625614
 30
0.0
 10
166.3948329948219
 20
-65.49728665029248
 30
0.0
 10
165.7094210678638
 20
-67.08443387211784
 30
0.0
 10
164.7753008139174
 20
-68.5367141495324
 30
0.0
 10
164.5083185985065
 20
-68.95066359387356
 30
0.0
 10
164.2256377723849
 20
-69.350466649329
 30
0.0
 10
163.9166044469357
 20
-69.7409563714535
 30
0.0
 10
163.6101816769754
 20
-70.12562526024625
 30
0.0
 10
163.3004427959886
 20
-70.48838664904443
 30
0.0
 10
162.9864353039996
 20
-70.85975581561831
 30
0.0
 10
162.3589166260768
 20
-71.59751998210056
 30
0.0
 10
161.7184814474589
 20
-72.32942803747318
 30
0.0
 10
161.0347981315678
 20
-73.02983303729825
 30
0.0
 10
159.6772387217576
 20
-74.4261274813935
 30
0.0
 10
158.0802843180549
 20
-75.69185886996578
 30
0.0
 10
156.2069990880686
 20
-76.42221470311664
 30
0.0
 10
155.2749249451811
 20
-76.78532886969258
 30
0.0
 10
154.2951552479549
 20
-77.01477553630173
 30
0.0
 10
153.3100233286432
 20
-77.13119220293957
 30
0.0
 10
152.8189213967278
 20
-77.19010609181355
 30
0.0
 10
152.3211166872057
 20
-77.22182081402782
 30
0.0
 10
151.8262047553875
 20
-77.23113414735873
 30
0.0
 10
151.2975694066201
 20
-77.23699025846868
 30
0.0
 10
150.7797600598623
 20
-77.14706720293532
 30
0.0
 10
150.2907416290942
 20
-76.99547859186221
 30
0.0
 10
149.3109698195565
 20
-76.69021998082759
 30
0.0
 10
148.4359045641035
 20
-76.17519970317831
 30
0.0
 10
147.6430012509988
 20
-75.58055748110482
 30
0.0
 10
146.8764857149987
 20
-75.00591775902637
 30
0.0
 10
146.189347185675
 20
-74.34206053697007
 30
0.0
 10
145.56319991517
 20
-73.63100164825904
 30
0.0
 10
145.8310640750029
 20
-75.07312192567613
 30
0.0
 10
146.0691185133741
 20
-76.51626525864866
 30
0.0
 10
146.2847715634279
 20
-77.96561748050857
 30
0.0
 10
146.562972111886
 20
-79.84835720226019
 30
0.0
 10
146.798451272545
 20
-81.73765859067663
 30
0.0
 10
146.9670790460208
 20
-83.63383914575815
 30
0.0
 10
147.1327787640157
 20
-85.52931414528446
 30
0.0
 10
147.2390707057484
 20
-87.433432200364
 30
0.0
 10
147.1916926514015
 20
-89.33822053322089
 30
0.0
 10
147.1822382071983
 20
-89.68997525535535
 30
0.0
 10
147.1646698743131
 20
-90.04169469971166
 30
0.0
 10
147.141915708227
 20
-90.39309664406835
 30
0.0
 10
147.141915708227
 20
-90.39309664406835
 30
0.0
 10
147.1541570968036
 20
-90.60324636623798
 30
0.0
 10
147.1190204310333
 20
-90.74657997731346
 30
0.0
 10
147.0804265431291
 20
-91.2271691438599
 30
0.0
 10
147.0263457111754
 20
-91.70673525485121
 30
0.0
 10
146.9493343242513
 20
-92.18284414362093
 30
0.0
 10
146.7906901616319
 20
-93.11643525449882
 30
0.0
 10
146.567276000665
 20
-94.0676299764831
 30
0.0
 10
146.0553249026149
 20
-94.8744680318368
 30
0.0
 10
146.539018501386
 20
-94.05143747648714
 30
0.0
 10
146.727472385467
 20
-93.10130108783581
 30
0.0
 10
146.8537315489125
 20
-92.16905053251327
 30
0.0
 10
146.9090471030568
 20
-91.73428719928867
 30
0.0
 10
146.9438309910583
 20
-91.29708969939792
 30
0.0
 10
146.9664087682601
 20
-90.85957469950722
 30
0.0
 10
146.2460365644161
 20
-91.39149303270769
 30
0.0
 10
145.4781099173409
 20
-91.84315442148379
 30
0.0
 10
144.6860885486581
 20
-92.24242831027257
 30
0.0
 10
142.5372133257027
 20
-95.41365358725761
 30
0.0
 10
137.8894367776107
 20
-101.3912260857633
 30
0.0
 10
133.3908146701579
 20
-103.8999346962474
 30
0.0
 10
127.3824110792655
 20
-107.2551335842975
 30
0.0
 10
113.9355087776152
 20
-118.923646636936
 30
0.0
 10
131.944566929277
 20
-132.6967966334925
 30
0.0
 10
131.944566929277
 20
-132.6967966334925
 30
0.0
 10
127.9315434205466
 20
-117.2286905262481
 30
0.0
 10
139.904997281745
 20
-110.6003135834608
 30
0.0
 10
149.326985930259
 20
-105.3857994180979
 30
0.0
 10
159.2473084549482
 20
-98.80705830863144
 30
0.0
 10
166.4280646606408
 20
-92.20902025472549
 30
0.0
 10
166.3516177181467
 20
-92.21762803250121
 30
0.0
 10
166.2754555139868
 20
-92.22796442138757
 30
0.0
 10
166.1989707775966
 20
-92.23554914360783
 30
0.0
 10
166.2927038307608
 20
-92.21279497694671
 30
0.0
 10
166.3850257728499
 20
-92.18661886584214
 30
0.0
 10
166.4785471593529
 20
-92.16284164362588
 30
0.0
 10
169.7116142990927
 20
-89.18973636659132
 30
0.0
 10
172.160385903286
 20
-86.73235692276124
 30
0.0
 10
173.9773325235985
 20
-84.63876192328479
 30
0.0
 10
172.0962888458649
 20
-82.99580525702898
 30
0.0
 10
170.8608937142166
 20
-80.63247636873092
 30
0.0
 10
169.8073934633158
 20
-78.37180581374027
 30
0.0
  0
SPLINE
  5
5C
330
55
100
AcDbEntity
  8
_Camada__0
370
     0
100
AcDbSpline
210
0.0
220
0.0
230
1.0
 70
    11
 71
     3
 72
    44
 73
    40
 74
     0
 42
0.0000000001
 43
0.0000000001
 12
1.0
 22
0.0
 32
0.0
 13
1.0
 23
0.0
 33
0.0
 40
0.0
 40
0.0
 40
0.0
 40
0.0
 40
1.0
 40
1.0
 40
1.0
 40
2.0
 40
2.0
 40
2.0
 40
3.0
 40
3.0
 40
3.0
 40
4.0
 40
4.0
 40
4.0
 40
5.0
 40
5.0
 40
5.0
 40
6.0
 40
6.0
 40
6.0
 40
7.0
 40
7.0
 40
7.0
 40
8.0
 40
8.0
 40
8.0
 40
9.0
 40
9.0
 40
9.0
 40
10.0
 40
10.0
 40
10.0
 40
11.0
 40
11.0
 40
11.0
 40
12.0
 40
12.0
 40
12.0
 40
13.0
 40
13.0
 40
13.0
 40
13.0
 10
152.9973916699525
 20
-95.57109830944066
 30
0.0
 10
152.2556411333205
 20
-95.88940969824988
 30
0.0
 10
151.4994619859456
 20
-96.17156136484593
 30
0.0
 10
150.754430616064
 20
-96.47128136477116
 30
0.0
 10
150.0120471847191
 20
-96.77548164247281
 30
0.0
 10
149.270118153932
 20
-97.08313914239575
 30
0.0
 10
148.6031565042809
 20
-97.51275192006625
 30
0.0
 10
147.9337606880253
 20
-97.93717886440449
 30
0.0
 10
147.3561929249825
 20
-98.4901227531551
 30
0.0
 10
146.9105993252395
 20
-99.14466664188049
 30
0.0
 10
146.0000446262474
 20
-100.4586227526633
 30
0.0
 10
145.1990627022377
 20
-101.8632074745343
 30
0.0
 10
144.339519668611
 20
-103.2240124741941
 30
0.0
 10
143.4835749682257
 20
-104.5882746960751
 30
0.0
 10
142.6202219346961
 20
-105.9528896957342
 30
0.0
 10
141.6444033484802
 20
-107.2365069176356
 30
0.0
 10
142.0879527422559
 20
-106.5636891400255
 30
0.0
 10
142.5177399928662
 20
-105.8836394179733
 30
0.0
 10
142.9311602600968
 20
-105.1932180292571
 30
0.0
 10
143.3512833049341
 20
-104.5069594183178
 30
0.0
 10
143.7626221833288
 20
-103.815550251824
 30
0.0
 10
144.170362728482
 20
-103.1213541408863
 30
0.0
 10
144.5746460515013
 20
-102.4251119188381
 30
0.0
 10
144.9921938186265
 20
-101.7367719190103
 30
0.0
 10
145.4061079747333
 20
-101.0453274747387
 30
0.0
 10
145.8245024085037
 20
-100.356317197133
 30
0.0
 10
146.2379226757342
 20
-99.66522553063916
 30
0.0
 10
146.7004496083786
 20
-98.99618247525092
 30
0.0
 10
147.1679154297859
 20
-98.3230119198637
 30
0.0
 10
147.7822073585585
 20
-97.74597330889692
 30
0.0
 10
148.4779203963649
 20
-97.3153374756713
 30
0.0
 10
149.1733159341794
 20
-96.88124442022406
 30
0.0
 10
149.9260731371972
 20
-96.5646616425255
 30
0.0
 10
150.6833106178785
 20
-96.2873077537061
 30
0.0
 10
152.1994789125311
 20
-95.737468309399
 30
0.0
 10
153.7189633182103
 20
-95.21521608730723
 30
0.0
 10
155.1614010591884
 20
-94.49173942082143
 30
0.0
 10
154.4651610724946
 20
-94.89757497627568
 30
0.0
 10
153.7361788733267
 20
-95.24689553174397
 30
0.0
 10
152.9973916699525
 20
-95.57109830944066
 30
0.0
  0
HATCH
  5
5D
330
55
100
AcDbEntity
  8
_Camada__0
 62
   250
420
  1842203
100
AcDbHatch
 10
0.0
 20
0.0
 30
0.0
210
0.0
220
0.0
230
1.0
  2
SOLID
 70
     1
 71
     0
 91
        2
 92
        1
 93
        1
 72
     4
 94
        3
 73
     0
 74
     1
 95
       98
 96
       94
 40
0.0
 40
0.0
 40
0.0
 40
0.0
 40
1.0
 40
1.0
 40
1.0
 40
2.0
 40
2.0
 40
2.0
 40
3.0
 40
3.0
 40
3.0
 40
4.0
 40
4.0
 40
4.0
 40
5.0
 40
5.0
 40
5.0
 40
6.0
 40
6.0
 40
6.0
 40
7.0
 40
7.0
 40
7.0
 40
8.0
 40
8.0
 40
8.0
 40
9.0
 40
9.0
 40
9.0
 40
10.0
 40
10.0
 40
10.0
 40
11.0
 40
11.0
 40
11.0
 40
12.0
 40
12.0
 40
12.0
 40
13.0
 40
13.0
 40
13.0
 40
14.0
 40
14.0
 40
14.0
 40
15.0
 40
15.0
 40
15.0
 40
16.0
 40
16.0
 40
16.0
 40
17.0
 40
17.0
 40
17.0
 40
18.0
 40
18.0
 40
18.0
 40
19.0
 40
19.0
 40
19.0
 40
20.0
 40
20.0
 40
20.0
 40
21.0
 40
21.0
 40
21.0
 40
22.0
 40
22.0
 40
22.0
 40
23.0
 40
23.0
 40
23.0
 40
24.0
 40
24.0
 40
24.0
 40
25.0
 40
25.0
 40
25.0
 40
26.0
 40
26.0
 40
26.0
 40
27.0
 40
27.0
 40
27.0
 40
28.0
 40
28.0
 40
28.0
 40
29.0
 40
29.0
 40
29.0
 40
30.0
 40
30.0
 40
30.0
 40
31.0
 40
31.0
 40
31.0
 40
31.0
 10
169.8073934633158
 20
-78.37180581374027
 10
168.5795504390851
 20
-75.74491664773045
 10
167.8348718469724
 20
-72.91715581510408
 10
167.3901249138744
 20
-70.06205470470667
 10
167.1691096417351
 20
-68.63249331617506
 10
167.0251082915772
 20
-67.19143137209095
 10
166.9493290917867
 20
-65.74673581689665
 10
166.9169440926129
 20
-65.11988498372008
 10
166.8997285374965
 20
-64.49218748387696
 10
166.8938749582762
 20
-63.86381970625614
 10
166.3948329948219
 20
-65.49728665029248
 10
165.7094210678638
 20
-67.08443387211784
 10
164.7753008139174
 20
-68.5367141495324
 10
164.5083185985065
 20
-68.95066359387356
 10
164.2256377723849
 20
-69.350466649329
 10
163.9166044469357
 20
-69.7409563714535
 10
163.6101816769754
 20
-70.12562526024625
 10
163.3004427959886
 20
-70.48838664904443
 10
162.9864353039996
 20
-70.85975581561831
 10
162.3589166260768
 20
-71.59751998210056
 10
161.7184814474589
 20
-72.32942803747318
 10
161.0347981315678
 20
-73.02983303729825
 10
159.6772387217576
 20
-74.4261274813935
 10
158.0802843180549
 20
-75.69185886996578
 10
156.2069990880686
 20
-76.42221470311664
 10
155.2749249451811
 20
-76.78532886969258
 10
154.2951552479549
 20
-77.01477553630173
 10
153.3100233286432
 20
-77.13119220293957
 10
152.8189213967278
 20
-77.19010609181355
 10
152.3211166872057
 20
-77.22182081402782
 10
151.8262047553875
 20
-77.23113414735873
 10
151.2975694066201
 20
-77.23699025846868
 10
150.7797600598623
 20
-77.14706720293532
 10
150.2907416290942
 20
-76.99547859186221
 10
149.3109698195565
 20
-76.69021998082759
 10
148.4359045641035
 20
-76.17519970317831
 10
147.6430012509988
 20
-75.58055748110482
 10
146.8764857149987
 20
-75.00591775902637
 10
146.189347185675
 20
-74.34206053697007
 10
145.56319991517
 20
-73.63100164825904
 10
145.8310640750029
 20
-75.07312192567613
 10
146.0691185133741
 20
-76.51626525864866
 10
146.2847715634279
 20
-77.96561748050857
 10
146.562972111886
 20
-79.84835720226019
 10
146.798451272545
 20
-81.73765859067663
 10
146.9670790460208
 20
-83.63383914575815
 10
147.1327787640157
 20
-85.52931414528446
 10
147.2390707057484
 20
-87.433432200364
 10
147.1916926514015
 20
-89.33822053322089
 10
147.1822382071983
 20
-89.68997525535535
 10
147.1646698743131
 20
-90.04169469971166
 10
147.141915708227
 20
-90.39309664406835
 10
147.141915708227
 20
-90.39309664406835
 10
147.1541570968036
 20
-90.60324636623798
 10
147.1190204310333
 20
-90.74657997731346
 10
147.0804265431291
 20
-91.2271691438599
 10
147.0263457111754
 20
-91.70673525485121
 10
146.9493343242513
 20
-92.18284414362093
 10
146.7906901616319
 20
-93.11643525449882
 10
146.567276000665
 20
-94.0676299764831
 10
146.0553249026149
 20
-94.8744680318368
 10
146.539018501386
 20
-94.05143747648714
 10
146.727472385467
 20
-93.10130108783581
 10
146.8537315489125
 20
-92.16905053251327
 10
146.9090471030568
 20
-91.73428719928867
 10
146.9438309910583
 20
-91.29708969939792
 10
146.9664087682601
 20
-90.85957469950722
 10
146.2460365644161
 20
-91.39149303270769
 10
145.4781099173409
 20
-91.84315442148379
 10
144.6860885486581
 20
-92.24242831027257
 10
142.5372133257027
 20
-95.41365358725761
 10
137.8894367776107
 20
-101.3912260857633
 10
133.3908146701579
 20
-103.8999346962474
 10
127.3824110792655
 20
-107.2551335842975
 10
113.9355087776152
 20
-118.923646636936
 10
131.944566929277
 20
-132.6967966334925
 10
131.944566929277
 20
-132.6967966334925
 10
127.9315434205466
 20
-117.2286905262481
 10
139.904997281745
 20
-110.6003135834608
 10
149.326985930259
 20
-105.3857994180979
 10
159.2473084549482
 20
-98.80705830863144
 10
166.4280646606408
 20
-92.20902025472549
 10
166.3516177181467
 20
-92.21762803250121
 10
166.2754555139868
 20
-92.22796442138757
 10
166.1989707775966
 20
-92.23554914360783
 10
166.2927038307608
 20
-92.21279497694671
 10
166.3850257728499
 20
-92.18661886584214
 10
166.4785471593529
 20
-92.16284164362588
 10
169.7116142990927
 20
-89.18973636659132
 10
172.160385903286
 20
-86.73235692276124
 10
173.9773325235985
 20
-84.63876192328479
 10
172.0962888458649
 20
-82.99580525702898
 10
170.8608937142166
 20
-80.63247636873092
 10
169.8073934633158
 20
-78.37180581374027
 97
        0
 97
        0
 92
        1
 93
        1
 72
     4
 94
        3
 73
     0
 74
     1
 95
       44
 96
       40
 40
0.0
 40
0.0
 40
0.0
 40
0.0
 40
1.0
 40
1.0
 40
1.0
 40
2.0
 40
2.0
 40
2.0
 40
3.0
 40
3.0
 40
3.0
 40
4.0
 40
4.0
 40
4.0
 40
5.0
 40
5.0
 40
5.0
 40
6.0
 40
6.0
 40
6.0
 40
7.0
 40
7.0
 40
7.0
 40
8.0
 40
8.0
 40
8.0
 40
9.0
 40
9.0
 40
9.0
 40
10.0
 40
10.0
 40
10.0
 40
11.0
 40
11.0
 40
11.0
 40
12.0
 40
12.0
 40
12.0
 40
13.0
 40
13.0
 40
13.0
 40
13.0
 10
152.9973916699525
 20
-95.57109830944066
 10
152.2556411333205
 20
-95.88940969824988
 10
151.4994619859456
 20
-96.17156136484593
 10
150.754430616064
 20
-96.47128136477116
 10
150.0120471847191
 20
-96.77548164247281
 10
149.270118153932
 20
-97.08313914239575
 10
148.6031565042809
 20
-97.51275192006625
 10
147.9337606880253
 20
-97.93717886440449
 10
147.3561929249825
 20
-98.4901227531551
 10
146.9105993252395
 20
-99.14466664188049
 10
146.0000446262474
 20
-100.4586227526633
 10
145.1990627022377
 20
-101.8632074745343
 10
144.339519668611
 20
-103.2240124741941
 10
143.4835749682257
 20
-104.5882746960751
 10
142.6202219346961
 20
-105.9528896957342
 10
141.6444033484802
 20
-107.2365069176356
 10
142.0879527422559
 20
-106.5636891400255
 10
142.5177399928662
 20
-105.8836394179733
 10
142.9311602600968
 20
-105.1932180292571
 10
143.3512833049341
 20
-104.5069594183178
 10
143.7626221833288
 20
-103.815550251824
 10
144.170362728482
 20
-103.1213541408863
 10
144.5746460515013
 20
-102.4251119188381
 10
144.9921938186265
 20
-101.7367719190103
 10
145.4061079747333
 20
-101.0453274747387
 10
145.8245024085037
 20
-100.356317197133
 10
146.2379226757342
 20
-99.66522553063916
 10
146.7004496083786
 20
-98.99618247525092
 10
147.1679154297859
 20
-98.3230119198637
 10
147.7822073585585
 20
-97.74597330889692
 10
148.4779203963649
 20
-97.3153374756713
 10
149.1733159341794
 20
-96.88124442022406
 10
149.9260731371972
 20
-96.5646616425255
 10
150.6833106178785
 20
-96.2873077537061
 10
152.1994789125311
 20
-95.737468309399
 10
153.7189633182103
 20
-95.21521608730723
 10
155.1614010591884
 20
-94.49173942082143
 10
154.4651610724946
 20
-94.89757497627568
 10
153.7361788733267
 20
-95.24689553174397
 10
152.9973916699525
 20
-95.57109830944066
 97
        0
 97
        0
 75
     2
 76
     1
 98
        0
  0
SPLINE
  5
5E
330
55
100
AcDbEntity
  8
_Camada__0
370
     0
100
AcDbSpline
210
0.0
220
0.0
230
1.0
 70
    11
 71
     3
 72
   170
 73
   166
 74
     0
 42
0.0000000001
 43
0.0000000001
 12
1.0
 22
0.0
 32
0.0
 13
1.0
 23
0.0
 33
0.0
 40
0.0
 40
0.0
 40
0.0
 40
0.0
 40
1.0
 40
1.0
 40
1.0
 40
2.0
 40
2.0
 40
2.0
 40
3.0
 40
3.0
 40
3.0
 40
4.0
 40
4.0
 40
4.0
 40
5.0
 40
5.0
 40
5.0
 40
6.0
 40
6.0
 40
6.0
 40
7.0
 40
7.0
 40
7.0
 40
8.0
 40
8.0
 40
8.0
 40
9.0
 40
9.0
 40
9.0
 40
10.0
 40
10.0
 40
10.0
 40
11.0
 40
11.0
 40
11.0
 40
12.0
 40
12.0
 40
12.0
 40
13.0
 40
13.0
 40
13.0
 40
14.0
 40
14.0
 40
14.0
 40
15.0
 40
15.0
 40
15.0
 40
16.0
 40
16.0
 40
16.0
 40
17.0
 40
17.0
 40
17.0
 40
18.0
 40
18.0
 40
18.0
 40
19.0
 40
19.0
 40
19.0
 40
20.0
 40
20.0
 40
20.0
 40
21.0
 40
21.0
 40
21.0
 40
22.0
 40
22.0
 40
22.0
 40
23.0
 40
23.0
 40
23.0
 40
24.0
 40
24.0
 40
24.0
 40
25.0
 40
25.0
 40
25.0
 40
26.0
 40
26.0
 40
26.0
 40
27.0
 40
27.0
 40
27.0
 40
28.0
 40
28.0
 40
28.0
 40
29.0
 40
29.0
 40
29.0
 40
30.0
 40
30.0
 40
30.0
 40
31.0
 40
31.0
 40
31.0
 40
32.0
 40
32.0
 40
32.0
 40
33.0
 40
33.0
 40
33.0
 40
34.0
 40
34.0
 40
34.0
 40
35.0
 40
35.0
 40
35.0
 40
36.0
 40
36.0
 40
36.0
 40
37.0
 40
37.0
 40
37.0
 40
38.0
 40
38.0
 40
38.0
 40
39.0
 40
39.0
 40
39.0
 40
40.0
 40
40.0
 40
40.0
 40
41.0
 40
41.0
 40
41.0
 40
42.0
 40
42.0
 40
42.0
 40
43.0
 40
43.0
 40
43.0
 40
44.0
 40
44.0
 40
44.0
 40
45.0
 40
45.0
 40
45.0
 40
46.0
 40
46.0
 40
46.0
 40
47.0
 40
47.0
 40
47.0
 40
48.0
 40
48.0
 40
48.0
 40
49.0
 40
49.0
 40
49.0
 40
50.0
 40
50.0
 40
50.0
 40
51.0
 40
51.0
 40
51.0
 40
52.0
 40
52.0
 40
52.0
 40
53.0
 40
53.0
 40
53.0
 40
54.0
 40
54.0
 40
54.0
 40
55.0
 40
55.0
 40
55.0
 40
55.0
 10
126.360235960634
 20
-90.37690414407237
 30
0.0
 10
131.2918944116215
 20
-91.8235046992662
 30
0.0
 10
135.7071182221752
 20
-90.572589977357
 30
0.0
 10
137.4580971878578
 20
-88.68053692227446
 30
0.0
 10
134.9793729629637
 20
-92.16044275473756
 30
0.0
 10
131.6395199926149
 20
-93.78822997655283
 30
0.0
 10
129.9334867028061
 20
-96.97219053131255
 30
0.0
 10
131.6577586032607
 20
-96.23220386483086
 30
0.0
 10
133.4359702245615
 20
-95.62345053164981
 30
0.0
 10
135.21827406798
 20
-95.04948108734871
 30
0.0
 10
137.2610337380871
 20
-94.38939858751363
 30
0.0
 10
139.3181161856065
 20
-93.77962219877745
 30
0.0
 10
141.3087000237114
 20
-93.02171442118913
 30
0.0
 10
143.2932160841933
 20
-92.26101969915688
 30
0.0
 10
145.2273221859153
 20
-91.34877164382938
 30
0.0
 10
146.8296388521812
 20
-90.00034914416655
 30
0.0
 10
146.8296388521812
 20
-90.00034914416655
 30
0.0
 10
146.9967123785981
 20
-89.86668164420007
 30
0.0
 10
146.9967123785981
 20
-89.86668164420007
 30
0.0
 10
147.0032387673205
 20
-89.57765081093895
 30
0.0
 10
147.000487100724
 20
-89.62485247759368
 30
0.0
 10
146.9986194076949
 20
-89.33613914433249
 30
0.0
 10
146.9815429345407
 20
-87.44271025591706
 30
0.0
 10
146.8117157166511
 20
-85.55376164527839
 30
0.0
 10
146.5829393335988
 20
-83.67412636797029
 30
0.0
 10
146.3514465617269
 20
-81.79449109066252
 30
0.0
 10
146.0534551804404
 20
-79.9231108133527
 30
0.0
 10
145.7132363002312
 20
-78.06002081381834
 30
0.0
 10
145.3713240867319
 20
-76.19827136983936
 30
0.0
 10
144.6344066055322
 20
-72.48514414854526
 30
0.0
 10
144.6344066055322
 20
-72.48514414854526
 30
0.0
 10
143.7372927395306
 20
-71.27938498218022
 30
0.0
 10
142.9930022029635
 20
-69.96680470473065
 30
0.0
 10
142.4068266623625
 20
-68.5916769272966
 30
0.0
 10
142.0316475052674
 20
-67.69216414974377
 30
0.0
 10
141.7251894575303
 20
-66.76527581664206
 30
0.0
 10
141.5000466854964
 20
-65.82025470576731
 30
0.0
 10
141.2711291913366
 20
-64.87664470600298
 30
0.0
 10
141.1345336392658
 20
-63.9115152618
 30
0.0
 10
141.1038772511591
 20
-62.94603303981894
 30
0.0
 10
141.3364283563373
 20
-64.86355665045085
 30
0.0
 10
141.9065877862358
 20
-66.72064942776422
 30
0.0
 10
142.7509613758051
 20
-68.43631359400196
 30
0.0
 10
143.4267444085879
 20
-69.83620637142985
 30
0.0
 10
145.004752707195
 20
-72.16887887084661
 30
0.0
 10
145.9404604611009
 20
-73.15143553726773
 30
0.0
 10
146.5936305189075
 20
-73.83769414820739
 30
0.0
 10
147.2864487600952
 20
-74.4853588702677
 30
0.0
 10
148.0443565185371
 20
-75.03692692568512
 30
0.0
 10
148.8021231658716
 20
-75.58436748110388
 30
0.0
 10
149.6277289781419
 20
-76.04290803654472
 30
0.0
 10
150.4995134003453
 20
-76.29577914759267
 30
0.0
 10
150.9344531114713
 20
-76.41875748089535
 30
0.0
 10
151.3785297668086
 20
-76.49421664754306
 30
0.0
 10
151.8158683667623
 20
-76.48592636976727
 30
0.0
 10
152.2854508547823
 20
-76.4738966475481
 30
0.0
 10
152.7517525095526
 20
-76.44080609200094
 30
0.0
 10
153.2181952754304
 20
-76.38224498090442
 30
0.0
 10
154.1485408072509
 20
-76.26685136982232
 30
0.0
 10
155.0602971834575
 20
-76.04393109210017
 30
0.0
 10
155.926046873014
 20
-75.70357109218534
 30
0.0
 10
156.7938801842071
 20
-75.36836164782463
 30
0.0
 10
157.6129596077551
 20
-74.91119692571667
 30
0.0
 10
158.3749971826284
 20
-74.36481470363087
 30
0.0
 10
159.1389351243797
 20
-73.81977303710076
 30
0.0
 10
159.8417389953386
 20
-73.18382053725968
 30
0.0
 10
160.5212971820921
 20
-72.5185874818705
 30
0.0
 10
161.1991220162644
 20
-71.85056748203739
 30
0.0
 10
161.8443878331357
 20
-71.14173109332582
 30
0.0
 10
162.4812222613331
 20
-70.4218880379502
 30
0.0
 10
162.4812222613331
 20
-70.4218880379502
 30
0.0
 10
163.4282541816168
 20
-69.33737859377686
 30
0.0
 10
163.4282541816168
 20
-69.33737859377686
 30
0.0
 10
163.7290325072766
 20
-68.97994414942167
 30
0.0
 10
164.0158408332929
 20
-68.59961442729463
 30
0.0
 10
164.2836721811512
 20
-68.21046526072516
 30
0.0
 10
165.3509635770088
 20
-66.64434359444995
 30
0.0
 10
166.1530038343248
 20
-64.89163776155495
 30
0.0
 10
166.7415782637535
 20
-63.07073998423227
 30
0.0
 10
166.7968938178978
 20
-62.90073637316374
 30
0.0
 10
166.8488932610157
 20
-62.72932165098448
 30
0.0
 10
166.900751593026
 20
-62.55794220658275
 30
0.0
 10
166.9012832916079
 20
-62.53501165103307
 30
0.0
 10
167.7752876818258
 20
-58.65032859644867
 30
0.0
 10
167.8488444024827
 20
-57.4266483189767
 30
0.0
 10
167.8824262902036
 20
-58.39265970762407
 30
0.0
 10
167.8043944024937
 20
-59.3620930407149
 30
0.0
 10
167.6693485178619
 20
-60.32136637380858
 30
0.0
 10
167.5992515752058
 20
-60.81987665146165
 30
0.0
 10
167.4411013014627
 20
-61.42347942908861
 30
0.0
 10
167.4119971355386
 20
-61.81068831788071
 30
0.0
 10
167.3830693584988
 20
-62.19793248445066
 30
0.0
 10
167.5041426887433
 20
-63.31309831750497
 30
0.0
 10
167.5284490770121
 20
-63.66813387297184
 30
0.0
 10
167.5768527358838
 20
-64.37093776168493
 30
0.0
 10
167.6033790751005
 20
-64.99877637263909
 30
0.0
 10
167.624581019004
 20
-65.71897220579247
 30
0.0
 10
167.6672671290261
 20
-67.14334776099182
 30
0.0
 10
167.7773690706616
 20
-68.56652387174715
 30
0.0
 10
167.9635651770224
 20
-69.97971637139389
 30
0.0
 10
168.3387443341175
 20
-72.80243248179936
 30
0.0
 10
169.0098360688582
 20
-75.6022885922105
 30
0.0
 10
170.1587601210184
 20
-78.21192692489137
 30
0.0
 10
171.3008075918823
 20
-80.81228720201916
 30
0.0
 10
172.9734328269878
 20
-83.22352331252748
 30
0.0
 10
175.2382308247636
 20
-84.97464164542286
 30
0.0
 10
175.2936874900155
 20
-85.0180685898567
 30
0.0
 10
175.3508727663343
 20
-85.05906136762405
 30
0.0
 10
175.4073877648925
 20
-85.1014299787246
 30
0.0
 10
176.2758913538462
 20
-85.73050331190062
 30
0.0
 10
177.697341622242
 20
-86.49257386726575
 30
0.0
 10
177.6797704846969
 20
-86.50428608948498
 30
0.0
 10
178.097671029591
 20
-86.71203692276629
 30
0.0
 10
178.5244968520351
 20
-86.90183136716345
 30
0.0
 10
178.960318507583
 20
-87.06925970045477
 30
0.0
 10
179.7905809864012
 20
-87.38933497815279
 30
0.0
 10
180.4582481915899
 20
-87.48716025590602
 30
0.0
 10
181.1886040062903
 20
-87.47647108924191
 30
0.0
 10
181.1441540074243
 20
-87.45304664480342
 30
0.0
 10
180.9402131792939
 20
-87.20190414486612
 30
0.0
 10
180.8947401248985
 20
-87.17985553376053
 30
0.0
 10
179.5463176592996
 20
-85.6464363674772
 30
0.0
 10
178.0490935308303
 20
-83.90082136791366
 30
0.0
 10
176.8146916224631
 20
-80.46984581321594
 30
0.0
 10
176.8146916224631
 20
-80.46984581321594
 30
0.0
 10
176.8146916224631
 20
-80.46434247988408
 30
0.0
 10
176.8146916224631
 20
-80.46434247988408
 30
0.0
 10
176.8146916224631
 20
-80.4481499798881
 30
0.0
 10
176.8091855069074
 20
-80.42645414655993
 30
0.0
 10
176.8091855069074
 20
-80.40990886878652
 30
0.0
 10
180.7514065174441
 20
-72.56370775963683
 30
0.0
 10
182.0292028737337
 20
-56.00107331933303
 30
0.0
 10
179.0167982283643
 20
-49.59575776537889
 30
0.0
 10
175.9444566400796
 20
-43.06524137812262
 30
0.0
 10
172.562411448585
 20
-35.8498422132599
 30
0.0
 10
171.4806536984051
 20
-32.53842304742108
 30
0.0
 10
171.3934823117402
 20
-32.27193471415437
 30
0.0
 10
171.3228562024309
 20
-32.02714221421549
 30
0.0
 10
171.2684578704854
 20
-31.81529915871274
 30
0.0
 10
169.0900904260602
 20
-25.46907388252177
 30
0.0
 10
158.4725026413819
 20
-16.36747777368581
 30
0.0
 10
154.6734035716383
 20
-21.08348166139566
 30
0.0
 10
154.6313877393769
 20
-21.13548110582737
 30
0.0
 10
152.2212100230878
 20
-27.92835832635138
 30
0.0
 10
152.1808875241165
 20
-27.98381499300405
 30
0.0
 10
152.1808875241165
 20
-27.98381499300405
 30
0.0
 10
154.2413919159931
 20
-21.19439499470134
 30
0.0
 10
154.1433902518267
 20
-21.10775277250071
 30
0.0
 10
152.9858205591366
 20
-20.08370943942344
 30
0.0
 10
145.2913846443269
 20
-13.98347610761536
 30
0.0
 10
137.9528309426601
 20
-25.5729316602735
 30
0.0
 10
129.992400590192
 20
-38.14444999046396
 30
0.0
 10
124.4027426772405
 20
-52.66792304238853
 30
0.0
 10
131.6672499670831
 20
-70.54641859347464
 30
0.0
 10
132.7927505187491
 20
-73.31956942611457
 30
0.0
 10
133.5484357772478
 20
-75.67944109219134
 30
0.0
 10
133.9780485440652
 20
-77.69105053613278
 30
0.0
 10
133.385311336965
 20
-82.07939442392465
 30
0.0
 10
131.378887777042
 20
-85.86935664519935
 30
0.0
 10
127.7413962031755
 20
-87.96259886689836
 30
0.0
 10
130.6883252946597
 20
-87.10372608933513
 30
0.0
 10
132.7438202422197
 20
-85.67882136746915
 30
0.0
 10
134.1520032618495
 20
-84.00968859010877
 30
0.0
 10
133.2385557851535
 20
-87.625660811427
 30
0.0
 10
130.1827610785654
 20
-89.12634219994061
 30
0.0
 10
126.360235960634
 20
-90.37690414407237
 30
0.0
  0
SPLINE
  5
5F
330
55
100
AcDbEntity
  8
_Camada__0
370
     0
100
AcDbSpline
210
0.0
220
0.0
230
1.0
 70
    11
 71
     3
 72
    14
 73
    10
 74
     0
 42
0.0000000001
 43
0.0000000001
 12
1.0
 22
0.0
 32
0.0
 13
1.0
 23
0.0
 33
0.0
 40
0.0
 40
0.0
 40
0.0
 40
0.0
 40
1.0
 40
1.0
 40
1.0
 40
2.0
 40
2.0
 40
2.0
 40
3.0
 40
3.0
 40
3.0
 40
3.0
 10
175.803204421461
 20
-71.52516525989638
 30
0.0
 10
176.2383205214714
 20
-67.04467581657201
 30
0.0
 10
176.3361810745303
 20
-63.33634637305489
 30
0.0
 10
176.2166246886916
 20
-60.15531387385015
 30
0.0
 10
177.526806044155
 20
-66.43574609450208
 30
0.0
 10
177.9726113105593
 20
-73.04221553729485
 30
0.0
 10
176.4395449607822
 20
-79.29541331350957
 30
0.0
 10
175.813893587855
 20
-77.13119220293957
 30
0.0
 10
175.509693317838
 20
-74.55908942580477
 30
0.0
 10
175.803204421461
 20
-71.52516525989638
 30
0.0
  0
HATCH
  5
60
330
55
100
AcDbEntity
  8
_Camada__0
 62
   250
420
  1842203
100
AcDbHatch
 10
0.0
 20
0.0
 30
0.0
210
0.0
220
0.0
230
1.0
  2
SOLID
 70
     1
 71
     0
 91
        2
 92
        1
 93
        1
 72
     4
 94
        3
 73
     0
 74
     1
 95
      170
 96
      166
 40
0.0
 40
0.0
 40
0.0
 40
0.0
 40
1.0
 40
1.0
 40
1.0
 40
2.0
 40
2.0
 40
2.0
 40
3.0
 40
3.0
 40
3.0
 40
4.0
 40
4.0
 40
4.0
 40
5.0
 40
5.0
 40
5.0
 40
6.0
 40
6.0
 40
6.0
 40
7.0
 40
7.0
 40
7.0
 40
8.0
 40
8.0
 40
8.0
 40
9.0
 40
9.0
 40
9.0
 40
10.0
 40
10.0
 40
10.0
 40
11.0
 40
11.0
 40
11.0
 40
12.0
 40
12.0
 40
12.0
 40
13.0
 40
13.0
 40
13.0
 40
14.0
 40
14.0
 40
14.0
 40
15.0
 40
15.0
 40
15.0
 40
16.0
 40
16.0
 40
16.0
 40
17.0
 40
17.0
 40
17.0
 40
18.0
 40
18.0
 40
18.0
 40
19.0
 40
19.0
 40
19.0
 40
20.0
 40
20.0
 40
20.0
 40
21.0
 40
21.0
 40
21.0
 40
22.0
 40
22.0
 40
22.0
 40
23.0
 40
23.0
 40
23.0
 40
24.0
 40
24.0
 40
24.0
 40
25.0
 40
25.0
 40
25.0
 40
26.0
 40
26.0
 40
26.0
 40
27.0
 40
27.0
 40
27.0
 40
28.0
 40
28.0
 40
28.0
 40
29.0
 40
29.0
 40
29.0
 40
30.0
 40
30.0
 40
30.0
 40
31.0
 40
31.0
 40
31.0
 40
32.0
 40
32.0
 40
32.0
 40
33.0
 40
33.0
 40
33.0
 40
34.0
 40
34.0
 40
34.0
 40
35.0
 40
35.0
 40
35.0
 40
36.0
 40
36.0
 40
36.0
 40
37.0
 40
37.0
 40
37.0
 40
38.0
 40
38.0
 40
38.0
 40
39.0
 40
39.0
 40
39.0
 40
40.0
 40
40.0
 40
40.0
 40
41.0
 40
41.0
 40
41.0
 40
42.0
 40
42.0
 40
42.0
 40
43.0
 40
43.0
 40
43.0
 40
44.0
 40
44.0
 40
44.0
 40
45.0
 40
45.0
 40
45.0
 40
46.0
 40
46.0
 40
46.0
 40
47.0
 40
47.0
 40
47.0
 40
48.0
 40
48.0
 40
48.0
 40
49.0
 40
49.0
 40
49.0
 40
50.0
 40
50.0
 40
50.0
 40
51.0
 40
51.0
 40
51.0
 40
52.0
 40
52.0
 40
52.0
 40
53.0
 40
53.0
 40
53.0
 40
54.0
 40
54.0
 40
54.0
 40
55.0
 40
55.0
 40
55.0
 40
55.0
 10
126.360235960634
 20
-90.37690414407237
 10
131.2918944116215
 20
-91.8235046992662
 10
135.7071182221752
 20
-90.572589977357
 10
137.4580971878578
 20
-88.68053692227446
 10
134.9793729629637
 20
-92.16044275473756
 10
131.6395199926149
 20
-93.78822997655283
 10
129.9334867028061
 20
-96.97219053131255
 10
131.6577586032607
 20
-96.23220386483086
 10
133.4359702245615
 20
-95.62345053164981
 10
135.21827406798
 20
-95.04948108734871
 10
137.2610337380871
 20
-94.38939858751363
 10
139.3181161856065
 20
-93.77962219877745
 10
141.3087000237114
 20
-93.02171442118913
 10
143.2932160841933
 20
-92.26101969915688
 10
145.2273221859153
 20
-91.34877164382938
 10
146.8296388521812
 20
-90.00034914416655
 10
146.8296388521812
 20
-90.00034914416655
 10
146.9967123785981
 20
-89.86668164420007
 10
146.9967123785981
 20
-89.86668164420007
 10
147.0032387673205
 20
-89.57765081093895
 10
147.000487100724
 20
-89.62485247759368
 10
146.9986194076949
 20
-89.33613914433249
 10
146.9815429345407
 20
-87.44271025591706
 10
146.8117157166511
 20
-85.55376164527839
 10
146.5829393335988
 20
-83.67412636797029
 10
146.3514465617269
 20
-81.79449109066252
 10
146.0534551804404
 20
-79.9231108133527
 10
145.7132363002312
 20
-78.06002081381834
 10
145.3713240867319
 20
-76.19827136983936
 10
144.6344066055322
 20
-72.48514414854526
 10
144.6344066055322
 20
-72.48514414854526
 10
143.7372927395306
 20
-71.27938498218022
 10
142.9930022029635
 20
-69.96680470473065
 10
142.4068266623625
 20
-68.5916769272966
 10
142.0316475052674
 20
-67.69216414974377
 10
141.7251894575303
 20
-66.76527581664206
 10
141.5000466854964
 20
-65.82025470576731
 10
141.2711291913366
 20
-64.87664470600298
 10
141.1345336392658
 20
-63.9115152618
 10
141.1038772511591
 20
-62.94603303981894
 10
141.3364283563373
 20
-64.86355665045085
 10
141.9065877862358
 20
-66.72064942776422
 10
142.7509613758051
 20
-68.43631359400196
 10
143.4267444085879
 20
-69.83620637142985
 10
145.004752707195
 20
-72.16887887084661
 10
145.9404604611009
 20
-73.15143553726773
 10
146.5936305189075
 20
-73.83769414820739
 10
147.2864487600952
 20
-74.4853588702677
 10
148.0443565185371
 20
-75.03692692568512
 10
148.8021231658716
 20
-75.58436748110388
 10
149.6277289781419
 20
-76.04290803654472
 10
150.4995134003453
 20
-76.29577914759267
 10
150.9344531114713
 20
-76.41875748089535
 10
151.3785297668086
 20
-76.49421664754306
 10
151.8158683667623
 20
-76.48592636976727
 10
152.2854508547823
 20
-76.4738966475481
 10
152.7517525095526
 20
-76.44080609200094
 10
153.2181952754304
 20
-76.38224498090442
 10
154.1485408072509
 20
-76.26685136982232
 10
155.0602971834575
 20
-76.04393109210017
 10
155.926046873014
 20
-75.70357109218534
 10
156.7938801842071
 20
-75.36836164782463
 10
157.6129596077551
 20
-74.91119692571667
 10
158.3749971826284
 20
-74.36481470363087
 10
159.1389351243797
 20
-73.81977303710076
 10
159.8417389953386
 20
-73.18382053725968
 10
160.5212971820921
 20
-72.5185874818705
 10
161.1991220162644
 20
-71.85056748203739
 10
161.8443878331357
 20
-71.14173109332582
 10
162.4812222613331
 20
-70.4218880379502
 10
162.4812222613331
 20
-70.4218880379502
 10
163.4282541816168
 20
-69.33737859377686
 10
163.4282541816168
 20
-69.33737859377686
 10
163.7290325072766
 20
-68.97994414942167
 10
164.0158408332929
 20
-68.59961442729463
 10
164.2836721811512
 20
-68.21046526072516
 10
165.3509635770088
 20
-66.64434359444995
 10
166.1530038343248
 20
-64.89163776155495
 10
166.7415782637535
 20
-63.07073998423227
 10
166.7968938178978
 20
-62.90073637316374
 10
166.8488932610157
 20
-62.72932165098448
 10
166.900751593026
 20
-62.55794220658275
 10
166.9012832916079
 20
-62.53501165103307
 10
167.7752876818258
 20
-58.65032859644867
 10
167.8488444024827
 20
-57.4266483189767
 10
167.8824262902036
 20
-58.39265970762407
 10
167.8043944024937
 20
-59.3620930407149
 10
167.6693485178619
 20
-60.32136637380858
 10
167.5992515752058
 20
-60.81987665146165
 10
167.4411013014627
 20
-61.42347942908861
 10
167.4119971355386
 20
-61.81068831788071
 10
167.3830693584988
 20
-62.19793248445066
 10
167.5041426887433
 20
-63.31309831750497
 10
167.5284490770121
 20
-63.66813387297184
 10
167.5768527358838
 20
-64.37093776168493
 10
167.6033790751005
 20
-64.99877637263909
 10
167.624581019004
 20
-65.71897220579247
 10
167.6672671290261
 20
-67.14334776099182
 10
167.7773690706616
 20
-68.56652387174715
 10
167.9635651770224
 20
-69.97971637139389
 10
168.3387443341175
 20
-72.80243248179936
 10
169.0098360688582
 20
-75.6022885922105
 10
170.1587601210184
 20
-78.21192692489137
 10
171.3008075918823
 20
-80.81228720201916
 10
172.9734328269878
 20
-83.22352331252748
 10
175.2382308247636
 20
-84.97464164542286
 10
175.2936874900155
 20
-85.0180685898567
 10
175.3508727663343
 20
-85.05906136762405
 10
175.4073877648925
 20
-85.1014299787246
 10
176.2758913538462
 20
-85.73050331190062
 10
177.697341622242
 20
-86.49257386726575
 10
177.6797704846969
 20
-86.50428608948498
 10
178.097671029591
 20
-86.71203692276629
 10
178.5244968520351
 20
-86.90183136716345
 10
178.960318507583
 20
-87.06925970045477
 10
179.7905809864012
 20
-87.38933497815279
 10
180.4582481915899
 20
-87.48716025590602
 10
181.1886040062903
 20
-87.47647108924191
 10
181.1441540074243
 20
-87.45304664480342
 10
180.9402131792939
 20
-87.20190414486612
 10
180.8947401248985
 20
-87.17985553376053
 10
179.5463176592996
 20
-85.6464363674772
 10
178.0490935308303
 20
-83.90082136791366
 10
176.8146916224631
 20
-80.46984581321594
 10
176.8146916224631
 20
-80.46984581321594
 10
176.8146916224631
 20
-80.46434247988408
 10
176.8146916224631
 20
-80.46434247988408
 10
176.8146916224631
 20
-80.4481499798881
 10
176.8091855069074
 20
-80.42645414655993
 10
176.8091855069074
 20
-80.40990886878652
 10
180.7514065174441
 20
-72.56370775963683
 10
182.0292028737337
 20
-56.00107331933303
 10
179.0167982283643
 20
-49.59575776537889
 10
175.9444566400796
 20
-43.06524137812262
 10
172.562411448585
 20
-35.8498422132599
 10
171.4806536984051
 20
-32.53842304742108
 10
171.3934823117402
 20
-32.27193471415437
 10
171.3228562024309
 20
-32.02714221421549
 10
171.2684578704854
 20
-31.81529915871274
 10
169.0900904260602
 20
-25.46907388252177
 10
158.4725026413819
 20
-16.36747777368581
 10
154.6734035716383
 20
-21.08348166139566
 10
154.6313877393769
 20
-21.13548110582737
 10
152.2212100230878
 20
-27.92835832635138
 10
152.1808875241165
 20
-27.98381499300405
 10
152.1808875241165
 20
-27.98381499300405
 10
154.2413919159931
 20
-21.19439499470134
 10
154.1433902518267
 20
-21.10775277250071
 10
152.9858205591366
 20
-20.08370943942344
 10
145.2913846443269
 20
-13.98347610761536
 10
137.9528309426601
 20
-25.5729316602735
 10
129.992400590192
 20
-38.14444999046396
 10
124.4027426772405
 20
-52.66792304238853
 10
131.6672499670831
 20
-70.54641859347464
 10
132.7927505187491
 20
-73.31956942611457
 10
133.5484357772478
 20
-75.67944109219134
 10
133.9780485440652
 20
-77.69105053613278
 10
133.385311336965
 20
-82.07939442392465
 10
131.378887777042
 20
-85.86935664519935
 10
127.7413962031755
 20
-87.96259886689836
 10
130.6883252946597
 20
-87.10372608933513
 10
132.7438202422197
 20
-85.67882136746915
 10
134.1520032618495
 20
-84.00968859010877
 10
133.2385557851535
 20
-87.625660811427
 10
130.1827610785654
 20
-89.12634219994061
 10
126.360235960634
 20
-90.37690414407237
 97
        0
 97
        0
 92
        1
 93
        1
 72
     4
 94
        3
 73
     0
 74
     1
 95
       14
 96
       10
 40
0.0
 40
0.0
 40
0.0
 40
0.0
 40
1.0
 40
1.0
 40
1.0
 40
2.0
 40
2.0
 40
2.0
 40
3.0
 40
3.0
 40
3.0
 40
3.0
 10
175.803204421461
 20
-71.52516525989638
 10
176.2383205214714
 20
-67.04467581657201
 10
176.3361810745303
 20
-63.33634637305489
 10
176.2166246886916
 20
-60.15531387385015
 10
177.526806044155
 20
-66.43574609450208
 10
177.9726113105593
 20
-73.04221553729485
 10
176.4395449607822
 20
-79.29541331350957
 10
175.813893587855
 20
-77.13119220293957
 10
175.509693317838
 20
-74.55908942580477
 10
175.803204421461
 20
-71.52516525989638
 97
        0
 97
        0
 75
     2
 76
     1
 98
        0
  0
SPLINE
  5
61
330
55
100
AcDbEntity
  8
_Camada__0
370
     0
100
AcDbSpline
210
0.0
220
0.0
230
1.0
 70
    11
 71
     3
 72
   188
 73
   184
 74
     0
 42
0.0000000001
 43
0.0000000001
 12
1.0
 22
0.0
 32
0.0
 13
1.0
 23
0.0
 33
0.0
 40
0.0
 40
0.0
 40
0.0
 40
0.0
 40
1.0
 40
1.0
 40
1.0
 40
2.0
 40
2.0
 40
2.0
 40
3.0
 40
3.0
 40
3.0
 40
4.0
 40
4.0
 40
4.0
 40
5.0
 40
5.0
 40
5.0
 40
6.0
 40
6.0
 40
6.0
 40
7.0
 40
7.0
 40
7.0
 40
8.0
 40
8.0
 40
8.0
 40
9.0
 40
9.0
 40
9.0
 40
10.0
 40
10.0
 40
10.0
 40
11.0
 40
11.0
 40
11.0
 40
12.0
 40
12.0
 40
12.0
 40
13.0
 40
13.0
 40
13.0
 40
14.0
 40
14.0
 40
14.0
 40
15.0
 40
15.0
 40
15.0
 40
16.0
 40
16.0
 40
16.0
 40
17.0
 40
17.0
 40
17.0
 40
18.0
 40
18.0
 40
18.0
 40
19.0
 40
19.0
 40
19.0
 40
20.0
 40
20.0
 40
20.0
 40
21.0
 40
21.0
 40
21.0
 40
22.0
 40
22.0
 40
22.0
 40
23.0
 40
23.0
 40
23.0
 40
24.0
 40
24.0
 40
24.0
 40
25.0
 40
25.0
 40
25.0
 40
26.0
 40
26.0
 40
26.0
 40
27.0
 40
27.0
 40
27.0
 40
28.0
 40
28.0
 40
28.0
 40
29.0
 40
29.0
 40
29.0
 40
30.0
 40
30.0
 40
30.0
 40
31.0
 40
31.0
 40
31.0
 40
32.0
 40
32.0
 40
32.0
 40
33.0
 40
33.0
 40
33.0
 40
34.0
 40
34.0
 40
34.0
 40
35.0
 40
35.0
 40
35.0
 40
36.0
 40
36.0
 40
36.0
 40
37.0
 40
37.0
 40
37.0
 40
38.0
 40
38.0
 40
38.0
 40
39.0
 40
39.0
 40
39.0
 40
40.0
 40
40.0
 40
40.0
 40
41.0
 40
41.0
 40
41.0
 40
42.0
 40
42.0
 40
42.0
 40
43.0
 40
43.0
 40
43.0
 40
44.0
 40
44.0
 40
44.0
 40
45.0
 40
45.0
 40
45.0
 40
46.0
 40
46.0
 40
46.0
 40
47.0
 40
47.0
 40
47.0
 40
48.0
 40
48.0
 40
48.0
 40
49.0
 40
49.0
 40
49.0
 40
50.0
 40
50.0
 40
50.0
 40
51.0
 40
51.0
 40
51.0
 40
52.0
 40
52.0
 40
52.0
 40
53.0
 40
53.0
 40
53.0
 40
54.0
 40
54.0
 40
54.0
 40
55.0
 40
55.0
 40
55.0
 40
56.0
 40
56.0
 40
56.0
 40
57.0
 40
57.0
 40
57.0
 40
58.0
 40
58.0
 40
58.0
 40
59.0
 40
59.0
 40
59.0
 40
60.0
 40
60.0
 40
60.0
 40
61.0
 40
61.0
 40
61.0
 40
61.0
 10
170.9094712129772
 20
-168.9871171799753
 30
0.0
 10
170.372719837782
 20
-170.1915005130077
 30
0.0
 10
169.7333101318725
 20
-171.3610999571596
 30
0.0
 10
168.9540240406426
 20
-172.437707179113
 30
0.0
 10
168.1787243381999
 20
-173.516007734399
 30
0.0
 10
167.2559282506313
 20
-174.4858291230451
 30
0.0
 10
166.2542888473256
 20
-175.3319313450558
 30
0.0
 10
165.2545166253531
 20
-176.1835721781762
 30
0.0
 10
164.190677495499
 20
-176.9221830113247
 30
0.0
 10
163.1693505771108
 20
-177.6932141222433
 30
0.0
 10
162.1461916261303
 20
-178.461458288718
 30
0.0
 10
161.166913405975
 20
-179.2779624551807
 30
0.0
 10
160.2920245394064
 20
-180.2056974549483
 30
0.0
 10
158.530219404812
 20
-182.0540060655977
 30
0.0
 10
157.2160846178802
 20
-184.3067391205897
 30
0.0
 10
156.1913357551348
 20
-186.6649174533337
 30
0.0
 10
157.0971985098021
 20
-184.259537453935
 30
0.0
 10
158.3005940346565
 20
-181.9258418989628
 30
0.0
 10
160.0050398245058
 20
-179.9473230105688
 30
0.0
 10
160.8499425807283
 20
-178.956158566372
 30
0.0
 10
161.8137314450289
 20
-178.0680405110385
 30
0.0
 10
162.8088469751969
 20
-177.2394713445788
 30
0.0
 10
163.8029041720586
 20
-176.4088560670089
 30
0.0
 10
164.8197508127834
 20
-175.6233963449828
 30
0.0
 10
165.7395860696762
 20
-174.7562685674222
 30
0.0
 10
166.6625207657704
 20
-173.8929155120826
 30
0.0
 10
167.4805444025742
 20
-172.9396746789874
 30
0.0
 10
168.1583690609415
 20
-171.8906194014717
 30
0.0
 10
168.8389479324674
 20
-170.8443510684
 30
0.0
 10
169.3863884740565
 20
-169.7129927353494
 30
0.0
 10
169.8397431847127
 20
-168.5416646800869
 30
0.0
 10
170.2394051189609
 20
-167.5008996803473
 30
0.0
 10
170.9549442673727
 20
-167.330014124834
 30
0.0
 10
170.8453714923903
 20
-165.3473677364408
 30
0.0
 10
170.7361867729537
 20
-163.3650388480478
 30
0.0
 10
174.2422360675509
 20
-150.1968674624508
 30
0.0
 10
176.4340063498124
 20
-147.0628602410122
 30
0.0
 10
175.472475263232
 20
-146.0169446857182
 30
0.0
 10
174.3097550151177
 20
-145.0709005192877
 30
0.0
 10
173.6521066985623
 20
-144.5631121860816
 30
0.0
 10
173.5783761448878
 20
-144.6433691305056
 30
0.0
 10
173.5070797578178
 20
-144.7260602415965
 30
0.0
 10
173.4326436486057
 20
-144.8059644082427
 30
0.0
 10
170.3362073387135
 20
-148.1535785740729
 30
0.0
 10
167.3398188040466
 20
-151.5914332954357
 30
0.0
 10
164.3567299912627
 20
-155.0485849612377
 30
0.0
 10
164.3567299912627
 20
-155.0485849612377
 30
0.0
 10
163.2341205754584
 20
-156.3456782942471
 30
0.0
 10
163.2341205754584
 20
-156.3456782942471
 30
0.0
 10
162.8561897517669
 20
-156.7749382941398
 30
0.0
 10
162.4836211501608
 20
-157.2145346829183
 30
0.0
 10
162.0627925497859
 20
-157.6365627383688
 30
0.0
 10
161.2204650712755
 20
-158.4840407937124
 30
0.0
 10
160.2717045399248
 20
-159.202331626866
 30
0.0
 10
159.2547167880926
 20
-159.8055816267155
 30
0.0
 10
157.9443590437448
 20
-160.5786588487443
 30
0.0
 10
156.5328951908654
 20
-161.1550271819334
 30
0.0
 10
155.0706313392819
 20
-161.5439646818365
 30
0.0
 10
155.0706313392819
 20
-161.5439646818365
 30
0.0
 10
154.5890191293467
 20
-161.7300196817897
 30
0.0
 10
154.3377002468694
 20
-161.7251866262355
 30
0.0
 10
153.7633780392994
 20
-161.8516221817591
 30
0.0
 10
153.1825647207839
 20
-161.9498002372901
 30
0.0
 10
152.5982610729615
 20
-162.019756070606
 30
0.0
 10
152.0119069728721
 20
-162.0869249594786
 30
0.0
 10
151.4203692101856
 20
-162.1234374594692
 30
0.0
 10
150.8202610734064
 20
-162.1113724594721
 30
0.0
 10
150.6726214514845
 20
-162.1062219039177
 30
0.0
 10
150.5299933995677
 20
-162.0979316261423
 30
0.0
 10
150.3851428477076
 20
-162.0910524594772
 30
0.0
 10
150.355862292899
 20
-162.8606724592848
 30
0.0
 10
150.2762777402086
 20
-163.5965669035456
 30
0.0
 10
150.1799694068996
 20
-164.3434680144696
 30
0.0
 10
150.0578356338357
 20
-165.2529644031313
 30
0.0
 10
149.8997206378695
 20
-166.1542057917951
 30
0.0
 10
149.7153942536832
 20
-167.0485327360157
 30
0.0
 10
149.3454009297892
 20
-168.8365516244576
 30
0.0
 10
148.8708442752294
 20
-170.5969832906842
 30
0.0
 10
148.3204777406976
 20
-172.3298630124731
 30
0.0
 10
147.2175512618529
 20
-175.7953049560512
 30
0.0
 10
145.8145187976473
 20
-179.1497982885457
 30
0.0
 10
144.2122021718591
 20
-182.3957418988454
 30
0.0
 10
145.6588026905088
 20
-179.0777963441196
 30
0.0
 10
146.8968057144803
 20
-175.6695396783049
 30
0.0
 10
147.8263045796557
 20
-172.18554162362
 30
0.0
 10
148.2898192900526
 20
-170.4433485685005
 30
0.0
 10
148.6755112246573
 20
-168.6829169022739
 30
0.0
 10
148.9554051064055
 20
-166.9100674582725
 30
0.0
 10
149.0947876028495
 20
-166.0239602362718
 30
0.0
 10
149.2074295444202
 20
-165.1341135698276
 30
0.0
 10
149.2840881535756
 20
-164.2445844033831
 30
0.0
 10
149.3455773186735
 20
-163.5076669035677
 30
0.0
 10
149.3870992620587
 20
-162.7521580148674
 30
0.0
 10
149.378632595608
 20
-162.0307627372704
 30
0.0
 10
149.2787259314902
 20
-162.0231780150498
 30
0.0
 10
149.1798776006787
 20
-162.0180274594953
 30
0.0
 10
149.0790889921389
 20
-162.0094196817196
 30
0.0
 10
147.9239555185745
 20
-161.912582181744
 30
0.0
 10
146.7768965508727
 20
-161.7579244040052
 30
0.0
 10
145.6390138524792
 20
-161.5594869040548
 30
0.0
 10
143.3624663602043
 20
-161.1632821819314
 30
0.0
 10
141.1243736395251
 20
-160.5824335709652
 30
0.0
 10
138.9351777430441
 20
-159.8655185711446
 30
0.0
 10
136.2418234863115
 20
-158.9829038491433
 30
0.0
 10
133.6211432753929
 20
-157.8963130160812
 30
0.0
 10
131.0879519511311
 20
-156.6381663497292
 30
0.0
 10
129.7603786516669
 20
-157.3447449606641
 30
0.0
 10
128.4179886859142
 20
-158.0237716271606
 30
0.0
 10
127.0663221904557
 20
-158.6821255158851
 30
0.0
 10
126.1778145763991
 20
-159.1134669046662
 30
0.0
 10
125.2845107103003
 20
-159.5347894045606
 30
0.0
 10
124.3889490664813
 20
-159.9516669044567
 30
0.0
 10
124.5022965635896
 20
-160.2654980154889
 30
0.0
 10
124.5968777466286
 20
-160.5731555154122
 30
0.0
 10
124.6866229477759
 20
-160.8914669042214
 30
0.0
 10
124.8154573889335
 20
-161.3565691263274
 30
0.0
 10
124.9219257195506
 20
-161.82646912621
 30
0.0
 10
125.0073684951486
 20
-162.2994735705362
 30
0.0
 10
125.1779027464833
 20
-163.2458352369663
 30
0.0
 10
125.2640143219343
 20
-164.205990514504
 30
0.0
 10
125.2579833020188
 20
-165.165793014264
 30
0.0
 10
125.2491976556456
 20
-166.1328274584669
 30
0.0
 10
125.1439640472193
 20
-167.0623263471233
 30
0.0
 10
125.047655716343
 20
-167.9979988468893
 30
0.0
 10
124.9449973856287
 20
-168.9316252355451
 30
0.0
 10
124.8237476664998
 20
-169.8601010686464
 30
0.0
 10
124.7009104474114
 20
-170.7871657906367
 30
0.0
 10
124.4559768425491
 20
-172.6409777346176
 30
0.0
 10
124.1941451825623
 20
-174.4892510674889
 30
0.0
 10
124.0449554641462
 20
-176.3471905114685
 30
0.0
 10
123.9724610801179
 20
-177.2756663445698
 30
0.0
 10
123.9280110801292
 20
-178.2072113443371
 30
0.0
 10
123.9578193552581
 20
-179.1380860663265
 30
0.0
 10
123.9934499099047
 20
-180.0651507883168
 30
0.0
 10
124.0871829630689
 20
-181.0053035658598
 30
0.0
 10
124.4208416355616
 20
-181.8817446767516
 30
0.0
 10
124.0466840752132
 20
-181.0211785658559
 30
0.0
 10
123.9076896343148
 20
-180.0768630105366
 30
0.0
 10
123.8294788029768
 20
-179.1453180107693
 30
0.0
 10
123.756101027071
 20
-178.2096102332252
 30
0.0
 10
123.7580060270224
 20
-177.2698102334605
 30
0.0
 10
123.7879583023865
 20
-176.3327266225835
 30
0.0
 10
123.8521976912861
 20
-174.4582419008298
 30
0.0
 10
124.0296449089812
 20
-172.59240023463
 30
0.0
 10
124.1891357382456
 20
-170.7310035684285
 30
0.0
 10
124.269251569535
 20
-169.8004816242162
 30
0.0
 10
124.3472860119887
 20
-168.8706652355602
 30
0.0
 10
124.406341010482
 20
-167.9421894024589
 30
0.0
 10
124.4593987869062
 20
-167.0158302360241
 30
0.0
 10
124.5198648964747
 20
-166.0804752362577
 30
0.0
 10
124.4856101751264
 20
-165.177858014261
 30
0.0
 10
124.4495915649342
 20
-164.2687144033771
 30
0.0
 10
124.3262604569695
 20
-163.3640157924926
 30
0.0
 10
124.1243657398981
 20
-162.4789669038245
 30
0.0
 10
124.0234360202508
 20
-162.0369716261574
 30
0.0
 10
123.9025038011138
 20
-161.5994213484892
 30
0.0
 10
123.7623099158015
 20
-161.1698438485962
 30
0.0
 10
123.6747857513678
 20
-160.9042021819964
 30
0.0
 10
123.5767840872014
 20
-160.634115515397
 30
0.0
 10
123.4725749691319
 20
-160.3757410710169
 30
0.0
 10
122.4672980043956
 20
-160.8373860709016
 30
0.0
 10
121.4582138585244
 20
-161.2900705152328
 30
0.0
 10
120.4464105559527
 20
-161.736546070677
 30
0.0
 10
120.4903313881655
 20
-165.1592666253767
 30
0.0
 10
120.226418339343
 20
-168.8296724577925
 30
0.0
 10
119.4600805256907
 20
-171.1998805127553
 30
0.0
 10
116.4731803795405
 20
-180.4365199548907
 30
0.0
 10
119.4271650264003
 20
-184.2288810650537
 30
0.0
 10
119.8133508498812
 20
-185.9080327313011
 30
0.0
 10
120.1995366733621
 20
-187.5871843975479
 30
0.0
 10
118.8020428201263
 20
-189.2249552304718
 30
0.0
 10
118.6172225470636
 20
-190.258170785769
 30
0.0
 10
124.6256276715542
 20
-195.5381252288934
 30
0.0
 10
133.7279291060019
 20
-200.7526041164785
 30
0.0
 10
145.3532265871936
 20
-199.3824857834879
 30
0.0
 10
160.3988103700154
 20
-197.6096363394865
 30
0.0
 10
171.7142305126269
 20
-190.7039407856576
 30
0.0
 10
179.0819210044807
 20
-184.0376755095461
 30
0.0
 10
175.3715455435847
 20
-178.3467349554136
 30
0.0
 10
172.9623908828251
 20
-172.3633063457983
 30
0.0
 10
171.4586050878565
 20
-167.6404232914231
 30
0.0
 10
171.2860262033705
 20
-168.0927549579765
 30
0.0
 10
171.1058273190789
 20
-168.542687735642
 30
0.0
 10
170.9094712129772
 20
-168.9871171799753
 30
0.0
  0
SPLINE
  5
62
330
55
100
AcDbEntity
  8
_Camada__0
370
     0
100
AcDbSpline
210
0.0
220
0.0
230
1.0
 70
    11
 71
     3
 72
    17
 73
    13
 74
     0
 42
0.0000000001
 43
0.0000000001
 12
1.0
 22
0.0
 32
0.0
 13
1.0
 23
0.0
 33
0.0
 40
0.0
 40
0.0
 40
0.0
 40
0.0
 40
1.0
 40
1.0
 40
1.0
 40
2.0
 40
2.0
 40
2.0
 40
3.0
 40
3.0
 40
3.0
 40
4.0
 40
4.0
 40
4.0
 40
4.0
 10
133.8068102151005
 20
-173.6886219010222
 30
0.0
 10
133.1019602330828
 20
-173.6886219010222
 30
0.0
 10
132.5305660809936
 20
-173.3406771788868
 30
0.0
 10
132.5305660809936
 20
-172.9114171789941
 30
0.0
 10
132.5305660809936
 20
-172.4825099568791
 30
0.0
 10
133.1019602330828
 20
-172.1345299569662
 30
0.0
 10
133.8068102151005
 20
-172.1345299569662
 30
0.0
 10
134.5116971885942
 20
-172.1345299569662
 30
0.0
 10
135.0830543492075
 20
-172.4825099568791
 30
0.0
 10
135.0830543492075
 20
-172.9114171789941
 30
0.0
 10
135.0830543492075
 20
-173.3406771788868
 30
0.0
 10
134.5116971885942
 20
-173.6886219010222
 30
0.0
 10
133.8068102151005
 20
-173.6886219010222
 30
0.0
  0
HATCH
  5
63
330
55
100
AcDbEntity
  8
_Camada__0
 62
   250
420
  1842203
100
AcDbHatch
 10
0.0
 20
0.0
 30
0.0
210
0.0
220
0.0
230
1.0
  2
SOLID
 70
     1
 71
     0
 91
        2
 92
        1
 93
        1
 72
     4
 94
        3
 73
     0
 74
     1
 95
      188
 96
      184
 40
0.0
 40
0.0
 40
0.0
 40
0.0
 40
1.0
 40
1.0
 40
1.0
 40
2.0
 40
2.0
 40
2.0
 40
3.0
 40
3.0
 40
3.0
 40
4.0
 40
4.0
 40
4.0
 40
5.0
 40
5.0
 40
5.0
 40
6.0
 40
6.0
 40
6.0
 40
7.0
 40
7.0
 40
7.0
 40
8.0
 40
8.0
 40
8.0
 40
9.0
 40
9.0
 40
9.0
 40
10.0
 40
10.0
 40
10.0
 40
11.0
 40
11.0
 40
11.0
 40
12.0
 40
12.0
 40
12.0
 40
13.0
 40
13.0
 40
13.0
 40
14.0
 40
14.0
 40
14.0
 40
15.0
 40
15.0
 40
15.0
 40
16.0
 40
16.0
 40
16.0
 40
17.0
 40
17.0
 40
17.0
 40
18.0
 40
18.0
 40
18.0
 40
19.0
 40
19.0
 40
19.0
 40
20.0
 40
20.0
 40
20.0
 40
21.0
 40
21.0
 40
21.0
 40
22.0
 40
22.0
 40
22.0
 40
23.0
 40
23.0
 40
23.0
 40
24.0
 40
24.0
 40
24.0
 40
25.0
 40
25.0
 40
25.0
 40
26.0
 40
26.0
 40
26.0
 40
27.0
 40
27.0
 40
27.0
 40
28.0
 40
28.0
 40
28.0
 40
29.0
 40
29.0
 40
29.0
 40
30.0
 40
30.0
 40
30.0
 40
31.0
 40
31.0
 40
31.0
 40
32.0
 40
32.0
 40
32.0
 40
33.0
 40
33.0
 40
33.0
 40
34.0
 40
34.0
 40
34.0
 40
35.0
 40
35.0
 40
35.0
 40
36.0
 40
36.0
 40
36.0
 40
37.0
 40
37.0
 40
37.0
 40
38.0
 40
38.0
 40
38.0
 40
39.0
 40
39.0
 40
39.0
 40
40.0
 40
40.0
 40
40.0
 40
41.0
 40
41.0
 40
41.0
 40
42.0
 40
42.0
 40
42.0
 40
43.0
 40
43.0
 40
43.0
 40
44.0
 40
44.0
 40
44.0
 40
45.0
 40
45.0
 40
45.0
 40
46.0
 40
46.0
 40
46.0
 40
47.0
 40
47.0
 40
47.0
 40
48.0
 40
48.0
 40
48.0
 40
49.0
 40
49.0
 40
49.0
 40
50.0
 40
50.0
 40
50.0
 40
51.0
 40
51.0
 40
51.0
 40
52.0
 40
52.0
 40
52.0
 40
53.0
 40
53.0
 40
53.0
 40
54.0
 40
54.0
 40
54.0
 40
55.0
 40
55.0
 40
55.0
 40
56.0
 40
56.0
 40
56.0
 40
57.0
 40
57.0
 40
57.0
 40
58.0
 40
58.0
 40
58.0
 40
59.0
 40
59.0
 40
59.0
 40
60.0
 40
60.0
 40
60.0
 40
61.0
 40
61.0
 40
61.0
 40
61.0
 10
170.9094712129772
 20
-168.9871171799753
 10
170.372719837782
 20
-170.1915005130077
 10
169.7333101318725
 20
-171.3610999571596
 10
168.9540240406426
 20
-172.437707179113
 10
168.1787243381999
 20
-173.516007734399
 10
167.2559282506313
 20
-174.4858291230451
 10
166.2542888473256
 20
-175.3319313450558
 10
165.2545166253531
 20
-176.1835721781762
 10
164.190677495499
 20
-176.9221830113247
 10
163.1693505771108
 20
-177.6932141222433
 10
162.1461916261303
 20
-178.461458288718
 10
161.166913405975
 20
-179.2779624551807
 10
160.2920245394064
 20
-180.2056974549483
 10
158.530219404812
 20
-182.0540060655977
 10
157.2160846178802
 20
-184.3067391205897
 10
156.1913357551348
 20
-186.6649174533337
 10
157.0971985098021
 20
-184.259537453935
 10
158.3005940346565
 20
-181.9258418989628
 10
160.0050398245058
 20
-179.9473230105688
 10
160.8499425807283
 20
-178.956158566372
 10
161.8137314450289
 20
-178.0680405110385
 10
162.8088469751969
 20
-177.2394713445788
 10
163.8029041720586
 20
-176.4088560670089
 10
164.8197508127834
 20
-175.6233963449828
 10
165.7395860696762
 20
-174.7562685674222
 10
166.6625207657704
 20
-173.8929155120826
 10
167.4805444025742
 20
-172.9396746789874
 10
168.1583690609415
 20
-171.8906194014717
 10
168.8389479324674
 20
-170.8443510684
 10
169.3863884740565
 20
-169.7129927353494
 10
169.8397431847127
 20
-168.5416646800869
 10
170.2394051189609
 20
-167.5008996803473
 10
170.9549442673727
 20
-167.330014124834
 10
170.8453714923903
 20
-165.3473677364408
 10
170.7361867729537
 20
-163.3650388480478
 10
174.2422360675509
 20
-150.1968674624508
 10
176.4340063498124
 20
-147.0628602410122
 10
175.472475263232
 20
-146.0169446857182
 10
174.3097550151177
 20
-145.0709005192877
 10
173.6521066985623
 20
-144.5631121860816
 10
173.5783761448878
 20
-144.6433691305056
 10
173.5070797578178
 20
-144.7260602415965
 10
173.4326436486057
 20
-144.8059644082427
 10
170.3362073387135
 20
-148.1535785740729
 10
167.3398188040466
 20
-151.5914332954357
 10
164.3567299912627
 20
-155.0485849612377
 10
164.3567299912627
 20
-155.0485849612377
 10
163.2341205754584
 20
-156.3456782942471
 10
163.2341205754584
 20
-156.3456782942471
 10
162.8561897517669
 20
-156.7749382941398
 10
162.4836211501608
 20
-157.2145346829183
 10
162.0627925497859
 20
-157.6365627383688
 10
161.2204650712755
 20
-158.4840407937124
 10
160.2717045399248
 20
-159.202331626866
 10
159.2547167880926
 20
-159.8055816267155
 10
157.9443590437448
 20
-160.5786588487443
 10
156.5328951908654
 20
-161.1550271819334
 10
155.0706313392819
 20
-161.5439646818365
 10
155.0706313392819
 20
-161.5439646818365
 10
154.5890191293467
 20
-161.7300196817897
 10
154.3377002468694
 20
-161.7251866262355
 10
153.7633780392994
 20
-161.8516221817591
 10
153.1825647207839
 20
-161.9498002372901
 10
152.5982610729615
 20
-162.019756070606
 10
152.0119069728721
 20
-162.0869249594786
 10
151.4203692101856
 20
-162.1234374594692
 10
150.8202610734064
 20
-162.1113724594721
 10
150.6726214514845
 20
-162.1062219039177
 10
150.5299933995677
 20
-162.0979316261423
 10
150.3851428477076
 20
-162.0910524594772
 10
150.355862292899
 20
-162.8606724592848
 10
150.2762777402086
 20
-163.5965669035456
 10
150.1799694068996
 20
-164.3434680144696
 10
150.0578356338357
 20
-165.2529644031313
 10
149.8997206378695
 20
-166.1542057917951
 10
149.7153942536832
 20
-167.0485327360157
 10
149.3454009297892
 20
-168.8365516244576
 10
148.8708442752294
 20
-170.5969832906842
 10
148.3204777406976
 20
-172.3298630124731
 10
147.2175512618529
 20
-175.7953049560512
 10
145.8145187976473
 20
-179.1497982885457
 10
144.2122021718591
 20
-182.3957418988454
 10
145.6588026905088
 20
-179.0777963441196
 10
146.8968057144803
 20
-175.6695396783049
 10
147.8263045796557
 20
-172.18554162362
 10
148.2898192900526
 20
-170.4433485685005
 10
148.6755112246573
 20
-168.6829169022739
 10
148.9554051064055
 20
-166.9100674582725
 10
149.0947876028495
 20
-166.0239602362718
 10
149.2074295444202
 20
-165.1341135698276
 10
149.2840881535756
 20
-164.2445844033831
 10
149.3455773186735
 20
-163.5076669035677
 10
149.3870992620587
 20
-162.7521580148674
 10
149.378632595608
 20
-162.0307627372704
 10
149.2787259314902
 20
-162.0231780150498
 10
149.1798776006787
 20
-162.0180274594953
 10
149.0790889921389
 20
-162.0094196817196
 10
147.9239555185745
 20
-161.912582181744
 10
146.7768965508727
 20
-161.7579244040052
 10
145.6390138524792
 20
-161.5594869040548
 10
143.3624663602043
 20
-161.1632821819314
 10
141.1243736395251
 20
-160.5824335709652
 10
138.9351777430441
 20
-159.8655185711446
 10
136.2418234863115
 20
-158.9829038491433
 10
133.6211432753929
 20
-157.8963130160812
 10
131.0879519511311
 20
-156.6381663497292
 10
129.7603786516669
 20
-157.3447449606641
 10
128.4179886859142
 20
-158.0237716271606
 10
127.0663221904557
 20
-158.6821255158851
 10
126.1778145763991
 20
-159.1134669046662
 10
125.2845107103003
 20
-159.5347894045606
 10
124.3889490664813
 20
-159.9516669044567
 10
124.5022965635896
 20
-160.2654980154889
 10
124.5968777466286
 20
-160.5731555154122
 10
124.6866229477759
 20
-160.8914669042214
 10
124.8154573889335
 20
-161.3565691263274
 10
124.9219257195506
 20
-161.82646912621
 10
125.0073684951486
 20
-162.2994735705362
 10
125.1779027464833
 20
-163.2458352369663
 10
125.2640143219343
 20
-164.205990514504
 10
125.2579833020188
 20
-165.165793014264
 10
125.2491976556456
 20
-166.1328274584669
 10
125.1439640472193
 20
-167.0623263471233
 10
125.047655716343
 20
-167.9979988468893
 10
124.9449973856287
 20
-168.9316252355451
 10
124.8237476664998
 20
-169.8601010686464
 10
124.7009104474114
 20
-170.7871657906367
 10
124.4559768425491
 20
-172.6409777346176
 10
124.1941451825623
 20
-174.4892510674889
 10
124.0449554641462
 20
-176.3471905114685
 10
123.9724610801179
 20
-177.2756663445698
 10
123.9280110801292
 20
-178.2072113443371
 10
123.9578193552581
 20
-179.1380860663265
 10
123.9934499099047
 20
-180.0651507883168
 10
124.0871829630689
 20
-181.0053035658598
 10
124.4208416355616
 20
-181.8817446767516
 10
124.0466840752132
 20
-181.0211785658559
 10
123.9076896343148
 20
-180.0768630105366
 10
123.8294788029768
 20
-179.1453180107693
 10
123.756101027071
 20
-178.2096102332252
 10
123.7580060270224
 20
-177.2698102334605
 10
123.7879583023865
 20
-176.3327266225835
 10
123.8521976912861
 20
-174.4582419008298
 10
124.0296449089812
 20
-172.59240023463
 10
124.1891357382456
 20
-170.7310035684285
 10
124.269251569535
 20
-169.8004816242162
 10
124.3472860119887
 20
-168.8706652355602
 10
124.406341010482
 20
-167.9421894024589
 10
124.4593987869062
 20
-167.0158302360241
 10
124.5198648964747
 20
-166.0804752362577
 10
124.4856101751264
 20
-165.177858014261
 10
124.4495915649342
 20
-164.2687144033771
 10
124.3262604569695
 20
-163.3640157924926
 10
124.1243657398981
 20
-162.4789669038245
 10
124.0234360202508
 20
-162.0369716261574
 10
123.9025038011138
 20
-161.5994213484892
 10
123.7623099158015
 20
-161.1698438485962
 10
123.6747857513678
 20
-160.9042021819964
 10
123.5767840872014
 20
-160.634115515397
 10
123.4725749691319
 20
-160.3757410710169
 10
122.4672980043956
 20
-160.8373860709016
 10
121.4582138585244
 20
-161.2900705152328
 10
120.4464105559527
 20
-161.736546070677
 10
120.4903313881655
 20
-165.1592666253767
 10
120.226418339343
 20
-168.8296724577925
 10
119.4600805256907
 20
-171.1998805127553
 10
116.4731803795405
 20
-180.4365199548907
 10
119.4271650264003
 20
-184.2288810650537
 10
119.8133508498812
 20
-185.9080327313011
 10
120.1995366733621
 20
-187.5871843975479
 10
118.8020428201263
 20
-189.2249552304718
 10
118.6172225470636
 20
-190.258170785769
 10
124.6256276715542
 20
-195.5381252288934
 10
133.7279291060019
 20
-200.7526041164785
 10
145.3532265871936
 20
-199.3824857834879
 10
160.3988103700154
 20
-197.6096363394865
 10
171.7142305126269
 20
-190.7039407856576
 10
179.0819210044807
 20
-184.0376755095461
 10
175.3715455435847
 20
-178.3467349554136
 10
172.9623908828251
 20
-172.3633063457983
 10
171.4586050878565
 20
-167.6404232914231
 10
171.2860262033705
 20
-168.0927549579765
 10
171.1058273190789
 20
-168.542687735642
 10
170.9094712129772
 20
-168.9871171799753
 97
        0
 97
        0
 92
        1
 93
        1
 72
     4
 94
        3
 73
     0
 74
     1
 95
       17
 96
       13
 40
0.0
 40
0.0
 40
0.0
 40
0.0
 40
1.0
 40
1.0
 40
1.0
 40
2.0
 40
2.0
 40
2.0
 40
3.0
 40
3.0
 40
3.0
 40
4.0
 40
4.0
 40
4.0
 40
4.0
 10
133.8068102151005
 20
-173.6886219010222
 10
133.1019602330828
 20
-173.6886219010222
 10
132.5305660809936
 20
-173.3406771788868
 10
132.5305660809936
 20
-172.9114171789941
 10
132.5305660809936
 20
-172.4825099568791
 10
133.1019602330828
 20
-172.1345299569662
 10
133.8068102151005
 20
-172.1345299569662
 10
134.5116971885942
 20
-172.1345299569662
 10
135.0830543492075
 20
-172.4825099568791
 10
135.0830543492075
 20
-172.9114171789941
 10
135.0830543492075
 20
-173.3406771788868
 10
134.5116971885942
 20
-173.6886219010222
 10
133.8068102151005
 20
-173.6886219010222
 97
        0
 97
        0
 75
     2
 76
     1
 98
        0
  0
ENDBLK
  5
58
330
55
100
AcDbEntity
  8
0
100
AcDbBlockEnd
  0
ENDSEC
  0
SECTION
  2
ENTITIES
  0
POLYLINE
  5
41
330
1F
100
AcDbEntity
  8
_Camada_
370
     0
100
AcDb2dPolyline
 66
     1
 10
0.0
 20
0.0
 30
0.0
  0
VERTEX
  5
42
330
41
100
AcDbEntity
  8
_Camada_
370
     0
100
AcDbVertex
100
AcDb2dVertex
 10
284.3388888178042
 20
-210.0016613363886
 30
0.0
  0
VERTEX
  5
43
330
41
100
AcDbEntity
  8
_Camada_
370
     0
100
AcDbVertex
100
AcDb2dVertex
 10
8.46666666455
 20
-210.0016613363886
 30
0.0
  0
VERTEX
  5
44
330
41
100
AcDbEntity
  8
_Camada_
370
     0
100
AcDbVertex
100
AcDb2dVertex
 10
8.46666666455
 20
0.0
 30
0.0
  0
VERTEX
  5
45
330
41
100
AcDbEntity
  8
_Camada_
370
     0
100
AcDbVertex
100
AcDb2dVertex
 10
284.3388888178042
 20
0.0
 30
0.0
  0
VERTEX
  5
46
330
41
100
AcDbEntity
  8
_Camada_
370
     0
100
AcDbVertex
100
AcDb2dVertex
 10
284.3388888178042
 20
-210.0016613363886
 30
0.0
  0
SEQEND
  5
47
330
41
100
AcDbEntity
  8
_Camada_
370
     0
  0
INSERT
  5
4A
330
1F
100
AcDbEntity
  8
_Camada__0
100
AcDbBlockReference
  2
block 2
 10
0.0
 20
0.0
 30
0.0
  0
INSERT
  5
56
330
1F
100
AcDbEntity
  8
_Camada__0
100
AcDbBlockReference
  2
block 3
 10
0.0
 20
0.0
 30
0.0
  0
ENDSEC
  0
SECTION
  2
OBJECTS
  0
DICTIONARY
  5
C
330
0
100
AcDbDictionary
281
     1
  3
ACAD_GROUP
350
D
  3
ACAD_LAYOUT
350
1A
  3
ACAD_MATERIAL
350
3B
  3
ACAD_MLEADERSTYLE
350
65
  3
ACAD_MLINESTYLE
350
17
  3
ACAD_PLOTSETTINGS
350
19
  3
ACAD_PLOTSTYLENAME
350
E
  3
ACAD_TABLESTYLE
350
64
  3
ACAD_VISUALSTYLE
350
2A
  0
SUN
  5
3F
330
29
100
AcDbSun
 90
        1
290
     0
 63
     7
421
 16777215
 40
1.0
291
     1
 91
  2455826
 92
 54000000
292
     0
 70
     2
 71
   256
280
     1
  0
DICTIONARY
  5
D
102
{ACAD_REACTORS
330
C
102
}
330
C
100
AcDbDictionary
281
     1
  0
DICTIONARY
  5
1A
102
{ACAD_REACTORS
330
C
102
}
330
C
100
AcDbDictionary
281
     1
  3
Layout1
350
1E
  3
Layout2
350
26
  3
Model
350
22
  0
DICTIONARY
  5
3B
102
{ACAD_REACTORS
330
C
102
}
330
C
100
AcDbDictionary
281
     1
  3
ByBlock
350
3D
  3
ByLayer
350
3C
  3
Global
350
3E
  0
DICTIONARY
  5
65
102
{ACAD_REACTORS
330
C
102
}
330
C
100
AcDbDictionary
281
     1
  0
DICTIONARY
  5
17
102
{ACAD_REACTORS
330
C
102
}
330
C
100
AcDbDictionary
281
     1
  3
Standard
350
18
  0
DICTIONARY
  5
19
102
{ACAD_REACTORS
330
C
102
}
330
C
100
AcDbDictionary
281
     1
  0
ACDBDICTIONARYWDFLT
  5
E
102
{ACAD_REACTORS
330
C
102
}
330
C
100
AcDbDictionary
281
     1
  3
Normal
350
F
100
AcDbDictionaryWithDefault
340
F
  0
DICTIONARY
  5
64
102
{ACAD_REACTORS
330
C
102
}
330
C
100
AcDbDictionary
281
     1
  0
DICTIONARY
  5
2A
102
{ACAD_REACTORS
330
C
102
}
330
C
100
AcDbDictionary
281
     1
  3
2dWireframe
350
2F
  3
3D Hidden
350
31
  3
3dWireframe
350
30
  3
Basic
350
32
  3
Brighten
350
36
  3
ColorChange
350
3A
  3
Conceptual
350
34
  3
Dim
350
35
  3
Facepattern
350
39
  3
Flat
350
2B
  3
FlatWithEdges
350
2C
  3
Gouraud
350
2D
  3
GouraudWithEdges
350
2E
  3
Linepattern
350
38
  3
Realistic
350
33
  3
Thicken
350
37
  0
LAYOUT
  5
1E
102
{ACAD_REACTORS
330
1A
102
}
330
1A
100
AcDbPlotSettings
  1

  2
none_device
  4

  6

 40
0.0
 41
0.0
 42
0.0
 43
0.0
 44
0.0
 45
0.0
 46
0.0
 47
0.0
 48
0.0
 49
0.0
140
0.0
141
0.0
142
1.0
143
1.0
 70
   688
 72
     0
 73
     0
 74
     5
  7

 75
    16
 76
     0
 77
     2
 78
   300
147
1.0
148
0.0
149
0.0
100
AcDbLayout
  1
Layout1
 70
     1
 71
     1
 10
0.0
 20
0.0
 11
12.0
 21
9.0
 12
0.0
 22
0.0
 32
0.0
 14
1.000000000000000E+20
 24
1.000000000000000E+20
 34
1.000000000000000E+20
 15
-1.000000000000000E+20
 25
-1.000000000000000E+20
 35
-1.000000000000000E+20
146
0.0
 13
0.0
 23
0.0
 33
0.0
 16
1.0
 26
0.0
 36
0.0
 17
0.0
 27
1.0
 37
0.0
 76
     0
330
1B
  0
LAYOUT
  5
26
102
{ACAD_REACTORS
330
1A
102
}
330
1A
100
AcDbPlotSettings
  1

  2
none_device
  4

  6

 40
0.0
 41
0.0
 42
0.0
 43
0.0
 44
0.0
 45
0.0
 46
0.0
 47
0.0
 48
0.0
 49
0.0
140
0.0
141
0.0
142
1.0
143
1.0
 70
   688
 72
     0
 73
     0
 74
     5
  7

 75
    16
 76
     0
 77
     2
 78
   300
147
1.0
148
0.0
149
0.0
100
AcDbLayout
  1
Layout2
 70
     1
 71
     2
 10
0.0
 20
0.0
 11
0.0
 21
0.0
 12
0.0
 22
0.0
 32
0.0
 14
0.0
 24
0.0
 34
0.0
 15
0.0
 25
0.0
 35
0.0
146
0.0
 13
0.0
 23
0.0
 33
0.0
 16
1.0
 26
0.0
 36
0.0
 17
0.0
 27
1.0
 37
0.0
 76
     0
330
23
  0
LAYOUT
  5
22
102
{ACAD_REACTORS
330
1A
102
}
330
1A
100
AcDbPlotSettings
  1

  2
none_device
  4

  6

 40
0.0
 41
0.0
 42
0.0
 43
0.0
 44
0.0
 45
0.0
 46
0.0
 47
0.0
 48
0.0
 49
0.0
140
0.0
141
0.0
142
1.0
143
1.0
 70
  1712
 72
     0
 73
     0
 74
     0
  7

 75
     0
 76
     0
 77
     2
 78
   300
147
1.0
148
0.0
149
0.0
100
AcDbLayout
  1
Model
 70
     1
 71
     0
 10
0.0
 20
0.0
 11
12.0
 21
9.0
 12
0.0
 22
0.0
 32
0.0
 14
1.000000000000000E+20
 24
1.000000000000000E+20
 34
1.000000000000000E+20
 15
-1.000000000000000E+20
 25
-1.000000000000000E+20
 35
-1.000000000000000E+20
146
0.0
 13
0.0
 23
0.0
 33
0.0
 16
1.0
 26
0.0
 36
0.0
 17
0.0
 27
1.0
 37
0.0
 76
     0
330
1F
331
29
  0
MATERIAL
  5
3D
102
{ACAD_REACTORS
330
3B
102
}
330
3B
100
AcDbMaterial
  1
ByBlock
 72
     1
 94
      127
  0
MATERIAL
  5
3C
102
{ACAD_REACTORS
330
3B
102
}
330
3B
100
AcDbMaterial
  1
ByLayer
 72
     1
 94
      127
  0
MATERIAL
  5
3E
102
{ACAD_REACTORS
330
3B
102
}
330
3B
100
AcDbMaterial
  1
Global
 72
     1
 94
      127
  0
MLINESTYLE
  5
18
102
{ACAD_REACTORS
330
17
102
}
330
17
100
AcDbMlineStyle
  2
Standard
 70
     0
  3

 62
   256
 51
90.0
 52
90.0
 71
     2
 49
0.5
 62
   256
  6
BYLAYER
 49
-0.5
 62
   256
  6
BYLAYER
  0
ACDBPLACEHOLDER
  5
F
102
{ACAD_REACTORS
330
E
102
}
330
E
  0
VISUALSTYLE
  5
2F
102
{ACAD_REACTORS
330
2A
102
}
330
2A
100
AcDbVisualStyle
  2
2dWireframe
 70
     4
177
     2
291
     0
 71
     0
176
     1
 72
     2
176
     1
 73
     0
176
     1
 90
        0
176
     1
 40
-0.6
176
     1
 41
-30.0
176
     1
 62
     5
 63
     7
421
 16777215
176
     1
 74
     1
176
     1
 91
        4
176
     1
 64
     7
176
     1
 65
   257
176
     1
 75
     1
176
     1
175
     1
176
     1
 42
1.0
176
     1
 92
        0
176
     1
 66
   257
176
     1
 43
1.0
176
     1
 76
     1
176
     1
 77
     6
176
     1
 78
     2
176
     1
 67
     7
176
     1
 79
     5
176
     1
170
     0
176
     1
171
     0
176
     1
290
     0
176
     1
 93
        1
176
     1
 44
0.0
176
     1
173
     0
176
     1
  0
VISUALSTYLE
  5
31
102
{ACAD_REACTORS
330
2A
102
}
330
2A
100
AcDbVisualStyle
  2
3D Hidden
 70
     6
177
     2
291
     0
 71
     1
176
     1
 72
     2
176
     1
 73
     2
176
     1
 90
        0
176
     1
 40
-0.6
176
     1
 41
-30.0
176
     1
 62
     5
 63
     7
421
 16777215
176
     1
 74
     2
176
     1
 91
        2
176
     1
 64
     7
176
     1
 65
   257
176
     1
 75
     2
176
     1
175
     1
176
     1
 42
40.0
176
     1
 92
        0
176
     1
 66
   257
176
     1
 43
1.0
176
     1
 76
     1
176
     1
 77
     6
176
     1
 78
     2
176
     1
 67
     7
176
     1
 79
     3
176
     1
170
     0
176
     1
171
     0
176
     1
290
     0
176
     1
 93
        1
176
     1
 44
0.0
176
     1
173
     0
176
     1
  0
VISUALSTYLE
  5
30
102
{ACAD_REACTORS
330
2A
102
}
330
2A
100
AcDbVisualStyle
  2
3dWireframe
 70
     5
177
     2
291
     0
 71
     0
176
     1
 72
     2
176
     1
 73
     0
176
     1
 90
        0
176
     1
 40
-0.6
176
     1
 41
-30.0
176
     1
 62
     5
 63
     7
421
 16777215
176
     1
 74
     1
176
     1
 91
        4
176
     1
 64
     7
176
     1
 65
   257
176
     1
 75
     1
176
     1
175
     1
176
     1
 42
1.0
176
     1
 92
        0
176
     1
 66
   257
176
     1
 43
1.0
176
     1
 76
     1
176
     1
 77
     6
176
     1
 78
     2
176
     1
 67
     7
176
     1
 79
     5
176
     1
170
     0
176
     1
171
     0
176
     1
290
     0
176
     1
 93
        1
176
     1
 44
0.0
176
     1
173
     0
176
     1
  0
VISUALSTYLE
  5
32
102
{ACAD_REACTORS
330
2A
102
}
330
2A
100
AcDbVisualStyle
  2
Basic
 70
     7
177
     2
291
     1
 71
     1
176
     1
 72
     0
176
     1
 73
     1
176
     1
 90
        0
176
     1
 40
-0.6
176
     1
 41
-30.0
176
     1
 62
     5
 63
     7
421
 16777215
176
     1
 74
     0
176
     1
 91
        4
176
     1
 64
     7
176
     1
 65
   257
176
     1
 75
     1
176
     1
175
     1
176
     1
 42
1.0
176
     1
 92
        8
176
     1
 66
     7
176
     1
 43
1.0
176
     1
 76
     1
176
     1
 77
     6
176
     1
 78
     2
176
     1
 67
     7
176
     1
 79
     5
176
     1
170
     0
176
     1
171
     0
176
     1
290
     0
176
     1
 93
        1
176
     1
 44
0.0
176
     1
173
     0
176
     1
  0
VISUALSTYLE
  5
36
102
{ACAD_REACTORS
330
2A
102
}
330
2A
100
AcDbVisualStyle
  2
Brighten
 70
    12
177
     2
291
     1
 71
     2
176
     1
 72
     2
176
     1
 73
     0
176
     1
 90
        0
176
     1
 40
-0.6
176
     1
 41
-30.0
176
     1
 62
     5
 63
     7
421
 16777215
176
     1
 74
     1
176
     1
 91
        4
176
     1
 64
     7
176
     1
 65
   257
176
     1
 75
     1
176
     1
175
     1
176
     1
 42
1.0
176
     1
 92
        8
176
     1
 66
     7
176
     1
 43
1.0
176
     1
 76
     1
176
     1
 77
     6
176
     1
 78
     2
176
     1
 67
     7
176
     1
 79
     5
176
     1
170
     0
176
     1
171
     0
176
     1
290
     0
176
     1
 93
        1
176
     1
 44
50.0
176
     1
173
     0
176
     1
  0
VISUALSTYLE
  5
3A
102
{ACAD_REACTORS
330
2A
102
}
330
2A
100
AcDbVisualStyle
  2
ColorChange
 70
    16
177
     2
291
     1
 71
     2
176
     1
 72
     2
176
     1
 73
     3
176
     1
 90
        0
176
     1
 40
-0.6
176
     1
 41
-30.0
176
     1
 62
     5
 63
     8
421
  8421504
176
     1
 74
     1
176
     1
 91
        4
176
     1
 64
     7
176
     1
 65
   257
176
     1
 75
     1
176
     1
175
     1
176
     1
 42
1.0
176
     1
 92
        8
176
     1
 66
     8
424
  8421504
176
     1
 43
1.0
176
     1
 76
     1
176
     1
 77
     6
176
     1
 78
     2
176
     1
 67
     7
176
     1
 79
     5
176
     1
170
     0
176
     1
171
     0
176
     1
290
     0
176
     1
 93
        1
176
     1
 44
0.0
176
     1
173
     0
176
     1
  0
VISUALSTYLE
  5
34
102
{ACAD_REACTORS
330
2A
102
}
330
2A
100
AcDbVisualStyle
  2
Conceptual
 70
     9
177
     2
291
     0
 71
     3
176
     1
 72
     2
176
     1
 73
     0
176
     1
 90
        0
176
     1
 40
-0.6
176
     1
 41
-30.0
176
     1
 62
     5
 63
     7
421
 16777215
176
     1
 74
     2
176
     1
 91
        2
176
     1
 64
     7
176
     1
 65
   257
176
     1
 75
     1
176
     1
175
     1
176
     1
 42
40.0
176
     1
 92
        8
176
     1
 66
     7
176
     1
 43
1.0
176
     1
 76
     1
176
     1
 77
     6
176
     1
 78
     2
176
     1
 67
     7
176
     1
 79
     3
176
     1
170
     0
176
     1
171
     0
176
     1
290
     0
176
     1
 93
        1
176
     1
 44
0.0
176
     1
173
     0
176
     1
  0
VISUALSTYLE
  5
35
102
{ACAD_REACTORS
330
2A
102
}
330
2A
100
AcDbVisualStyle
  2
Dim
 70
    11
177
     2
291
     1
 71
     2
176
     1
 72
     2
176
     1
 73
     0
176
     1
 90
        0
176
     1
 40
-0.6
176
     1
 41
-30.0
176
     1
 62
     5
 63
     7
421
 16777215
176
     1
 74
     1
176
     1
 91
        4
176
     1
 64
     7
176
     1
 65
   257
176
     1
 75
     1
176
     1
175
     1
176
     1
 42
1.0
176
     1
 92
        8
176
     1
 66
     7
176
     1
 43
1.0
176
     1
 76
     1
176
     1
 77
     6
176
     1
 78
     2
176
     1
 67
     7
176
     1
 79
     5
176
     1
170
     0
176
     1
171
     0
176
     1
290
     0
176
     1
 93
        1
176
     1
 44
-50.0
176
     1
173
     0
176
     1
  0
VISUALSTYLE
  5
39
102
{ACAD_REACTORS
330
2A
102
}
330
2A
100
AcDbVisualStyle
  2
Facepattern
 70
    15
177
     2
291
     1
 71
     2
176
     1
 72
     2
176
     1
 73
     0
176
     1
 90
        0
176
     1
 40
-0.6
176
     1
 41
-30.0
176
     1
 62
     5
 63
     7
421
 16777215
176
     1
 74
     1
176
     1
 91
        4
176
     1
 64
     7
176
     1
 65
   257
176
     1
 75
     1
176
     1
175
     1
176
     1
 42
1.0
176
     1
 92
        8
176
     1
 66
     7
176
     1
 43
1.0
176
     1
 76
     1
176
     1
 77
     6
176
     1
 78
     2
176
     1
 67
     7
176
     1
 79
     5
176
     1
170
     0
176
     1
171
     0
176
     1
290
     0
176
     1
 93
        1
176
     1
 44
0.0
176
     1
173
     0
176
     1
  0
VISUALSTYLE
  5
2B
102
{ACAD_REACTORS
330
2A
102
}
330
2A
100
AcDbVisualStyle
  2
Flat
 70
     0
177
     2
291
     1
 71
     2
176
     1
 72
     1
176
     1
 73
     1
176
     1
 90
        2
176
     1
 40
-0.6
176
     1
 41
30.0
176
     1
 62
     5
 63
     7
421
 16777215
176
     1
 74
     0
176
     1
 91
        4
176
     1
 64
     7
176
     1
 65
   257
176
     1
 75
     1
176
     1
175
     1
176
     1
 42
1.0
176
     1
 92
        8
176
     1
 66
     7
176
     1
 43
1.0
176
     1
 76
     1
176
     1
 77
     6
176
     1
 78
     2
176
     1
 67
     7
176
     1
 79
     5
176
     1
170
     0
176
     1
171
     0
176
     1
290
     0
176
     1
 93
       13
176
     1
 44
0.0
176
     1
173
     0
176
     1
  0
VISUALSTYLE
  5
2C
102
{ACAD_REACTORS
330
2A
102
}
330
2A
100
AcDbVisualStyle
  2
FlatWithEdges
 70
     1
177
     2
291
     1
 71
     2
176
     1
 72
     1
176
     1
 73
     1
176
     1
 90
        2
176
     1
 40
-0.6
176
     1
 41
30.0
176
     1
 62
     5
 63
     7
421
 16777215
176
     1
 74
     1
176
     1
 91
        4
176
     1
 64
     7
176
     1
 65
   257
176
     1
 75
     1
176
     1
175
     1
176
     1
 42
1.0
176
     1
 92
        0
176
     1
 66
   257
176
     1
 43
1.0
176
     1
 76
     1
176
     1
 77
     6
176
     1
 78
     2
176
     1
 67
     7
176
     1
 79
     5
176
     1
170
     0
176
     1
171
     0
176
     1
290
     0
176
     1
 93
       13
176
     1
 44
0.0
176
     1
173
     0
176
     1
  0
VISUALSTYLE
  5
2D
102
{ACAD_REACTORS
330
2A
102
}
330
2A
100
AcDbVisualStyle
  2
Gouraud
 70
     2
177
     2
291
     1
 71
     2
176
     1
 72
     2
176
     1
 73
     1
176
     1
 90
        2
176
     1
 40
-0.6
176
     1
 41
30.0
176
     1
 62
     5
 63
     7
421
 16777215
176
     1
 74
     0
176
     1
 91
        4
176
     1
 64
     7
176
     1
 65
   257
176
     1
 75
     1
176
     1
175
     1
176
     1
 42
1.0
176
     1
 92
        0
176
     1
 66
     7
176
     1
 43
1.0
176
     1
 76
     1
176
     1
 77
     6
176
     1
 78
     2
176
     1
 67
     7
176
     1
 79
     5
176
     1
170
     0
176
     1
171
     0
176
     1
290
     0
176
     1
 93
       13
176
     1
 44
0.0
176
     1
173
     0
176
     1
  0
VISUALSTYLE
  5
2E
102
{ACAD_REACTORS
330
2A
102
}
330
2A
100
AcDbVisualStyle
  2
GouraudWithEdges
 70
     3
177
     2
291
     1
 71
     2
176
     1
 72
     2
176
     1
 73
     1
176
     1
 90
        2
176
     1
 40
-0.6
176
     1
 41
30.0
176
     1
 62
     5
 63
     7
421
 16777215
176
     1
 74
     1
176
     1
 91
        4
176
     1
 64
     7
176
     1
 65
   257
176
     1
 75
     1
176
     1
175
     1
176
     1
 42
1.0
176
     1
 92
        0
176
     1
 66
   257
176
     1
 43
1.0
176
     1
 76
     1
176
     1
 77
     6
176
     1
 78
     2
176
     1
 67
     7
176
     1
 79
     5
176
     1
170
     0
176
     1
171
     0
176
     1
290
     0
176
     1
 93
       13
176
     1
 44
0.0
176
     1
173
     0
176
     1
  0
VISUALSTYLE
  5
38
102
{ACAD_REACTORS
330
2A
102
}
330
2A
100
AcDbVisualStyle
  2
Linepattern
 70
    14
177
     2
291
     1
 71
     2
176
     1
 72
     2
176
     1
 73
     0
176
     1
 90
        0
176
     1
 40
-0.6
176
     1
 41
-30.0
176
     1
 62
     5
 63
     7
421
 16777215
176
     1
 74
     1
176
     1
 91
        4
176
     1
 64
     7
176
     1
 65
   257
176
     1
 75
     7
176
     1
175
     7
176
     1
 42
1.0
176
     1
 92
        8
176
     1
 66
     7
176
     1
 43
1.0
176
     1
 76
     1
176
     1
 77
     6
176
     1
 78
     2
176
     1
 67
     7
176
     1
 79
     5
176
     1
170
     0
176
     1
171
     0
176
     1
290
     0
176
     1
 93
        1
176
     1
 44
0.0
176
     1
173
     0
176
     1
  0
VISUALSTYLE
  5
33
102
{ACAD_REACTORS
330
2A
102
}
330
2A
100
AcDbVisualStyle
  2
Realistic
 70
     8
177
     2
291
     0
 71
     2
176
     1
 72
     2
176
     1
 73
     0
176
     1
 90
        0
176
     1
 40
-0.6
176
     1
 41
-30.0
176
     1
 62
     5
 63
     7
421
 16777215
176
     1
 74
     1
176
     1
 91
        0
176
     1
 64
     7
176
     1
 65
   257
176
     1
 75
     1
176
     1
175
     1
176
     1
 42
1.0
176
     1
 92
        8
176
     1
 66
     8
424
  7895160
176
     1
 43
1.0
176
     1
 76
     1
176
     1
 77
     6
176
     1
 78
     2
176
     1
 67
     7
176
     1
 79
     5
176
     1
170
     0
176
     1
171
     0
176
     1
290
     0
176
     1
 93
       13
176
     1
 44
0.0
176
     1
173
     0
176
     1
  0
VISUALSTYLE
  5
37
102
{ACAD_REACTORS
330
2A
102
}
330
2A
100
AcDbVisualStyle
  2
Thicken
 70
    13
177
     2
291
     1
 71
     2
176
     1
 72
     2
176
     1
 73
     0
176
     1
 90
        0
176
     1
 40
-0.6
176
     1
 41
-30.0
176
     1
 62
     5
 63
     7
421
 16777215
176
     1
 74
     1
176
     1
 91
        4
176
     1
 64
     7
176
     1
 65
   257
176
     1
 75
     1
176
     1
175
     1
176
     1
 42
1.0
176
     1
 92
       12
176
     1
 66
     7
176
     1
 43
1.0
176
     1
 76
     1
176
     1
 77
     6
176
     1
 78
     2
176
     1
 67
     7
176
     1
 79
     5
176
     1
170
     0
176
     1
171
     0
176
     1
290
     0
176
     1
 93
        1
176
     1
 44
0.0
176
     1
173
     0
176
     1
  0
ENDSEC
  0
EOF
